{"glyphs":{"0":{"ha":1386,"x_min":86,"x_max":1300,"o":"m 664 1050 l 722 1050 q 933 1026 839 1050 q 1088 958 1028 1001 q 1192 865 1149 915 q 1258 753 1236 814 q 1290 642 1281 693 q 1300 540 1300 592 l 1300 499 q 1287 375 1300 438 q 1235 240 1274 313 q 1135 112 1196 167 q 967 20 1074 57 q 722 -17 860 -17 l 664 -17 q 419 20 526 -17 q 251 112 313 57 q 151 240 190 167 q 99 375 113 313 q 86 499 86 438 l 86 540 q 99 666 86 604 q 151 800 113 728 q 251 926 190 872 q 419 1015 313 979 q 664 1050 525 1050 m 1003 511 l 1003 531 q 997 597 1003 564 q 972 670 992 629 q 919 742 951 711 q 829 793 888 772 q 693 814 771 814 q 556 793 615 814 q 465 742 497 772 q 414 670 433 711 q 389 597 394 629 q 383 531 383 564 l 383 511 q 390 444 383 478 q 417 368 396 410 q 469 295 438 326 q 560 242 501 264 q 694 221 618 221 q 828 242 771 221 q 918 295 886 264 q 970 369 950 326 q 997 444 990 411 q 1003 511 1003 478 z "},"1":{"ha":729,"x_min":67,"x_max":597,"o":"m 313 668 l 67 668 l 67 878 q 287 909 224 878 q 383 1033 350 940 l 597 1033 l 597 0 l 313 0 l 313 668 z "},"2":{"ha":1236,"x_min":86,"x_max":1160,"o":"m 1160 0 l 86 0 l 86 150 q 88 213 86 188 q 99 273 90 239 q 124 333 108 307 q 170 391 140 360 q 243 448 200 422 q 349 502 286 474 q 494 556 413 531 l 660 606 q 797 660 761 635 q 833 725 833 686 q 789 799 833 772 q 626 825 744 825 q 526 812 569 825 q 461 782 483 799 q 425 740 439 765 q 408 698 411 714 q 403 661 404 682 l 104 661 l 104 671 q 114 765 104 719 q 156 863 124 810 q 238 955 188 917 q 380 1019 289 993 q 590 1046 471 1046 l 653 1046 q 1136 726 1136 1046 l 1136 715 q 1051 513 1136 582 q 749 394 967 444 q 583 356 636 369 q 343 247 343 294 l 1160 247 l 1160 0 z "},"3":{"ha":1247,"x_min":72,"x_max":1168,"o":"m 638 -15 l 579 -15 q 359 12 454 -15 q 211 78 264 39 q 125 168 158 117 q 82 260 92 219 q 72 339 72 301 l 72 351 l 378 351 q 615 215 399 215 q 865 339 865 215 q 726 429 865 429 l 396 429 l 396 639 l 725 639 q 851 722 851 639 q 838 771 851 751 q 769 807 825 790 q 613 824 713 824 q 488 812 538 824 q 417 778 438 800 q 392 745 397 757 q 383 717 386 733 l 86 717 l 86 732 q 94 798 86 764 q 131 878 101 832 q 209 960 161 925 q 348 1021 257 996 q 560 1046 439 1046 l 638 1046 q 850 1029 758 1046 q 994 987 942 1013 q 1081 924 1047 961 q 1125 853 1114 888 q 1136 781 1136 819 l 1136 771 q 982 579 1136 632 q 1113 500 1058 560 q 1168 343 1168 440 l 1168 333 q 1156 237 1168 282 q 1107 144 1143 192 q 1014 62 1071 96 q 860 6 957 28 q 638 -15 764 -15 z "},"4":{"ha":1294,"x_min":75,"x_max":1238,"o":"m 75 225 l 75 407 l 640 1040 l 1018 1040 l 1018 447 l 1238 447 l 1238 225 l 1018 225 l 1018 0 l 735 0 l 735 225 l 75 225 m 735 447 l 735 846 l 381 447 l 735 447 z "},"5":{"ha":1228,"x_min":101,"x_max":1149,"o":"m 653 -15 l 597 -15 q 411 1 494 -15 q 276 44 328 17 q 188 104 225 72 q 133 172 151 136 q 108 236 115 208 q 101 289 101 264 l 101 308 l 403 308 q 414 283 406 296 q 444 253 422 271 q 514 226 467 236 q 628 215 561 215 q 864 343 864 215 l 864 351 q 811 443 864 411 q 628 475 758 475 q 489 459 543 475 q 419 427 435 443 q 400 394 403 411 l 117 394 l 117 1033 l 1076 1033 l 1076 799 l 400 799 l 400 607 q 438 633 411 618 q 536 668 465 649 q 690 688 607 688 l 704 688 q 888 669 808 688 q 1017 619 968 650 q 1096 545 1065 589 q 1138 459 1126 501 q 1149 367 1149 417 l 1149 350 q 1135 251 1149 299 q 1088 154 1122 204 q 999 68 1053 104 q 856 8 946 32 q 653 -15 767 -15 z "},"6":{"ha":1304,"x_min":86,"x_max":1221,"o":"m 701 -15 l 633 -15 q 453 3 535 -15 q 315 52 371 22 q 217 125 260 82 q 151 213 175 168 q 111 309 126 257 q 91 403 96 361 q 86 490 86 446 l 86 522 q 97 641 86 581 q 144 777 108 701 q 236 910 179 853 q 396 1006 293 967 q 633 1046 499 1046 l 675 1046 q 935 1016 828 1046 q 1095 937 1043 986 q 1169 838 1147 888 q 1190 733 1190 789 l 1190 732 l 890 732 q 876 759 883 749 q 845 788 868 769 q 775 815 822 806 q 660 825 728 825 q 533 806 588 825 q 451 758 479 786 q 405 691 422 729 q 383 623 388 653 q 378 563 378 593 l 378 553 q 733 653 497 653 l 764 653 q 1111 571 1001 653 q 1221 358 1221 489 l 1221 335 q 1213 261 1221 297 q 1185 183 1204 225 q 1126 108 1165 142 q 1033 45 1088 74 q 894 1 979 17 q 701 -15 808 -15 m 417 335 l 417 328 q 472 242 417 279 q 669 204 528 204 q 926 326 926 204 l 926 335 q 669 451 926 451 q 417 335 417 451 z "},"7":{"ha":1208,"x_min":88,"x_max":1139,"o":"m 88 1033 l 1139 1033 l 1139 817 q 914 488 1007 632 q 797 248 822 346 q 771 33 771 150 l 771 0 l 458 0 l 458 90 q 463 199 458 161 q 484 294 467 238 q 542 408 501 350 q 651 543 582 467 q 762 664 696 593 q 857 767 828 735 q 886 808 886 800 l 369 808 l 369 629 l 88 629 l 88 1033 z "},"8":{"ha":1282,"x_min":79,"x_max":1203,"o":"m 669 -17 l 611 -17 q 374 6 475 -17 q 217 60 272 28 q 130 136 163 92 q 88 217 97 181 q 79 293 79 253 l 79 311 q 146 463 79 401 q 311 542 213 524 q 165 610 226 557 q 104 749 104 664 l 104 765 q 611 1043 104 1043 l 669 1043 q 899 1024 801 1043 q 1049 976 997 1004 q 1132 908 1101 949 q 1170 835 1163 868 q 1178 765 1178 803 l 1178 749 q 1116 613 1178 668 q 969 542 1054 557 q 1136 463 1069 524 q 1203 311 1203 401 l 1203 293 q 1194 217 1203 253 q 1151 136 1185 181 q 1063 60 1118 92 q 906 6 1007 28 q 669 -17 804 -17 m 875 735 l 875 740 q 640 833 875 833 q 406 740 406 833 l 406 735 q 640 642 406 642 q 875 735 875 642 m 901 315 l 901 319 q 640 431 901 431 q 381 319 381 431 l 381 315 q 640 203 381 203 q 901 315 901 203 z "},"9":{"ha":1304,"x_min":83,"x_max":1218,"o":"m 888 696 l 888 703 q 831 789 888 751 q 635 826 775 826 q 499 814 554 826 q 419 781 443 801 q 387 742 396 760 q 378 704 378 724 l 378 696 q 635 579 378 579 q 888 696 888 579 m 676 -15 l 625 -15 q 408 6 503 -15 q 260 60 314 28 q 172 137 206 93 q 126 219 138 181 q 115 296 115 257 l 115 297 l 414 297 q 644 206 435 206 q 771 225 717 206 q 853 273 825 244 q 899 340 882 301 q 922 408 917 378 q 926 468 926 438 l 926 478 q 571 378 808 378 l 540 378 q 192 460 301 378 q 83 674 83 542 l 83 696 q 94 785 83 742 q 140 878 106 829 q 228 963 174 926 q 378 1022 283 999 q 597 1046 474 1046 l 682 1046 q 916 1010 815 1046 q 1072 921 1017 974 q 1163 795 1128 868 q 1208 663 1197 722 q 1218 540 1218 603 l 1218 508 q 1208 385 1218 446 q 1163 248 1197 324 q 1072 117 1128 172 q 914 23 1017 61 q 676 -15 811 -15 z "},"\u0000":{"ha":0,"x_min":0,"x_max":0,"o":""},"\r":{"ha":401,"x_min":0,"x_max":0,"o":""}," ":{"ha":401,"x_min":0,"x_max":0,"o":""},"!":{"ha":525,"x_min":107,"x_max":418,"o":"m 107 1033 l 418 1033 l 329 336 l 197 336 l 107 1033 m 413 246 l 413 0 l 114 0 l 114 246 l 413 246 z "},"\"":{"ha":846,"x_min":115,"x_max":731,"o":"m 731 1033 l 731 622 l 496 622 l 496 1033 l 731 1033 m 350 1033 l 350 622 l 115 622 l 115 1033 l 350 1033 z "},"#":{"ha":1108,"x_min":32,"x_max":1076,"o":"m 629 438 l 676 642 l 478 642 l 428 438 l 629 438 m 525 0 l 590 278 l 390 278 l 324 0 l 128 0 l 193 278 l 32 278 l 71 438 l 231 438 l 278 642 l 118 642 l 157 801 l 315 801 l 369 1033 l 571 1033 l 515 801 l 714 801 l 769 1033 l 972 1033 l 917 801 l 1076 801 l 1036 642 l 879 642 l 829 438 l 988 438 l 949 278 l 792 278 l 725 0 l 525 0 z "},"$":{"ha":1308,"x_min":86,"x_max":1222,"o":"m 431 821 q 411 810 431 821 q 392 753 392 799 q 432 680 392 707 q 585 649 472 653 l 585 849 q 431 821 471 843 m 922 317 q 880 394 922 369 q 719 425 838 419 l 719 188 q 882 228 842 194 q 922 317 922 263 m 719 -124 l 585 -124 l 585 -17 q 362 13 457 -14 q 216 74 267 39 q 134 157 165 108 q 94 244 103 206 q 86 325 86 282 l 86 340 l 390 340 q 585 189 404 204 l 585 428 l 550 429 q 328 459 419 433 q 187 528 236 485 q 116 624 138 572 q 94 743 94 676 l 94 756 q 585 1046 94 1038 l 585 1154 l 719 1154 l 719 1046 q 972 1014 871 1042 q 1120 940 1074 986 q 1183 848 1167 893 q 1200 744 1200 803 l 1200 729 l 901 729 q 885 779 897 758 q 832 820 874 800 q 719 846 790 840 l 719 644 l 760 643 q 989 614 896 639 q 1132 545 1082 589 q 1202 449 1182 501 q 1222 325 1222 396 l 1222 308 q 1212 219 1222 260 q 1169 133 1201 178 q 1084 58 1138 89 q 938 6 1031 28 q 719 -18 844 -15 l 719 -124 z "},"%":{"ha":1871,"x_min":57,"x_max":1814,"o":"m 432 439 l 401 439 q 256 460 319 439 q 157 512 193 481 q 97 584 121 543 q 65 661 74 625 q 57 732 57 697 l 57 757 q 65 828 57 793 q 97 904 74 864 q 156 975 119 944 q 256 1026 193 1006 q 401 1046 319 1046 l 432 1046 q 577 1026 514 1046 q 677 975 640 1006 q 738 904 714 944 q 769 828 761 864 q 778 757 778 792 l 778 732 q 769 661 778 697 q 738 584 761 625 q 677 512 714 543 q 577 460 640 481 q 432 439 514 439 m 1296 1033 l 1531 1033 l 574 0 l 338 0 l 1296 1033 m 579 739 l 579 750 q 540 844 579 807 q 415 882 500 882 q 292 845 329 882 q 254 750 254 808 l 254 742 q 293 644 254 685 q 415 604 332 604 q 539 644 499 604 q 579 739 579 685 m 1468 -11 l 1439 -11 q 1294 10 1357 -11 q 1194 62 1231 31 q 1133 135 1157 93 q 1101 213 1110 176 q 1093 283 1093 249 l 1093 307 q 1101 378 1093 342 q 1133 454 1110 414 q 1194 525 1157 494 q 1294 576 1231 556 q 1439 596 1357 596 l 1468 596 q 1613 576 1550 596 q 1713 525 1676 556 q 1774 454 1750 494 q 1806 378 1797 414 q 1814 307 1814 342 l 1814 283 q 1806 213 1814 249 q 1774 135 1797 176 q 1713 62 1750 93 q 1613 10 1676 31 q 1468 -11 1550 -11 m 1451 432 q 1328 395 1365 432 q 1290 301 1290 358 l 1290 292 q 1329 194 1290 235 q 1451 154 1368 154 q 1575 194 1535 154 q 1615 289 1615 235 l 1615 301 q 1576 394 1615 357 q 1451 432 1536 432 z "},"&":{"ha":1410,"x_min":60,"x_max":1382,"o":"m 492 794 q 522 726 492 758 q 624 636 551 693 q 793 782 793 688 q 757 859 793 832 q 632 886 721 886 q 492 794 492 886 m 614 172 q 814 197 729 172 l 444 469 q 344 338 344 421 l 344 333 q 414 219 344 265 q 614 172 483 172 m 1382 215 l 1307 -15 q 996 69 1138 -15 q 603 -17 843 -17 q 190 67 321 -17 q 60 283 60 150 l 60 297 q 140 466 60 403 q 344 554 219 529 q 248 665 281 610 q 215 792 215 719 l 215 803 q 307 979 215 908 q 607 1050 399 1050 l 657 1050 q 1042 804 1042 1050 l 1042 797 q 738 546 1042 603 l 993 347 q 1063 607 1063 475 l 1329 607 q 1183 239 1322 407 q 1382 215 1253 217 z "},"'":{"ha":469,"x_min":115,"x_max":354,"o":"m 354 1033 l 354 621 l 115 621 l 115 1033 l 354 1033 z "},"(":{"ha":513,"x_min":76,"x_max":481,"o":"m 349 826 q 322 741 349 826 q 296 471 296 656 q 349 115 296 286 q 481 -182 401 -57 l 328 -182 q 76 471 76 125 q 328 1122 76 815 l 481 1122 q 349 826 401 997 z "},")":{"ha":514,"x_min":32,"x_max":438,"o":"m 164 115 q 190 200 164 115 q 217 471 217 286 q 164 826 217 656 q 32 1122 111 997 l 186 1122 q 438 471 438 815 q 186 -182 438 125 l 32 -182 q 164 115 111 -57 z "},"*":{"ha":731,"x_min":75,"x_max":656,"o":"m 424 661 l 457 471 l 276 471 l 311 661 l 147 546 l 75 688 l 275 751 l 75 815 l 147 957 l 311 843 l 276 1033 l 457 1033 l 424 843 l 586 957 l 656 815 l 456 751 l 656 688 l 586 546 l 424 661 z "},"+":{"ha":935,"x_min":103,"x_max":832,"o":"m 832 353 l 572 353 l 572 88 l 364 88 l 364 353 l 103 353 l 103 536 l 364 536 l 364 800 l 572 800 l 572 536 l 832 536 l 832 353 z "},",":{"ha":507,"x_min":92,"x_max":415,"o":"m 340 -200 l 160 -200 q 236 0 222 -89 l 92 0 l 92 269 l 415 269 l 415 69 q 340 -200 415 -72 z "},"-":{"ha":663,"x_min":103,"x_max":560,"o":"m 103 529 l 560 529 l 560 303 l 103 303 l 103 529 z "},".":{"ha":507,"x_min":92,"x_max":415,"o":"m 415 269 l 415 0 l 92 0 l 92 269 l 415 269 z "},"/":{"ha":654,"x_min":-21,"x_max":638,"o":"m 638 1122 l 189 -182 l -21 -182 l 426 1122 l 638 1122 z "},":":{"ha":521,"x_min":99,"x_max":422,"o":"m 422 269 l 422 0 l 99 0 l 99 269 l 422 269 m 422 738 l 422 468 l 99 468 l 99 738 l 422 738 z "},";":{"ha":521,"x_min":99,"x_max":422,"o":"m 347 -200 l 167 -200 q 243 0 229 -89 l 99 0 l 99 269 l 422 269 l 422 69 q 347 -200 422 -72 m 422 738 l 422 468 l 99 468 l 99 738 l 422 738 z "},"<":{"ha":840,"x_min":110,"x_max":731,"o":"m 731 104 l 110 344 l 110 543 l 731 786 l 731 578 l 335 443 l 731 310 l 731 104 z "},"=":{"ha":925,"x_min":110,"x_max":815,"o":"m 110 681 l 815 681 l 815 506 l 110 506 l 110 681 m 110 386 l 815 386 l 815 211 l 110 211 l 110 386 z "},">":{"ha":840,"x_min":110,"x_max":731,"o":"m 110 104 l 110 310 l 506 443 l 110 578 l 110 786 l 731 543 l 731 344 l 110 104 z "},"?":{"ha":1119,"x_min":56,"x_max":1056,"o":"m 651 336 l 382 336 l 382 406 q 423 540 382 493 q 588 633 464 588 l 654 658 q 742 703 719 683 q 765 753 765 724 q 753 794 765 778 q 692 824 740 811 q 556 836 643 836 q 442 823 488 836 q 380 787 397 810 q 356 746 363 764 q 349 707 350 728 q 349 700 349 703 l 56 700 l 56 717 q 517 1046 56 1046 l 594 1046 q 817 1022 724 1046 q 961 957 911 999 q 1033 867 1011 915 q 1056 761 1056 819 l 1056 751 q 1001 592 1056 656 q 814 483 946 529 l 746 460 q 671 419 690 439 q 651 354 651 399 l 651 336 m 667 246 l 667 0 l 368 0 l 368 246 l 667 246 z "},"@":{"ha":1708,"x_min":82,"x_max":1626,"o":"m 868 -224 q 82 404 82 -224 l 82 421 q 105 611 82 524 q 183 778 128 699 q 324 912 239 857 q 542 999 410 967 q 846 1032 675 1032 l 861 1032 q 1133 1012 1013 1032 q 1333 960 1254 992 q 1469 881 1413 929 q 1556 788 1526 832 q 1603 684 1586 743 q 1623 585 1619 625 q 1626 493 1626 544 l 1626 478 q 1606 330 1626 400 q 1542 195 1586 260 q 1415 92 1499 131 q 1219 53 1332 53 l 1200 53 q 996 160 1038 53 q 740 53 906 53 l 722 53 q 575 85 638 53 q 480 169 513 117 q 434 282 447 221 q 428 408 421 343 l 435 478 q 522 674 447 594 q 738 753 596 753 l 756 753 q 1024 646 931 753 l 1033 736 l 1297 736 l 1243 242 q 1251 203 1240 218 q 1283 188 1261 188 q 1409 268 1360 188 q 1458 485 1458 349 l 1458 489 q 1456 569 1458 538 q 1442 647 1454 600 q 1407 725 1429 694 q 1340 790 1385 756 q 1234 845 1296 825 q 1077 879 1172 865 q 861 893 982 893 l 846 893 q 556 857 675 893 q 375 753 438 821 q 287 605 313 685 q 261 418 261 525 l 261 401 q 868 -85 261 -85 q 1447 28 1257 -85 l 1492 -112 q 1394 -158 1453 -136 q 1191 -201 1335 -179 q 868 -224 1047 -224 m 825 233 q 953 278 911 233 q 1000 394 994 322 l 1001 418 q 967 532 1006 490 q 851 574 929 574 q 692 435 704 574 l 689 404 q 715 283 683 333 q 825 233 747 233 z "},"A":{"ha":1351,"x_min":15,"x_max":1336,"o":"m 849 404 l 661 825 l 479 404 l 849 404 m 1029 0 l 944 192 l 386 192 l 303 0 l 15 0 l 474 1033 l 857 1033 l 1336 0 l 1029 0 z "},"B":{"ha":1375,"x_min":128,"x_max":1303,"o":"m 128 0 l 128 1033 l 882 1033 q 1063 1012 988 1033 q 1178 953 1139 990 q 1235 876 1218 917 q 1251 789 1251 836 l 1251 774 q 1192 632 1251 685 q 1061 569 1132 579 q 1233 491 1163 553 q 1303 314 1303 429 l 1303 299 q 1283 192 1303 242 q 1220 98 1264 143 q 1091 26 1176 53 q 886 0 1006 0 l 128 0 m 840 818 l 414 818 l 414 633 l 840 633 q 953 724 953 633 l 953 726 q 840 818 953 818 m 863 431 l 414 431 l 414 226 l 863 226 q 962 256 932 226 q 992 331 992 286 l 992 336 q 863 431 992 431 z "},"C":{"ha":1399,"x_min":82,"x_max":1321,"o":"m 743 -15 l 679 -15 q 436 18 543 -15 q 265 104 329 51 q 157 227 200 157 q 98 364 114 297 q 82 499 82 431 l 82 540 q 98 676 82 610 q 157 812 114 743 q 265 932 200 881 q 436 1016 329 983 q 679 1049 543 1049 l 743 1049 q 1015 1013 899 1049 q 1196 917 1132 978 q 1290 788 1260 857 q 1321 640 1321 718 l 1321 638 l 1026 638 q 1019 667 1025 651 q 992 711 1013 683 q 939 760 971 739 q 847 797 907 781 q 711 813 788 813 q 458 732 536 813 q 379 532 379 651 l 379 513 q 397 413 379 461 q 451 320 414 364 q 555 249 488 276 q 713 222 622 222 q 850 238 790 222 q 941 276 910 254 q 993 326 972 297 q 1019 372 1014 356 q 1026 404 1025 389 l 1321 404 l 1321 400 q 1291 254 1321 324 q 1198 122 1261 185 q 1017 22 1135 60 q 743 -15 900 -15 z "},"D":{"ha":1399,"x_min":128,"x_max":1319,"o":"m 128 0 l 128 1033 l 657 1033 q 893 1013 788 1033 q 1069 955 999 992 q 1190 872 1139 918 q 1268 770 1240 826 q 1308 661 1296 714 q 1319 553 1319 608 l 1319 511 q 1309 397 1319 451 q 1274 283 1299 343 q 1201 174 1250 222 q 1082 85 1151 125 q 903 22 1013 44 q 658 0 794 0 l 128 0 m 414 804 l 414 231 l 644 231 q 817 250 744 231 q 928 297 889 269 q 989 367 967 325 q 1017 442 1011 408 q 1022 517 1022 475 l 1022 525 q 1017 599 1022 567 q 988 673 1011 632 q 926 740 965 714 q 815 785 888 767 q 644 804 743 804 l 414 804 z "},"E":{"ha":1183,"x_min":128,"x_max":1082,"o":"m 128 1033 l 1074 1033 l 1074 808 l 410 808 l 410 640 l 1053 640 l 1053 407 l 410 407 l 410 228 l 1082 228 l 1082 0 l 128 0 l 128 1033 z "},"F":{"ha":1164,"x_min":128,"x_max":1069,"o":"m 128 1033 l 1069 1033 l 1069 804 l 413 804 l 413 619 l 1050 619 l 1050 383 l 413 383 l 413 0 l 128 0 l 128 1033 z "},"G":{"ha":1450,"x_min":82,"x_max":1339,"o":"m 703 -15 l 681 -15 q 397 32 518 -15 q 209 158 275 79 q 113 322 143 236 q 82 501 82 408 l 82 539 q 99 676 82 610 q 160 812 117 743 q 269 932 203 881 q 443 1015 336 983 q 686 1047 550 1047 l 733 1047 q 1015 1015 894 1047 q 1200 927 1135 982 q 1296 810 1265 872 q 1326 681 1326 749 l 1326 678 l 1031 678 q 711 814 974 814 q 458 733 536 814 q 379 532 379 651 l 379 514 q 463 307 379 396 q 721 218 546 218 q 869 238 806 218 q 964 288 933 258 q 1008 340 994 318 q 1024 379 1021 363 l 743 379 l 743 564 l 1339 564 l 1339 0 l 1111 0 q 1076 143 1101 89 q 1041 105 1063 125 q 974 54 1019 85 q 858 4 929 24 q 703 -15 788 -15 z "},"H":{"ha":1404,"x_min":128,"x_max":1276,"o":"m 128 0 l 128 1033 l 414 1033 l 414 650 l 990 650 l 990 1033 l 1276 1033 l 1276 0 l 990 0 l 990 415 l 414 415 l 414 0 l 128 0 z "},"I":{"ha":542,"x_min":128,"x_max":414,"o":"m 414 1033 l 414 0 l 128 0 l 128 1033 l 414 1033 z "},"J":{"ha":1206,"x_min":57,"x_max":1085,"o":"m 589 -17 l 543 -17 q 339 15 428 -17 q 198 93 250 46 q 113 203 146 140 q 68 322 79 267 q 57 435 57 378 l 57 443 l 353 443 q 363 378 354 410 q 392 310 372 347 q 456 250 413 272 q 563 228 500 228 l 568 228 q 799 481 799 228 l 799 1033 l 1085 1033 l 1085 481 q 1074 356 1085 417 q 1031 226 1064 296 q 947 104 999 156 q 802 18 894 53 q 589 -17 710 -17 z "},"K":{"ha":1282,"x_min":128,"x_max":1285,"o":"m 414 0 l 128 0 l 128 1033 l 414 1033 l 414 608 l 897 1033 l 1261 1033 l 717 560 l 1285 0 l 911 0 l 414 486 l 414 0 z "},"L":{"ha":1114,"x_min":128,"x_max":1046,"o":"m 128 1033 l 414 1033 l 414 243 l 1046 243 l 1046 0 l 128 0 l 128 1033 z "},"M":{"ha":1661,"x_min":128,"x_max":1533,"o":"m 128 0 l 128 1033 l 508 1033 l 838 333 l 1176 1033 l 1533 1033 l 1533 0 l 1254 0 l 1254 676 l 940 0 l 717 0 l 403 676 l 403 0 l 128 0 z "},"N":{"ha":1432,"x_min":128,"x_max":1304,"o":"m 1024 0 l 407 669 l 407 0 l 128 0 l 128 1033 l 422 1033 l 1026 368 l 1026 1033 l 1304 1033 l 1304 0 l 1024 0 z "},"O":{"ha":1467,"x_min":82,"x_max":1385,"o":"m 703 1050 l 764 1050 q 1013 1018 903 1050 q 1192 936 1124 986 q 1305 817 1260 886 q 1367 681 1350 749 q 1385 540 1385 613 l 1385 499 q 1367 360 1385 428 q 1305 222 1350 292 q 1192 100 1260 151 q 1013 16 1124 49 q 764 -17 903 -17 l 703 -17 q 453 16 564 -17 q 275 100 343 49 q 162 222 207 151 q 99 360 117 292 q 82 499 82 428 l 82 540 q 99 680 82 613 q 162 816 117 747 q 275 935 207 885 q 453 1018 343 986 q 703 1050 564 1050 m 1088 510 l 1088 529 q 1072 628 1088 582 q 1021 719 1057 675 q 911 788 985 763 q 733 814 838 814 q 557 788 631 814 q 447 719 483 763 q 394 628 410 675 q 379 529 379 582 l 379 510 q 395 411 379 458 q 449 319 411 364 q 559 247 486 274 q 733 221 632 221 q 910 247 836 221 q 1020 319 983 274 q 1072 410 1057 364 q 1088 510 1088 457 z "},"P":{"ha":1328,"x_min":128,"x_max":1256,"o":"m 828 331 l 414 331 l 414 0 l 128 0 l 128 1033 l 828 1033 q 1157 943 1058 1033 q 1256 690 1256 853 l 1256 675 q 828 331 1256 331 m 414 803 l 414 561 l 807 561 q 958 679 958 561 l 958 685 q 807 803 958 803 l 414 803 z "},"Q":{"ha":1469,"x_min":82,"x_max":1388,"o":"m 619 -215 l 619 -14 q 399 33 496 -4 q 244 123 303 71 q 149 242 186 175 q 97 372 111 310 q 82 499 82 435 l 82 540 q 98 676 82 611 q 157 812 114 742 q 267 933 200 882 q 447 1017 333 985 q 704 1050 560 1050 l 765 1050 q 1022 1017 910 1050 q 1202 932 1135 983 q 1313 811 1269 881 q 1372 676 1356 742 q 1388 540 1388 610 l 1388 499 q 1365 347 1388 421 q 1293 198 1343 272 q 1147 69 1243 124 q 917 -6 1050 14 l 1075 -215 l 619 -215 m 1090 510 l 1090 529 q 1082 606 1090 569 q 1050 681 1074 642 q 988 749 1026 721 q 885 796 950 778 q 735 814 819 814 q 556 788 631 814 q 446 719 482 763 q 394 629 410 675 q 379 529 379 583 l 379 510 q 395 412 379 458 q 447 320 411 365 q 558 248 483 275 q 735 221 632 221 q 884 239 819 221 q 987 286 949 257 q 1049 355 1025 315 q 1082 431 1074 394 q 1090 510 1090 468 z "},"R":{"ha":1363,"x_min":128,"x_max":1285,"o":"m 414 806 l 414 586 l 813 586 q 961 696 961 586 l 961 699 q 813 806 961 806 l 414 806 m 1043 497 q 1268 229 1268 446 l 1268 122 q 1285 7 1268 36 l 1285 0 l 989 0 q 979 72 979 17 l 979 157 q 935 306 979 260 q 786 351 892 351 l 414 351 l 414 0 l 128 0 l 128 1033 l 824 1033 q 1019 1015 936 1033 q 1148 969 1103 996 q 1220 902 1193 942 q 1254 830 1247 863 q 1261 757 1261 797 l 1261 743 q 1202 584 1261 649 q 1043 497 1143 519 z "},"S":{"ha":1285,"x_min":86,"x_max":1199,"o":"m 667 -18 l 626 -18 q 385 6 488 -18 q 226 66 282 31 q 138 151 171 101 q 95 241 104 201 q 86 325 86 281 l 86 340 l 397 340 q 640 192 411 192 l 650 192 q 778 202 726 192 q 853 232 829 213 q 885 270 876 251 q 893 315 893 289 q 848 391 893 365 q 682 422 803 417 l 544 426 q 202 517 307 435 q 97 728 97 599 l 97 740 q 118 857 97 807 q 192 952 139 907 q 351 1022 246 997 q 611 1046 457 1046 l 658 1046 q 888 1027 790 1046 q 1039 979 985 1008 q 1126 908 1093 950 q 1168 827 1158 865 q 1178 743 1178 789 l 1178 728 l 871 728 q 859 766 868 750 q 828 801 850 782 q 758 831 806 821 q 639 842 710 842 l 625 842 q 447 819 496 842 q 399 750 399 796 q 442 681 399 706 q 599 651 485 657 l 742 646 q 968 617 876 640 q 1109 551 1060 593 q 1178 460 1158 510 q 1199 343 1199 410 l 1199 326 q 1188 232 1199 275 q 1144 140 1178 189 q 1054 59 1110 92 q 899 4 999 26 q 667 -18 800 -18 z "},"T":{"ha":1213,"x_min":64,"x_max":1149,"o":"m 464 0 l 464 797 l 64 797 l 64 1033 l 1149 1033 l 1149 797 l 749 797 l 749 0 l 464 0 z "},"U":{"ha":1408,"x_min":121,"x_max":1288,"o":"m 726 -15 l 686 -15 q 433 21 540 -15 q 267 109 325 57 q 175 237 210 161 q 131 374 140 313 q 121 508 121 436 l 121 1033 l 407 1033 l 407 515 q 703 228 407 228 l 710 228 q 865 255 803 228 q 956 329 928 282 q 993 419 983 376 q 1003 515 1003 463 l 1003 1033 l 1288 1033 l 1288 508 q 1283 414 1288 460 q 1262 314 1278 368 q 1221 215 1246 260 q 1152 126 1196 169 q 1051 52 1108 82 q 911 3 994 22 q 726 -15 828 -15 z "},"V":{"ha":1354,"x_min":18,"x_max":1336,"o":"m 874 0 l 497 0 l 18 1033 l 351 1033 l 688 250 l 1025 1033 l 1336 1033 l 874 0 z "},"W":{"ha":1861,"x_min":25,"x_max":1836,"o":"m 713 0 l 381 0 l 25 1033 l 332 1033 l 560 290 l 776 1033 l 1110 1033 l 1328 288 l 1554 1033 l 1836 1033 l 1493 0 l 1151 0 l 932 724 l 713 0 z "},"X":{"ha":1306,"x_min":14,"x_max":1292,"o":"m 946 0 l 650 336 l 350 0 l 14 0 l 469 525 l 21 1033 l 383 1033 l 664 713 l 943 1033 l 1272 1033 l 838 528 l 1292 0 l 946 0 z "},"Y":{"ha":1288,"x_min":-3,"x_max":1290,"o":"m 510 0 l 510 378 l -3 1033 l 351 1033 l 661 624 l 971 1033 l 1290 1033 l 796 376 l 796 0 l 510 0 z "},"Z":{"ha":1261,"x_min":103,"x_max":1160,"o":"m 1160 0 l 103 0 l 103 199 l 736 800 l 107 800 l 107 1033 l 1154 1033 l 1154 835 l 494 236 l 1160 236 l 1160 0 z "},"[":{"ha":557,"x_min":114,"x_max":497,"o":"m 114 -182 l 114 1122 l 497 1122 l 497 974 l 328 974 l 328 -33 l 497 -33 l 497 -182 l 114 -182 z "},"\\":{"ha":654,"x_min":17,"x_max":675,"o":"m 675 -182 l 465 -182 l 17 1122 l 228 1122 l 675 -182 z "},"]":{"ha":557,"x_min":60,"x_max":443,"o":"m 60 -182 l 60 -33 l 231 -33 l 231 974 l 60 974 l 60 1122 l 443 1122 l 443 -182 l 60 -182 z "},"^":{"ha":904,"x_min":25,"x_max":879,"o":"m 635 539 l 453 842 l 271 539 l 25 539 l 321 1033 l 582 1033 l 879 539 l 635 539 z "},"_":{"ha":1011,"x_min":54,"x_max":957,"o":"m 54 -233 l 54 -40 l 957 -40 l 957 -233 l 54 -233 z "},"`":{"ha":972,"x_min":272,"x_max":697,"o":"m 575 1064 l 697 857 l 426 857 l 272 1064 l 575 1064 z "},"a":{"ha":1088,"x_min":74,"x_max":1046,"o":"m 476 154 q 636 206 583 154 q 689 313 689 257 l 689 372 q 519 336 654 358 q 383 301 419 319 q 347 242 347 282 l 347 239 q 476 154 347 154 m 697 107 q 400 -15 596 -15 l 378 -15 q 150 55 226 -15 q 74 229 74 125 l 74 235 q 152 397 74 339 q 419 472 231 456 l 631 490 q 676 505 663 493 q 689 540 689 517 q 681 576 689 563 q 635 603 674 590 q 528 615 597 615 q 372 531 372 615 l 94 531 l 94 533 q 100 590 94 563 q 130 656 106 617 q 195 722 154 694 q 316 769 236 749 q 504 789 396 789 l 547 789 q 736 771 657 789 q 856 728 815 753 q 919 664 896 703 q 948 597 943 625 q 953 529 953 568 l 953 275 q 965 222 953 236 q 1017 207 978 207 l 1046 207 l 1046 0 l 826 0 q 739 31 771 0 q 697 107 707 63 z "},"b":{"ha":1176,"x_min":115,"x_max":1100,"o":"m 707 -15 l 688 -15 q 371 103 489 -15 q 349 0 356 58 l 115 0 l 115 1051 l 386 1051 l 386 675 q 692 786 497 786 l 710 786 q 894 753 815 786 q 1016 663 972 719 q 1080 540 1060 606 q 1100 401 1100 475 l 1100 378 q 1079 244 1100 310 q 1015 118 1058 178 q 892 22 971 58 q 707 -15 813 -15 m 819 385 l 819 389 q 810 455 819 424 q 780 517 801 486 q 715 567 758 549 q 611 585 671 585 l 597 585 q 435 526 486 585 q 383 389 383 468 l 383 385 q 435 249 383 308 q 597 189 486 189 l 611 189 q 715 208 671 189 q 780 258 758 226 q 810 320 801 289 q 819 385 819 351 z "},"c":{"ha":1113,"x_min":75,"x_max":1040,"o":"m 757 303 l 1040 303 q 1031 224 1040 263 q 992 139 1021 185 q 916 59 963 93 q 788 2 869 25 q 600 -21 706 -21 l 532 -21 q 338 7 422 -21 q 204 76 253 35 q 125 173 156 117 q 85 277 94 229 q 75 375 75 325 l 75 394 q 85 492 75 444 q 124 597 94 540 q 202 694 154 653 q 335 764 250 736 q 531 792 419 792 l 594 792 q 783 769 701 792 q 913 714 865 747 q 990 636 960 681 q 1030 553 1019 592 q 1040 478 1040 515 l 1040 476 l 757 476 q 747 505 754 490 q 722 542 740 519 q 663 580 703 565 q 567 594 622 594 l 553 594 q 400 535 444 594 q 356 392 356 476 l 356 390 q 403 242 356 304 q 558 181 451 181 l 572 181 q 653 192 618 181 q 708 218 689 203 q 738 252 726 233 q 753 283 750 271 q 757 303 757 296 z "},"d":{"ha":1176,"x_min":78,"x_max":1061,"o":"m 581 585 l 565 585 q 462 567 506 585 q 397 517 418 549 q 366 455 375 486 q 357 389 357 424 l 357 385 q 366 320 357 351 q 397 258 375 289 q 462 208 418 226 q 565 189 506 189 l 581 189 q 742 249 690 189 q 793 385 793 308 l 793 389 q 742 526 793 468 q 581 585 690 585 m 790 1051 l 1061 1051 l 1061 0 l 792 0 l 792 100 q 496 -15 692 -15 l 478 -15 q 179 99 281 -15 q 78 375 78 213 l 78 399 q 101 541 78 474 q 169 665 124 608 q 294 753 215 721 q 475 786 372 786 l 492 786 q 790 689 685 786 l 790 1051 z "},"e":{"ha":1126,"x_min":75,"x_max":1053,"o":"m 561 611 q 354 474 378 611 l 763 474 q 561 611 763 611 m 768 240 l 1050 240 q 1042 188 1050 215 q 1006 122 1035 161 q 932 54 978 83 q 800 3 886 25 q 601 -18 714 -18 l 550 -18 q 355 6 440 -18 q 218 67 269 29 q 133 157 167 104 q 88 263 100 210 q 75 375 75 315 l 75 394 q 95 531 75 467 q 163 655 115 594 q 303 751 210 715 q 526 788 396 788 l 588 788 q 787 763 701 788 q 922 697 872 738 q 1002 598 972 657 q 1042 481 1032 539 q 1053 353 1053 424 l 1053 328 l 351 328 q 585 167 372 167 q 628 169 607 167 q 664 174 649 171 q 692 181 679 176 q 715 189 706 185 q 733 199 724 193 q 746 209 742 206 q 755 219 750 213 q 761 228 760 225 q 765 236 763 231 l 768 240 z "},"f":{"ha":722,"x_min":53,"x_max":668,"o":"m 668 1051 l 668 883 l 554 883 q 508 869 522 883 q 493 819 493 854 l 493 771 l 668 771 l 668 576 l 493 576 l 493 0 l 224 0 l 224 576 l 53 576 l 53 771 l 224 771 l 224 833 q 276 997 224 942 q 464 1051 328 1051 l 668 1051 z "},"g":{"ha":1175,"x_min":78,"x_max":1060,"o":"m 582 586 l 567 586 q 404 534 451 586 q 357 410 357 482 l 357 406 q 406 283 357 336 q 567 229 456 229 l 583 229 q 743 282 693 229 q 793 404 793 335 l 793 410 q 741 533 793 481 q 582 586 689 586 m 610 -286 l 563 -286 q 364 -268 449 -286 q 234 -224 279 -250 q 162 -160 189 -197 q 128 -94 135 -124 q 121 -33 121 -65 l 121 -28 l 408 -28 q 426 -54 417 -44 q 474 -76 435 -64 q 578 -87 513 -87 l 593 -87 q 792 75 792 -87 l 792 132 q 496 26 686 26 l 476 26 q 287 60 368 26 q 162 151 206 94 q 98 269 118 207 q 78 397 78 331 l 78 421 q 99 551 78 489 q 165 668 121 614 q 289 754 210 722 q 472 786 368 786 l 488 786 q 790 692 682 786 l 790 771 l 1060 771 l 1060 86 q 955 -185 1060 -83 q 610 -286 850 -286 z "},"h":{"ha":1150,"x_min":115,"x_max":1038,"o":"m 115 0 l 115 1051 l 386 1051 l 386 650 q 442 706 410 679 q 546 760 475 732 q 696 789 617 789 l 710 789 q 953 702 868 789 q 1038 500 1038 615 l 1038 0 l 767 0 l 767 401 q 721 526 767 475 q 582 576 675 576 q 438 522 490 576 q 386 392 386 468 l 386 0 l 115 0 z "},"i":{"ha":501,"x_min":113,"x_max":389,"o":"m 389 1051 l 389 857 l 113 857 l 113 1051 l 389 1051 m 386 771 l 386 0 l 115 0 l 115 771 l 386 771 z "},"j":{"ha":501,"x_min":-22,"x_max":389,"o":"m 389 1051 l 389 857 l 113 857 l 113 1051 l 389 1051 m -22 -64 l 61 -64 q 103 -50 92 -64 q 115 -3 115 -36 l 115 771 l 386 771 l 386 -68 q 225 -265 386 -265 l -22 -265 l -22 -64 z "},"k":{"ha":1008,"x_min":115,"x_max":1008,"o":"m 386 0 l 115 0 l 115 1051 l 386 1051 l 386 463 l 661 771 l 974 771 l 651 425 l 1008 0 l 686 0 l 386 357 l 386 0 z "},"l":{"ha":501,"x_min":115,"x_max":386,"o":"m 386 1051 l 386 0 l 115 0 l 115 1051 l 386 1051 z "},"m":{"ha":1732,"x_min":115,"x_max":1619,"o":"m 386 0 l 115 0 l 115 771 l 383 771 l 383 646 q 492 743 418 697 q 676 789 565 789 l 688 789 q 964 635 886 789 q 1286 789 1078 789 l 1299 789 q 1450 761 1385 789 q 1551 685 1515 733 q 1603 583 1586 638 q 1619 469 1619 529 l 1619 0 l 1349 0 l 1349 401 q 1307 526 1349 475 q 1179 576 1265 576 q 1049 522 1094 576 q 1003 392 1003 468 l 1003 0 l 733 0 l 733 401 q 692 526 733 475 q 564 576 650 576 q 432 522 478 576 q 386 392 386 468 l 386 0 z "},"n":{"ha":1150,"x_min":115,"x_max":1038,"o":"m 115 0 l 115 771 l 383 771 l 383 649 q 441 705 408 678 q 544 760 474 732 q 696 789 615 789 l 710 789 q 953 702 868 789 q 1038 500 1038 615 l 1038 0 l 767 0 l 767 401 q 721 526 767 475 q 582 576 675 576 q 438 522 490 576 q 386 392 386 468 l 386 0 l 115 0 z "},"o":{"ha":1149,"x_min":74,"x_max":1075,"o":"m 596 -21 l 553 -21 q 344 7 435 -21 q 204 76 254 35 q 123 174 154 118 q 83 277 92 231 q 74 372 74 324 l 74 392 q 83 488 74 440 q 123 592 92 535 q 204 691 154 649 q 344 763 254 733 q 551 792 433 792 l 597 792 q 810 763 719 792 q 951 692 901 733 q 1029 592 1000 650 q 1067 488 1058 533 q 1075 393 1075 442 l 1075 371 q 1067 276 1075 321 q 1029 174 1058 231 q 951 76 1000 117 q 810 8 901 36 q 596 -21 718 -21 m 567 182 l 582 182 q 687 202 643 182 q 753 255 731 222 q 786 321 776 288 q 796 389 796 354 q 786 458 796 425 q 753 524 776 492 q 687 574 731 556 q 582 593 643 593 l 567 593 q 458 574 503 593 q 392 523 414 556 q 362 458 371 490 q 353 389 353 426 q 362 320 353 353 q 392 254 371 288 q 459 201 414 221 q 567 182 504 182 z "},"p":{"ha":1178,"x_min":115,"x_max":1101,"o":"m 821 385 l 821 389 q 812 455 821 424 q 781 517 803 486 q 716 567 760 549 q 613 585 672 585 l 599 585 q 436 526 488 585 q 385 389 385 468 l 385 385 q 436 249 385 308 q 599 189 488 189 l 613 189 q 716 208 672 189 q 781 258 760 226 q 812 320 803 289 q 821 385 821 351 m 115 -265 l 115 771 l 383 771 l 383 672 q 499 749 421 713 q 693 786 578 786 l 711 786 q 895 753 817 786 q 1017 662 974 719 q 1081 540 1061 604 q 1101 401 1101 475 l 1101 378 q 1089 272 1101 325 q 1047 167 1076 219 q 974 74 1018 114 q 863 10 931 35 q 710 -15 794 -15 l 690 -15 q 386 99 500 -15 l 386 -265 l 115 -265 z "},"q":{"ha":1176,"x_min":78,"x_max":1061,"o":"m 469 786 l 486 786 q 803 672 689 786 q 824 771 819 721 l 1061 771 l 1061 -265 l 792 -265 l 792 99 q 744 55 772 76 q 645 9 715 33 q 493 -15 575 -15 l 475 -15 q 293 19 372 -15 q 169 110 214 53 q 101 236 124 168 q 78 378 78 304 l 78 401 q 100 540 78 474 q 167 663 122 606 q 290 753 213 719 q 469 786 368 786 m 581 585 l 565 585 q 462 567 506 585 q 397 517 418 549 q 366 455 375 486 q 357 389 357 424 l 357 385 q 366 320 357 351 q 397 258 375 289 q 462 208 418 226 q 565 189 506 189 l 581 189 q 742 249 690 189 q 793 385 793 308 l 793 389 q 742 526 793 468 q 581 585 690 585 z "},"r":{"ha":968,"x_min":115,"x_max":906,"o":"m 386 0 l 115 0 l 115 771 l 383 771 l 383 644 q 409 683 392 663 q 456 729 426 704 q 532 771 485 754 q 635 788 579 788 l 643 788 q 840 708 775 788 q 906 489 906 629 q 904 401 906 435 l 625 401 l 625 413 q 601 536 625 496 q 515 576 576 576 q 419 531 453 576 q 386 410 386 486 l 386 0 z "},"s":{"ha":1024,"x_min":74,"x_max":949,"o":"m 522 -18 l 486 -18 q 299 2 379 -18 q 176 49 218 22 q 110 114 135 76 q 79 177 85 151 q 74 228 74 203 l 74 235 l 364 235 q 518 153 376 153 l 521 153 q 669 226 669 153 q 640 278 669 260 q 522 300 611 296 l 417 308 q 78 539 78 329 l 78 547 q 95 642 78 601 q 154 717 113 682 q 277 770 196 751 q 476 789 358 789 l 514 789 q 700 774 621 789 q 823 735 779 758 q 892 678 867 713 q 925 616 918 644 q 932 553 932 588 l 932 549 l 649 549 q 635 582 642 569 q 594 609 628 594 q 501 624 560 624 l 497 624 q 382 608 414 624 q 350 560 350 592 q 380 508 350 525 q 489 488 410 490 l 594 483 q 870 417 792 475 q 949 256 949 360 l 949 246 q 933 149 949 190 q 876 67 918 107 q 744 4 833 26 q 522 -18 656 -18 z "},"t":{"ha":742,"x_min":53,"x_max":667,"o":"m 667 207 l 667 0 l 421 0 q 273 53 325 0 q 221 208 221 106 l 221 576 l 53 576 l 53 771 l 221 771 l 221 1006 l 490 1006 l 490 771 l 667 771 l 667 576 l 490 576 l 490 293 q 507 226 490 246 q 571 207 524 207 l 667 207 z "},"u":{"ha":1142,"x_min":113,"x_max":1026,"o":"m 1026 771 l 1026 0 l 758 0 l 758 122 q 643 28 724 75 q 449 -18 563 -18 l 436 -18 q 197 69 281 -18 q 113 271 113 156 l 113 771 l 383 771 l 383 369 q 427 245 383 294 q 564 196 471 196 q 705 249 654 196 q 756 379 756 303 l 756 771 l 1026 771 z "},"v":{"ha":1060,"x_min":25,"x_max":1035,"o":"m 367 0 l 25 771 l 325 771 l 542 214 l 760 771 l 1035 771 l 711 0 l 367 0 z "},"w":{"ha":1600,"x_min":31,"x_max":1568,"o":"m 647 0 l 332 0 l 31 771 l 318 771 l 503 236 l 663 771 l 968 771 l 1140 236 l 1311 771 l 1568 771 l 1296 0 l 978 0 l 808 500 l 647 0 z "},"x":{"ha":1044,"x_min":3,"x_max":1042,"o":"m 729 0 l 522 221 l 321 0 l 14 0 l 360 386 l 3 771 l 335 771 l 532 556 l 722 771 l 1021 771 l 689 392 l 1042 0 l 729 0 z "},"y":{"ha":1046,"x_min":25,"x_max":1021,"o":"m 171 -265 l 171 -72 l 340 -72 q 381 -40 381 -72 l 381 -39 q 356 36 381 -15 l 25 771 l 322 771 l 536 218 l 749 771 l 1021 771 l 668 -78 q 569 -221 626 -176 q 419 -265 513 -265 l 171 -265 z "},"z":{"ha":1025,"x_min":82,"x_max":944,"o":"m 944 0 l 82 0 l 82 186 l 560 568 l 85 568 l 85 771 l 926 771 l 926 589 l 435 211 l 944 211 l 944 0 z "},"{":{"ha":544,"x_min":57,"x_max":485,"o":"m 485 -182 l 313 -182 q 155 -144 207 -182 q 103 -24 103 -106 q 154 173 103 39 q 206 339 206 307 q 193 383 206 369 q 151 396 181 396 l 57 396 l 57 551 l 151 551 q 206 597 206 551 q 154 763 206 632 q 103 954 103 894 q 153 1081 103 1039 q 313 1122 203 1122 l 485 1122 l 485 974 l 368 974 q 314 919 314 974 q 353 775 314 889 q 392 618 392 661 q 364 522 392 556 q 271 475 336 489 q 364 433 336 463 q 392 350 392 404 q 353 183 392 303 q 314 33 314 63 q 376 -33 314 -33 l 485 -33 l 485 -182 z "},"|":{"ha":521,"x_min":163,"x_max":358,"o":"m 358 1122 l 358 -182 l 163 -182 l 163 1122 l 358 1122 z "},"}":{"ha":544,"x_min":60,"x_max":488,"o":"m 232 -182 l 60 -182 l 60 -33 l 168 -33 q 231 33 231 -33 q 192 183 231 63 q 153 350 153 303 q 181 433 153 404 q 274 475 208 463 q 181 522 208 489 q 153 618 153 556 q 192 775 153 661 q 231 919 231 889 q 176 974 231 974 l 60 974 l 60 1122 l 232 1122 q 392 1081 342 1122 q 442 954 442 1039 q 390 763 442 894 q 339 597 339 632 q 393 551 339 551 l 488 551 l 488 396 l 393 396 q 351 383 364 396 q 339 339 339 369 q 390 173 339 307 q 442 -24 442 39 q 390 -144 442 -106 q 232 -182 338 -182 z "},"~":{"ha":963,"x_min":100,"x_max":863,"o":"m 689 311 q 578 336 628 311 q 449 422 529 361 q 377 476 397 464 q 339 489 357 489 q 310 443 310 489 l 310 276 l 100 276 l 100 535 q 142 670 100 615 q 276 725 183 725 q 388 700 340 725 q 513 617 436 675 q 624 546 603 546 q 653 590 653 546 l 653 768 l 863 768 l 863 501 q 818 369 863 426 q 689 311 774 311 z "},"¡":{"ha":525,"x_min":107,"x_max":418,"o":"m 418 -262 l 107 -262 l 196 435 l 328 435 l 418 -262 m 113 525 l 113 771 l 411 771 l 411 525 l 113 525 z "},"¢":{"ha":1142,"x_min":75,"x_max":1069,"o":"m 353 392 l 353 390 q 389 253 353 315 q 514 176 425 192 l 514 599 q 353 392 353 572 m 644 -133 l 514 -133 l 514 -21 q 324 13 406 -17 q 196 84 242 43 q 122 180 150 125 q 84 281 93 235 q 75 375 75 326 l 75 394 q 84 488 75 442 q 122 590 93 535 q 197 686 151 644 q 325 758 243 728 q 514 792 407 788 l 514 904 l 644 904 l 644 792 q 826 765 747 789 q 949 708 904 740 q 1023 632 994 675 q 1060 553 1051 589 q 1069 481 1069 517 l 1069 479 l 790 479 q 778 515 786 497 q 734 561 769 533 q 644 597 699 589 l 644 175 q 790 304 767 197 l 1069 304 q 1062 232 1069 268 q 1026 150 1054 196 q 955 69 999 104 q 831 8 911 33 q 644 -21 750 -18 l 644 -133 z "},"£":{"ha":1215,"x_min":75,"x_max":1128,"o":"m 1128 374 l 1128 0 l 75 0 l 75 213 l 161 213 q 264 322 264 213 l 264 325 q 244 446 264 365 l 75 446 l 75 586 l 210 586 q 194 708 194 654 l 194 719 q 214 833 194 779 q 278 936 233 886 q 409 1016 322 986 q 617 1046 496 1046 l 667 1046 q 872 1019 785 1046 q 1003 955 958 992 q 1073 863 1047 918 q 1105 768 1099 808 q 1111 679 1111 728 l 1111 676 l 817 676 q 783 781 810 750 q 643 835 740 835 q 501 790 538 835 q 464 671 464 744 q 469 586 464 629 l 883 586 l 883 446 l 485 446 q 488 383 488 401 q 419 213 488 257 l 844 213 l 844 374 l 1128 374 z "},"¥":{"ha":1174,"x_min":0,"x_max":1174,"o":"m 453 0 l 453 203 l 135 203 l 135 326 l 453 326 l 453 413 l 135 413 l 135 536 l 383 536 l 0 1033 l 339 1033 l 600 661 l 867 1033 l 1174 1033 l 804 536 l 1051 536 l 1051 413 l 733 413 l 733 326 l 1051 326 l 1051 203 l 733 203 l 733 0 l 453 0 z "},"¦":{"ha":521,"x_min":163,"x_max":358,"o":"m 358 1122 l 358 581 l 163 581 l 163 1122 l 358 1122 m 358 413 l 358 -182 l 163 -182 l 163 413 l 358 413 z "},"§":{"ha":1199,"x_min":81,"x_max":1118,"o":"m 807 257 q 851 349 851 288 q 736 456 851 435 q 392 525 438 507 q 349 435 349 497 q 467 326 349 349 q 807 257 774 268 m 632 -290 l 581 -290 q 119 24 119 -290 l 119 28 l 389 28 q 604 -107 389 -107 l 614 -107 q 779 -26 779 -107 l 779 -24 q 754 33 779 11 q 642 71 729 56 l 408 113 q 153 214 225 146 q 81 385 81 282 l 81 397 q 128 519 81 472 q 254 586 176 565 q 150 783 150 650 l 150 797 q 187 931 150 878 q 322 1017 224 985 q 583 1050 421 1050 l 633 1050 q 826 1032 744 1050 q 951 987 907 1014 q 1022 919 996 960 q 1054 843 1047 878 q 1061 764 1061 808 l 1061 760 l 794 760 q 787 792 792 779 q 765 827 782 806 q 708 860 749 849 q 606 872 667 872 l 596 872 q 451 854 486 872 q 415 801 415 836 l 415 799 q 442 745 415 765 q 557 710 469 725 l 794 668 q 1049 575 979 636 q 1118 407 1118 514 l 1118 393 q 1069 265 1118 313 q 949 197 1019 218 q 1049 3 1049 132 l 1049 -11 q 1029 -115 1049 -68 q 965 -203 1010 -162 q 835 -267 919 -244 q 632 -290 750 -290 z "},"¨":{"ha":972,"x_min":179,"x_max":793,"o":"m 444 1051 l 444 857 l 179 857 l 179 1051 l 444 1051 m 793 1051 l 793 857 l 528 857 l 528 1051 l 793 1051 z "},"©":{"ha":1499,"x_min":82,"x_max":1417,"o":"m 1417 538 l 1417 499 q 1384 305 1417 393 q 1279 142 1351 217 q 1077 26 1207 68 q 768 -15 947 -15 l 731 -15 q 422 26 551 -15 q 219 142 292 68 q 115 305 147 217 q 82 499 82 393 l 82 538 q 101 691 82 619 q 168 830 121 763 q 288 944 215 897 q 474 1020 361 992 q 732 1049 588 1049 l 767 1049 q 1024 1020 911 1049 q 1210 944 1138 992 q 1331 830 1283 897 q 1397 691 1378 763 q 1417 538 1417 619 m 735 104 l 764 104 q 1006 138 904 104 q 1163 231 1107 171 q 1243 358 1218 290 q 1268 508 1268 426 l 1268 525 q 1244 685 1268 615 q 1164 811 1219 754 q 1008 899 1108 868 q 764 929 907 929 l 735 929 q 491 899 592 929 q 335 811 390 868 q 255 685 279 754 q 231 525 231 615 l 231 508 q 256 358 231 426 q 335 231 281 290 q 492 138 390 171 q 735 104 594 104 m 769 204 l 738 204 q 574 226 644 204 q 463 278 503 247 q 397 353 422 310 q 365 434 372 397 q 357 510 357 471 l 357 533 q 364 610 357 574 q 395 688 371 646 q 459 761 419 731 q 570 813 499 792 q 738 833 642 833 l 769 833 q 941 815 868 833 q 1052 769 1014 796 q 1114 706 1090 743 q 1143 643 1138 669 q 1149 588 1149 617 l 1149 583 l 933 583 q 924 606 931 594 q 899 636 917 618 q 842 665 881 654 q 753 676 804 676 q 565 529 565 676 l 565 518 q 608 407 565 453 q 754 361 651 361 q 844 373 807 361 q 899 404 882 385 q 924 437 917 424 q 933 463 931 450 l 1150 463 l 1150 457 q 1144 399 1150 428 q 1113 334 1138 371 q 1050 269 1089 297 q 938 223 1011 242 q 769 204 865 204 z "},"ª":{"ha":899,"x_min":85,"x_max":842,"o":"m 392 558 q 513 598 468 558 q 557 697 557 638 l 557 718 l 375 688 q 297 621 297 675 q 321 576 297 593 q 392 558 344 558 m 565 524 q 485 458 543 489 q 335 428 428 428 l 324 428 q 144 483 203 428 q 85 621 85 538 l 85 628 q 142 749 85 708 q 317 803 200 790 l 521 821 q 549 831 542 824 q 557 854 557 839 q 435 907 557 907 l 425 907 q 306 851 306 907 l 97 851 l 97 853 q 102 897 97 875 q 126 947 107 918 q 176 995 144 975 q 265 1029 207 1015 q 401 1043 324 1043 l 456 1043 q 624 1026 557 1043 q 720 980 690 1010 q 760 922 750 950 q 769 856 769 893 l 769 658 q 778 617 769 628 q 818 606 788 606 l 842 606 l 842 438 l 668 438 q 565 524 588 438 z "},"«":{"ha":890,"x_min":54,"x_max":838,"o":"m 831 146 l 607 146 l 432 400 l 610 650 l 838 650 l 657 400 l 831 146 m 458 146 l 233 146 l 54 400 l 231 650 l 460 650 l 282 400 l 458 146 z "},"®":{"ha":1089,"x_min":81,"x_max":1008,"o":"m 571 319 l 521 319 q 340 341 419 319 q 213 397 261 363 q 135 479 165 432 q 92 574 104 526 q 81 674 81 621 l 81 700 q 100 820 81 764 q 165 931 119 876 q 301 1017 210 985 q 521 1050 393 1050 l 574 1050 q 757 1028 678 1050 q 883 971 836 1006 q 958 888 929 936 q 998 794 988 839 q 1008 697 1008 749 l 1008 674 q 985 549 1008 608 q 914 436 963 489 q 776 351 865 383 q 571 319 688 319 m 547 414 l 550 414 q 704 432 639 414 q 806 477 769 450 q 864 544 842 504 q 892 618 886 583 q 899 694 899 653 q 892 767 899 735 q 865 836 886 799 q 807 898 843 874 q 705 939 771 922 q 550 956 639 956 l 547 956 q 389 940 456 956 q 285 899 322 924 q 227 836 249 874 q 200 765 206 799 q 194 686 194 731 q 200 610 194 643 q 227 538 206 576 q 285 474 249 499 q 389 431 322 449 q 547 414 456 414 m 467 717 l 600 717 q 639 751 639 717 q 600 788 639 788 l 467 788 l 467 717 m 467 622 l 467 499 l 324 499 l 324 874 l 635 874 q 779 783 779 874 l 779 778 q 757 722 779 743 q 706 696 735 700 q 785 611 785 679 l 785 543 q 793 506 785 517 l 793 499 l 651 499 q 639 531 639 511 l 639 569 q 629 610 639 599 q 592 622 619 622 l 467 622 z "},"¯":{"ha":972,"x_min":232,"x_max":740,"o":"m 232 875 l 232 1039 l 740 1039 l 740 875 l 232 875 z "},"°":{"ha":731,"x_min":69,"x_max":661,"o":"m 369 486 q 153 569 238 486 q 69 771 69 651 q 153 969 69 889 q 369 1050 238 1050 q 578 969 496 1050 q 661 771 661 889 q 578 569 661 651 q 369 486 496 486 m 367 642 q 459 677 424 642 q 494 769 494 713 q 459 859 494 824 q 367 894 424 894 q 273 859 308 894 q 238 769 238 824 q 273 676 238 711 q 367 642 308 642 z "},"²":{"ha":918,"x_min":83,"x_max":831,"o":"m 831 397 l 83 397 l 83 474 q 90 547 83 515 q 118 617 96 578 q 178 685 140 656 q 286 742 217 714 q 451 790 356 771 q 567 823 540 811 q 593 857 593 835 q 467 908 593 908 q 374 894 408 908 q 331 865 339 879 q 322 836 322 850 l 92 836 l 92 840 q 97 882 92 861 q 113 930 101 903 q 151 979 125 957 q 213 1022 176 1001 q 310 1053 250 1042 q 446 1064 371 1064 l 475 1064 q 658 1047 585 1064 q 768 999 732 1031 q 817 935 804 968 q 831 857 831 901 l 831 849 q 759 715 831 760 q 499 643 688 671 q 331 609 376 624 q 286 578 286 594 l 286 576 l 831 576 l 831 397 z "},"³":{"ha":944,"x_min":74,"x_max":860,"o":"m 485 388 l 432 388 q 271 406 340 388 q 165 449 201 424 q 107 509 129 475 q 79 568 85 543 q 74 618 74 593 l 74 625 l 311 625 q 313 613 311 619 q 324 594 315 606 q 349 575 333 583 q 394 560 364 567 q 463 554 424 554 q 564 565 528 554 q 608 588 600 575 q 617 617 617 600 l 617 619 q 547 664 617 664 l 354 664 l 354 815 l 540 815 q 608 854 608 815 l 608 857 q 599 881 608 872 q 555 898 590 890 q 456 906 519 906 q 358 894 393 906 q 317 874 322 882 q 308 851 313 865 l 81 851 l 81 863 q 85 906 81 885 q 111 958 90 928 q 167 1009 132 988 q 269 1046 201 1031 q 426 1061 336 1061 l 474 1061 q 638 1050 568 1061 q 744 1022 707 1039 q 804 981 782 1006 q 832 936 826 957 q 838 890 838 915 l 838 885 q 809 813 838 843 q 732 775 781 783 q 824 722 789 761 q 860 619 860 683 l 860 614 q 485 388 860 388 z "},"´":{"ha":972,"x_min":275,"x_max":700,"o":"m 275 857 l 397 1064 l 700 1064 l 546 857 l 275 857 z "},"¶":{"ha":1122,"x_min":72,"x_max":1071,"o":"m 468 0 l 468 456 l 411 456 q 158 531 244 456 q 72 732 72 607 l 72 758 q 414 1033 72 1033 l 1071 1033 l 1071 869 l 968 869 l 968 0 l 779 0 l 779 869 l 656 869 l 656 0 l 468 0 z "},"·":{"ha":507,"x_min":92,"x_max":415,"o":"m 415 563 l 415 293 l 92 293 l 92 563 l 415 563 z "},"¸":{"ha":974,"x_min":275,"x_max":694,"o":"m 476 -358 l 275 -358 l 275 -233 l 426 -233 q 475 -203 475 -233 q 426 -171 475 -171 l 315 -171 l 315 0 l 469 0 l 469 -69 l 476 -69 q 649 -104 603 -69 q 694 -210 694 -139 l 694 -214 q 647 -319 694 -281 q 476 -358 600 -358 z "},"¹":{"ha":603,"x_min":74,"x_max":479,"o":"m 301 1051 l 479 1051 l 479 397 l 256 397 l 256 768 l 74 768 l 74 931 q 203 946 157 931 q 267 983 250 961 q 301 1051 283 1006 z "},"º":{"ha":932,"x_min":83,"x_max":849,"o":"m 440 1043 l 496 1043 q 667 1017 596 1043 q 776 944 739 990 q 831 851 814 899 q 849 747 847 803 l 849 728 q 839 644 849 685 q 804 564 829 604 q 740 494 779 524 q 639 447 701 465 q 496 428 576 428 l 440 428 q 270 455 343 428 q 158 528 197 482 q 101 624 119 574 q 83 728 83 674 l 83 747 q 101 851 83 801 q 158 946 119 901 q 270 1017 197 990 q 440 1043 343 1043 m 468 592 q 583 634 547 592 q 619 739 619 676 q 583 842 619 801 q 468 882 546 882 q 315 739 315 882 q 351 634 315 676 q 468 592 388 592 z "},"»":{"ha":889,"x_min":53,"x_max":835,"o":"m 283 146 l 60 146 l 232 400 l 53 650 l 281 650 l 458 400 l 283 146 m 657 146 l 432 146 l 607 400 l 431 650 l 660 650 l 835 400 l 657 146 z "},"¼":{"ha":1610,"x_min":67,"x_max":1546,"o":"m 229 776 l 67 776 l 67 924 q 212 948 174 924 q 271 1033 250 972 l 433 1033 l 433 440 l 229 440 l 229 776 m 1092 1033 l 1308 1033 l 365 0 l 140 0 l 1092 1033 m 849 119 l 849 239 l 1024 417 l 1199 594 l 1428 594 l 1428 263 l 1546 263 l 1546 119 l 1428 119 l 1428 0 l 1226 0 l 1226 119 l 849 119 m 1226 453 l 1043 263 l 1226 263 l 1226 453 z "},"½":{"ha":1706,"x_min":67,"x_max":1625,"o":"m 1092 1033 l 1308 1033 l 365 0 l 140 0 l 1092 1033 m 229 776 l 67 776 l 67 924 q 212 948 174 924 q 271 1033 250 972 l 433 1033 l 433 440 l 229 440 l 229 776 m 1625 0 l 946 0 l 946 69 q 956 151 946 117 q 999 226 967 186 q 1101 299 1031 267 q 1281 353 1172 331 q 1382 381 1358 369 q 1406 413 1406 392 q 1383 447 1406 436 q 1293 458 1360 458 q 1215 445 1244 458 q 1177 419 1185 432 q 1169 393 1169 406 l 954 393 l 954 399 q 965 460 954 431 q 1007 525 976 490 q 1106 581 1038 560 q 1275 603 1175 603 l 1303 603 q 1468 588 1401 603 q 1567 546 1535 574 q 1613 488 1600 518 q 1625 415 1625 457 l 1625 408 q 1557 285 1625 324 q 1324 219 1489 246 q 1135 161 1135 192 l 1135 160 l 1625 160 l 1625 0 z "},"¾":{"ha":1882,"x_min":67,"x_max":1818,"o":"m 1364 1033 l 1581 1033 l 638 0 l 413 0 l 1364 1033 m 440 432 l 393 432 q 245 449 308 432 q 149 488 182 465 q 97 543 117 511 q 72 597 76 575 q 67 643 67 619 l 67 649 l 285 649 l 286 644 q 288 638 288 640 q 292 630 289 635 q 299 622 296 625 q 307 613 301 618 q 319 603 313 607 q 337 597 326 600 q 358 590 347 593 q 385 586 369 588 q 419 585 401 585 q 557 642 557 585 l 557 644 q 492 685 557 685 l 324 685 l 324 821 l 486 821 q 535 829 522 821 q 547 856 547 838 l 547 857 q 414 903 547 903 q 329 892 361 903 q 290 871 297 881 q 283 853 283 861 l 74 853 l 74 863 q 78 902 74 883 q 101 949 82 921 q 151 996 119 976 q 243 1030 182 1015 q 386 1044 304 1044 l 429 1044 q 578 1034 515 1044 q 676 1008 642 1024 q 730 971 710 993 q 755 930 750 949 q 760 889 760 911 l 760 883 q 735 819 760 846 q 665 783 710 792 q 779 644 779 757 l 779 639 q 440 432 779 432 m 1121 118 l 1121 238 l 1296 415 l 1471 593 l 1700 593 l 1700 261 l 1818 261 l 1818 118 l 1700 118 l 1700 -1 l 1499 -1 l 1499 118 l 1121 118 m 1499 451 l 1315 261 l 1499 261 l 1499 451 z "},"¿":{"ha":1119,"x_min":64,"x_max":1064,"o":"m 468 435 l 738 435 l 738 365 q 697 231 738 278 q 532 138 656 183 l 465 113 q 377 67 400 88 q 354 18 354 47 q 367 -24 354 -7 q 428 -53 379 -40 q 564 -65 476 -65 q 677 -52 632 -65 q 740 -16 722 -39 q 763 25 757 7 q 771 64 769 43 q 771 71 771 68 l 1064 71 l 1064 54 q 603 -275 1064 -275 l 525 -275 q 302 -251 396 -275 q 158 -186 208 -228 q 86 -97 108 -144 q 64 10 64 -49 l 64 19 q 119 178 64 115 q 306 288 174 242 l 374 311 q 449 352 429 332 q 468 417 468 372 l 468 435 m 453 525 l 453 771 l 751 771 l 751 525 l 453 525 z "},"À":{"ha":1351,"x_min":15,"x_max":1336,"o":"m 849 404 l 661 825 l 479 404 l 849 404 m 1029 0 l 944 192 l 386 192 l 303 0 l 15 0 l 474 1033 l 857 1033 l 1336 0 l 1029 0 m 522 1118 l 375 1324 l 683 1324 l 810 1118 l 522 1118 z "},"Á":{"ha":1351,"x_min":15,"x_max":1336,"o":"m 849 404 l 661 825 l 479 404 l 849 404 m 1029 0 l 944 192 l 386 192 l 303 0 l 15 0 l 474 1033 l 857 1033 l 1336 0 l 1029 0 m 808 1118 l 521 1118 l 647 1324 l 956 1324 l 808 1118 z "},"Â":{"ha":1351,"x_min":15,"x_max":1336,"o":"m 849 404 l 661 825 l 479 404 l 849 404 m 1029 0 l 944 192 l 386 192 l 303 0 l 15 0 l 474 1033 l 857 1033 l 1336 0 l 1029 0 m 826 1324 l 1021 1115 l 753 1115 l 665 1203 l 578 1115 l 314 1115 l 508 1324 l 826 1324 z "},"Ã":{"ha":1351,"x_min":15,"x_max":1336,"o":"m 849 404 l 661 825 l 479 404 l 849 404 m 1029 0 l 944 192 l 386 192 l 303 0 l 15 0 l 474 1033 l 857 1033 l 1336 0 l 1029 0 m 546 1167 l 546 1111 l 390 1111 l 390 1219 q 417 1315 390 1275 q 511 1356 444 1356 l 514 1356 q 686 1306 565 1356 q 765 1278 753 1278 q 785 1308 785 1278 l 785 1364 l 940 1364 l 940 1256 q 913 1160 940 1200 q 819 1119 886 1119 l 817 1119 q 644 1169 765 1119 q 565 1197 578 1197 q 546 1167 546 1197 z "},"Ä":{"ha":1351,"x_min":15,"x_max":1336,"o":"m 849 404 l 661 825 l 479 404 l 849 404 m 1029 0 l 944 192 l 386 192 l 303 0 l 15 0 l 474 1033 l 857 1033 l 1336 0 l 1029 0 m 622 1313 l 622 1118 l 353 1118 l 353 1313 l 622 1313 m 978 1313 l 978 1118 l 708 1118 l 708 1313 l 978 1313 z "},"Å":{"ha":1351,"x_min":15,"x_max":1336,"o":"m 849 404 l 661 825 l 479 404 l 849 404 m 1029 0 l 944 192 l 386 192 l 303 0 l 15 0 l 474 1033 l 857 1033 l 1336 0 l 1029 0 m 432 1286 q 488 1417 432 1367 q 665 1467 543 1467 q 844 1417 789 1467 q 900 1286 900 1367 q 844 1156 900 1207 q 665 1106 789 1106 q 488 1156 543 1106 q 432 1286 432 1207 m 760 1286 q 736 1342 760 1321 q 665 1363 713 1363 q 595 1342 618 1363 q 572 1286 572 1321 q 596 1231 572 1253 q 665 1208 619 1208 q 735 1231 711 1208 q 760 1286 760 1253 z "},"Æ":{"ha":1768,"x_min":-19,"x_max":1667,"o":"m 789 390 l 789 835 l 521 390 l 789 390 m 789 0 l 789 188 l 399 188 l 285 0 l -19 0 l 626 1033 l 1656 1033 l 1656 808 l 1071 808 l 1071 640 l 1636 640 l 1636 407 l 1071 407 l 1071 228 l 1667 228 l 1667 0 l 789 0 z "},"Ç":{"ha":1399,"x_min":82,"x_max":1321,"o":"m 935 -210 l 935 -214 q 888 -319 935 -281 q 717 -358 840 -358 l 515 -358 l 515 -233 l 667 -233 q 715 -203 715 -233 q 667 -171 715 -171 l 556 -171 l 556 -7 q 364 46 449 7 q 228 136 279 85 q 142 252 176 188 q 95 376 108 317 q 82 499 82 436 l 82 540 q 98 676 82 610 q 157 812 114 743 q 265 932 200 881 q 436 1016 329 983 q 679 1049 543 1049 l 743 1049 q 1015 1013 899 1049 q 1196 917 1132 978 q 1290 788 1260 857 q 1321 640 1321 718 l 1321 638 l 1026 638 q 1019 667 1025 651 q 992 711 1013 683 q 939 760 971 739 q 847 797 907 781 q 711 813 788 813 q 458 732 536 813 q 379 532 379 651 l 379 513 q 397 413 379 461 q 451 320 414 364 q 555 249 488 276 q 713 222 622 222 q 850 238 790 222 q 941 276 910 254 q 993 326 972 297 q 1019 372 1014 356 q 1026 404 1025 389 l 1321 404 l 1321 400 q 1291 254 1321 324 q 1198 122 1261 185 q 1017 22 1135 60 q 743 -15 900 -15 l 710 -15 l 710 -69 l 717 -69 q 889 -104 843 -69 q 935 -210 935 -139 z "},"È":{"ha":1183,"x_min":128,"x_max":1082,"o":"m 128 1033 l 1074 1033 l 1074 808 l 410 808 l 410 640 l 1053 640 l 1053 407 l 410 407 l 410 228 l 1082 228 l 1082 0 l 128 0 l 128 1033 m 493 1118 l 346 1324 l 654 1324 l 781 1118 l 493 1118 z "},"É":{"ha":1183,"x_min":128,"x_max":1082,"o":"m 128 1033 l 1074 1033 l 1074 808 l 410 808 l 410 640 l 1053 640 l 1053 407 l 410 407 l 410 228 l 1082 228 l 1082 0 l 128 0 l 128 1033 m 746 1118 l 458 1118 l 585 1324 l 893 1324 l 746 1118 z "},"Ê":{"ha":1183,"x_min":128,"x_max":1082,"o":"m 128 1033 l 1074 1033 l 1074 808 l 410 808 l 410 640 l 1053 640 l 1053 407 l 410 407 l 410 228 l 1082 228 l 1082 0 l 128 0 l 128 1033 m 764 1324 l 958 1115 l 690 1115 l 603 1203 l 515 1115 l 251 1115 l 446 1324 l 764 1324 z "},"Ë":{"ha":1183,"x_min":128,"x_max":1082,"o":"m 128 1033 l 1074 1033 l 1074 808 l 410 808 l 410 640 l 1053 640 l 1053 407 l 410 407 l 410 228 l 1082 228 l 1082 0 l 128 0 l 128 1033 m 560 1313 l 560 1118 l 290 1118 l 290 1313 l 560 1313 m 915 1313 l 915 1118 l 646 1118 l 646 1313 l 915 1313 z "},"Ì":{"ha":542,"x_min":-19,"x_max":415,"o":"m 414 1033 l 414 0 l 128 0 l 128 1033 l 414 1033 m 128 1118 l -19 1324 l 289 1324 l 415 1118 l 128 1118 z "},"Í":{"ha":542,"x_min":126,"x_max":561,"o":"m 414 1033 l 414 0 l 128 0 l 128 1033 l 414 1033 m 414 1118 l 126 1118 l 253 1324 l 561 1324 l 414 1118 z "},"Î":{"ha":542,"x_min":-81,"x_max":626,"o":"m 414 1033 l 414 0 l 128 0 l 128 1033 l 414 1033 m 432 1324 l 626 1115 l 358 1115 l 271 1203 l 183 1115 l -81 1115 l 114 1324 l 432 1324 z "},"Ï":{"ha":542,"x_min":-42,"x_max":583,"o":"m 414 1033 l 414 0 l 128 0 l 128 1033 l 414 1033 m 228 1313 l 228 1118 l -42 1118 l -42 1313 l 228 1313 m 583 1313 l 583 1118 l 314 1118 l 314 1313 l 583 1313 z "},"Ð":{"ha":1436,"x_min":24,"x_max":1357,"o":"m 451 231 l 682 231 q 854 250 782 231 q 965 297 926 269 q 1026 367 1004 325 q 1054 442 1049 408 q 1060 517 1060 475 l 1060 525 q 1054 599 1060 567 q 1026 673 1049 632 q 964 740 1003 714 q 853 785 925 767 q 682 804 781 804 l 451 804 l 451 622 l 786 622 l 786 428 l 451 428 l 451 231 m 165 0 l 165 428 l 24 428 l 24 622 l 165 622 l 165 1033 l 694 1033 q 931 1013 825 1033 q 1106 955 1036 992 q 1227 872 1176 918 q 1306 770 1278 826 q 1345 661 1333 714 q 1357 553 1357 608 l 1357 511 q 1347 397 1357 451 q 1312 283 1336 343 q 1238 174 1288 222 q 1119 85 1189 125 q 941 22 1050 44 q 696 0 832 0 l 165 0 z "},"Ñ":{"ha":1432,"x_min":128,"x_max":1304,"o":"m 1024 0 l 407 669 l 407 0 l 128 0 l 128 1033 l 422 1033 l 1026 368 l 1026 1033 l 1304 1033 l 1304 0 l 1024 0 m 610 1167 l 610 1111 l 454 1111 l 454 1219 q 481 1315 454 1275 q 575 1356 508 1356 l 578 1356 q 750 1306 629 1356 q 829 1278 817 1278 q 849 1308 849 1278 l 849 1364 l 1004 1364 l 1004 1256 q 977 1160 1004 1200 q 883 1119 950 1119 l 881 1119 q 708 1169 829 1119 q 629 1197 642 1197 q 610 1167 610 1197 z "},"Ò":{"ha":1467,"x_min":82,"x_max":1385,"o":"m 703 1050 l 764 1050 q 1013 1018 903 1050 q 1192 936 1124 986 q 1305 817 1260 886 q 1367 681 1350 749 q 1385 540 1385 613 l 1385 499 q 1367 360 1385 428 q 1305 222 1350 292 q 1192 100 1260 151 q 1013 16 1124 49 q 764 -17 903 -17 l 703 -17 q 453 16 564 -17 q 275 100 343 49 q 162 222 207 151 q 99 360 117 292 q 82 499 82 428 l 82 540 q 99 680 82 613 q 162 816 117 747 q 275 935 207 885 q 453 1018 343 986 q 703 1050 564 1050 m 1088 510 l 1088 529 q 1072 628 1088 582 q 1021 719 1057 675 q 911 788 985 763 q 733 814 838 814 q 557 788 631 814 q 447 719 483 763 q 394 628 410 675 q 379 529 379 582 l 379 510 q 395 411 379 458 q 449 319 411 364 q 559 247 486 274 q 733 221 632 221 q 910 247 836 221 q 1020 319 983 274 q 1072 410 1057 364 q 1088 510 1088 457 m 590 1118 l 443 1324 l 751 1324 l 878 1118 l 590 1118 z "},"Ó":{"ha":1467,"x_min":82,"x_max":1385,"o":"m 703 1050 l 764 1050 q 1013 1018 903 1050 q 1192 936 1124 986 q 1305 817 1260 886 q 1367 681 1350 749 q 1385 540 1385 613 l 1385 499 q 1367 360 1385 428 q 1305 222 1350 292 q 1192 100 1260 151 q 1013 16 1124 49 q 764 -17 903 -17 l 703 -17 q 453 16 564 -17 q 275 100 343 49 q 162 222 207 151 q 99 360 117 292 q 82 499 82 428 l 82 540 q 99 680 82 613 q 162 816 117 747 q 275 935 207 885 q 453 1018 343 986 q 703 1050 564 1050 m 1088 510 l 1088 529 q 1072 628 1088 582 q 1021 719 1057 675 q 911 788 985 763 q 733 814 838 814 q 557 788 631 814 q 447 719 483 763 q 394 628 410 675 q 379 529 379 582 l 379 510 q 395 411 379 458 q 449 319 411 364 q 559 247 486 274 q 733 221 632 221 q 910 247 836 221 q 1020 319 983 274 q 1072 410 1057 364 q 1088 510 1088 457 m 876 1118 l 589 1118 l 715 1324 l 1024 1324 l 876 1118 z "},"Ô":{"ha":1467,"x_min":82,"x_max":1385,"o":"m 703 1050 l 764 1050 q 1013 1018 903 1050 q 1192 936 1124 986 q 1305 817 1260 886 q 1367 681 1350 749 q 1385 540 1385 613 l 1385 499 q 1367 360 1385 428 q 1305 222 1350 292 q 1192 100 1260 151 q 1013 16 1124 49 q 764 -17 903 -17 l 703 -17 q 453 16 564 -17 q 275 100 343 49 q 162 222 207 151 q 99 360 117 292 q 82 499 82 428 l 82 540 q 99 680 82 613 q 162 816 117 747 q 275 935 207 885 q 453 1018 343 986 q 703 1050 564 1050 m 1088 510 l 1088 529 q 1072 628 1088 582 q 1021 719 1057 675 q 911 788 985 763 q 733 814 838 814 q 557 788 631 814 q 447 719 483 763 q 394 628 410 675 q 379 529 379 582 l 379 510 q 395 411 379 458 q 449 319 411 364 q 559 247 486 274 q 733 221 632 221 q 910 247 836 221 q 1020 319 983 274 q 1072 410 1057 364 q 1088 510 1088 457 m 894 1324 l 1089 1115 l 821 1115 l 733 1203 l 646 1115 l 382 1115 l 576 1324 l 894 1324 z "},"Õ":{"ha":1467,"x_min":82,"x_max":1385,"o":"m 703 1050 l 764 1050 q 1013 1018 903 1050 q 1192 936 1124 986 q 1305 817 1260 886 q 1367 681 1350 749 q 1385 540 1385 613 l 1385 499 q 1367 360 1385 428 q 1305 222 1350 292 q 1192 100 1260 151 q 1013 16 1124 49 q 764 -17 903 -17 l 703 -17 q 453 16 564 -17 q 275 100 343 49 q 162 222 207 151 q 99 360 117 292 q 82 499 82 428 l 82 540 q 99 680 82 613 q 162 816 117 747 q 275 935 207 885 q 453 1018 343 986 q 703 1050 564 1050 m 1088 510 l 1088 529 q 1072 628 1088 582 q 1021 719 1057 675 q 911 788 985 763 q 733 814 838 814 q 557 788 631 814 q 447 719 483 763 q 394 628 410 675 q 379 529 379 582 l 379 510 q 395 411 379 458 q 449 319 411 364 q 559 247 486 274 q 733 221 632 221 q 910 247 836 221 q 1020 319 983 274 q 1072 410 1057 364 q 1088 510 1088 457 m 614 1167 l 614 1111 l 458 1111 l 458 1219 q 485 1315 458 1275 q 579 1356 513 1356 l 582 1356 q 754 1306 633 1356 q 833 1278 821 1278 q 853 1308 853 1278 l 853 1364 l 1008 1364 l 1008 1256 q 981 1160 1008 1200 q 888 1119 954 1119 l 885 1119 q 713 1169 833 1119 q 633 1197 646 1197 q 614 1167 614 1197 z "},"Ö":{"ha":1467,"x_min":82,"x_max":1385,"o":"m 703 1050 l 764 1050 q 1013 1018 903 1050 q 1192 936 1124 986 q 1305 817 1260 886 q 1367 681 1350 749 q 1385 540 1385 613 l 1385 499 q 1367 360 1385 428 q 1305 222 1350 292 q 1192 100 1260 151 q 1013 16 1124 49 q 764 -17 903 -17 l 703 -17 q 453 16 564 -17 q 275 100 343 49 q 162 222 207 151 q 99 360 117 292 q 82 499 82 428 l 82 540 q 99 680 82 613 q 162 816 117 747 q 275 935 207 885 q 453 1018 343 986 q 703 1050 564 1050 m 1088 510 l 1088 529 q 1072 628 1088 582 q 1021 719 1057 675 q 911 788 985 763 q 733 814 838 814 q 557 788 631 814 q 447 719 483 763 q 394 628 410 675 q 379 529 379 582 l 379 510 q 395 411 379 458 q 449 319 411 364 q 559 247 486 274 q 733 221 632 221 q 910 247 836 221 q 1020 319 983 274 q 1072 410 1057 364 q 1088 510 1088 457 m 690 1313 l 690 1118 l 421 1118 l 421 1313 l 690 1313 m 1046 1313 l 1046 1118 l 776 1118 l 776 1313 l 1046 1313 z "},"×":{"ha":839,"x_min":78,"x_max":761,"o":"m 625 93 l 418 294 l 215 93 l 79 225 l 282 426 l 78 625 l 218 763 l 421 563 l 625 764 l 761 633 l 556 431 l 761 229 l 625 93 z "},"Ø":{"ha":1461,"x_min":46,"x_max":1419,"o":"m 760 -17 l 701 -17 q 358 53 501 -17 l 299 0 l 46 0 l 214 156 q 82 499 82 297 l 82 540 q 95 672 81 607 q 152 808 110 738 q 261 930 194 878 q 442 1016 328 982 q 701 1050 556 1050 l 760 1050 q 1107 981 965 1050 l 1165 1033 l 1419 1033 l 1251 879 q 1379 540 1379 742 l 1379 499 q 1365 367 1379 432 q 1308 230 1350 301 q 1199 106 1265 158 q 1019 18 1132 53 q 760 -17 906 -17 m 372 531 l 372 511 q 418 344 372 418 l 906 796 q 731 817 843 817 q 581 799 646 817 q 477 753 515 781 q 414 685 439 725 q 381 609 389 646 q 372 531 372 572 m 732 219 q 910 247 836 219 q 1022 319 985 274 q 1074 411 1058 364 q 1089 511 1089 458 l 1089 531 q 1049 692 1089 621 l 561 239 q 732 219 639 219 z "},"Ù":{"ha":1408,"x_min":121,"x_max":1288,"o":"m 726 -15 l 686 -15 q 433 21 540 -15 q 267 109 325 57 q 175 237 210 161 q 131 374 140 313 q 121 508 121 436 l 121 1033 l 407 1033 l 407 515 q 703 228 407 228 l 710 228 q 865 255 803 228 q 956 329 928 282 q 993 419 983 376 q 1003 515 1003 463 l 1003 1033 l 1288 1033 l 1288 508 q 1283 414 1288 460 q 1262 314 1278 368 q 1221 215 1246 260 q 1152 126 1196 169 q 1051 52 1108 82 q 911 3 994 22 q 726 -15 828 -15 m 563 1118 l 415 1324 l 724 1324 l 850 1118 l 563 1118 z "},"Ú":{"ha":1408,"x_min":121,"x_max":1288,"o":"m 726 -15 l 686 -15 q 433 21 540 -15 q 267 109 325 57 q 175 237 210 161 q 131 374 140 313 q 121 508 121 436 l 121 1033 l 407 1033 l 407 515 q 703 228 407 228 l 710 228 q 865 255 803 228 q 956 329 928 282 q 993 419 983 376 q 1003 515 1003 463 l 1003 1033 l 1288 1033 l 1288 508 q 1283 414 1288 460 q 1262 314 1278 368 q 1221 215 1246 260 q 1152 126 1196 169 q 1051 52 1108 82 q 911 3 994 22 q 726 -15 828 -15 m 847 1118 l 560 1118 l 686 1324 l 994 1324 l 847 1118 z "},"Û":{"ha":1408,"x_min":121,"x_max":1288,"o":"m 726 -15 l 686 -15 q 433 21 540 -15 q 267 109 325 57 q 175 237 210 161 q 131 374 140 313 q 121 508 121 436 l 121 1033 l 407 1033 l 407 515 q 703 228 407 228 l 710 228 q 865 255 803 228 q 956 329 928 282 q 993 419 983 376 q 1003 515 1003 463 l 1003 1033 l 1288 1033 l 1288 508 q 1283 414 1288 460 q 1262 314 1278 368 q 1221 215 1246 260 q 1152 126 1196 169 q 1051 52 1108 82 q 911 3 994 22 q 726 -15 828 -15 m 867 1324 l 1061 1115 l 793 1115 l 706 1203 l 618 1115 l 354 1115 l 549 1324 l 867 1324 z "},"Ü":{"ha":1408,"x_min":121,"x_max":1288,"o":"m 726 -15 l 686 -15 q 433 21 540 -15 q 267 109 325 57 q 175 237 210 161 q 131 374 140 313 q 121 508 121 436 l 121 1033 l 407 1033 l 407 515 q 703 228 407 228 l 710 228 q 865 255 803 228 q 956 329 928 282 q 993 419 983 376 q 1003 515 1003 463 l 1003 1033 l 1288 1033 l 1288 508 q 1283 414 1288 460 q 1262 314 1278 368 q 1221 215 1246 260 q 1152 126 1196 169 q 1051 52 1108 82 q 911 3 994 22 q 726 -15 828 -15 m 663 1313 l 663 1118 l 393 1118 l 393 1313 l 663 1313 m 1018 1313 l 1018 1118 l 749 1118 l 749 1313 l 1018 1313 z "},"Ý":{"ha":1288,"x_min":-3,"x_max":1290,"o":"m 510 0 l 510 378 l -3 1033 l 351 1033 l 661 624 l 971 1033 l 1290 1033 l 796 376 l 796 0 l 510 0 m 804 1118 l 517 1118 l 643 1324 l 951 1324 l 804 1118 z "},"Þ":{"ha":1308,"x_min":128,"x_max":1236,"o":"m 817 183 l 414 183 l 414 0 l 128 0 l 128 1033 l 414 1033 l 414 875 l 817 875 q 1140 786 1044 875 q 1236 539 1236 697 l 1236 522 q 817 183 1236 183 m 414 649 l 414 410 l 796 410 q 939 526 939 410 l 939 533 q 903 617 939 586 q 796 649 868 649 l 414 649 z "},"ß":{"ha":1153,"x_min":115,"x_max":1079,"o":"m 842 608 q 915 586 879 601 q 990 542 950 571 q 1055 460 1031 513 q 1079 339 1079 407 l 1079 322 q 1059 195 1079 250 q 993 94 1039 140 q 861 24 947 49 q 651 0 775 0 l 482 0 l 482 196 l 633 196 q 767 233 732 196 q 801 331 801 269 l 801 332 q 767 426 801 390 q 633 461 732 461 l 482 461 l 482 657 l 614 657 q 746 768 746 657 l 746 771 q 710 848 746 818 q 572 878 675 878 l 564 878 q 425 839 464 878 q 386 726 386 800 l 386 0 l 115 0 l 115 751 q 122 838 115 800 q 156 922 129 875 q 229 999 182 968 q 364 1051 276 1029 q 572 1072 451 1072 l 581 1072 q 794 1050 706 1072 q 928 990 883 1028 q 992 910 974 951 q 1011 821 1011 869 l 1011 813 q 961 680 1011 732 q 842 608 911 628 z "},"à":{"ha":1088,"x_min":74,"x_max":1046,"o":"m 476 154 q 636 206 583 154 q 689 313 689 257 l 689 372 q 519 336 654 358 q 383 301 419 319 q 347 242 347 282 l 347 239 q 476 154 347 154 m 697 107 q 400 -15 596 -15 l 378 -15 q 150 55 226 -15 q 74 229 74 125 l 74 235 q 152 397 74 339 q 419 472 231 456 l 631 490 q 676 505 663 493 q 689 540 689 517 q 681 576 689 563 q 635 603 674 590 q 528 615 597 615 q 372 531 372 615 l 94 531 l 94 533 q 100 590 94 563 q 130 656 106 617 q 195 722 154 694 q 316 769 236 749 q 504 789 396 789 l 547 789 q 736 771 657 789 q 856 728 815 753 q 919 664 896 703 q 948 597 943 625 q 953 529 953 568 l 953 275 q 965 222 953 236 q 1017 207 978 207 l 1046 207 l 1046 0 l 826 0 q 739 31 771 0 q 697 107 707 63 m 543 1064 l 665 857 l 394 857 l 240 1064 l 543 1064 z "},"á":{"ha":1088,"x_min":74,"x_max":1046,"o":"m 476 154 q 636 206 583 154 q 689 313 689 257 l 689 372 q 519 336 654 358 q 383 301 419 319 q 347 242 347 282 l 347 239 q 476 154 347 154 m 697 107 q 400 -15 596 -15 l 378 -15 q 150 55 226 -15 q 74 229 74 125 l 74 235 q 152 397 74 339 q 419 472 231 456 l 631 490 q 676 505 663 493 q 689 540 689 517 q 681 576 689 563 q 635 603 674 590 q 528 615 597 615 q 372 531 372 615 l 94 531 l 94 533 q 100 590 94 563 q 130 656 106 617 q 195 722 154 694 q 316 769 236 749 q 504 789 396 789 l 547 789 q 736 771 657 789 q 856 728 815 753 q 919 664 896 703 q 948 597 943 625 q 953 529 953 568 l 953 275 q 965 222 953 236 q 1017 207 978 207 l 1046 207 l 1046 0 l 826 0 q 739 31 771 0 q 697 107 707 63 m 392 856 l 514 1063 l 817 1063 l 663 856 l 392 856 z "},"â":{"ha":1088,"x_min":74,"x_max":1046,"o":"m 476 154 q 636 206 583 154 q 689 313 689 257 l 689 372 q 519 336 654 358 q 383 301 419 319 q 347 242 347 282 l 347 239 q 476 154 347 154 m 697 107 q 400 -15 596 -15 l 378 -15 q 150 55 226 -15 q 74 229 74 125 l 74 235 q 152 397 74 339 q 419 472 231 456 l 631 490 q 676 505 663 493 q 689 540 689 517 q 681 576 689 563 q 635 603 674 590 q 528 615 597 615 q 372 531 372 615 l 94 531 l 94 533 q 100 590 94 563 q 130 656 106 617 q 195 722 154 694 q 316 769 236 749 q 504 789 396 789 l 547 789 q 736 771 657 789 q 856 728 815 753 q 919 664 896 703 q 948 597 943 625 q 953 529 953 568 l 953 275 q 965 222 953 236 q 1017 207 978 207 l 1046 207 l 1046 0 l 826 0 q 739 31 771 0 q 697 107 707 63 m 690 1064 l 881 856 l 610 856 l 528 946 l 446 856 l 181 856 l 369 1064 l 690 1064 z "},"ã":{"ha":1088,"x_min":74,"x_max":1046,"o":"m 476 154 q 636 206 583 154 q 689 313 689 257 l 689 372 q 519 336 654 358 q 383 301 419 319 q 347 242 347 282 l 347 239 q 476 154 347 154 m 697 107 q 400 -15 596 -15 l 378 -15 q 150 55 226 -15 q 74 229 74 125 l 74 235 q 152 397 74 339 q 419 472 231 456 l 631 490 q 676 505 663 493 q 689 540 689 517 q 681 576 689 563 q 635 603 674 590 q 528 615 597 615 q 372 531 372 615 l 94 531 l 94 533 q 100 590 94 563 q 130 656 106 617 q 195 722 154 694 q 316 769 236 749 q 504 789 396 789 l 547 789 q 736 771 657 789 q 856 728 815 753 q 919 664 896 703 q 948 597 943 625 q 953 529 953 568 l 953 275 q 965 222 953 236 q 1017 207 978 207 l 1046 207 l 1046 0 l 826 0 q 739 31 771 0 q 697 107 707 63 m 788 1107 l 788 997 q 760 902 788 943 q 668 861 733 861 l 665 861 q 513 910 608 861 q 443 939 456 939 q 424 908 424 939 l 424 853 l 268 853 l 268 963 q 295 1058 268 1017 q 388 1099 322 1099 l 390 1099 q 543 1050 447 1099 q 613 1021 600 1021 q 632 1051 632 1021 l 632 1107 l 788 1107 z "},"ä":{"ha":1088,"x_min":74,"x_max":1046,"o":"m 476 154 q 636 206 583 154 q 689 313 689 257 l 689 372 q 519 336 654 358 q 383 301 419 319 q 347 242 347 282 l 347 239 q 476 154 347 154 m 697 107 q 400 -15 596 -15 l 378 -15 q 150 55 226 -15 q 74 229 74 125 l 74 235 q 152 397 74 339 q 419 472 231 456 l 631 490 q 676 505 663 493 q 689 540 689 517 q 681 576 689 563 q 635 603 674 590 q 528 615 597 615 q 372 531 372 615 l 94 531 l 94 533 q 100 590 94 563 q 130 656 106 617 q 195 722 154 694 q 316 769 236 749 q 504 789 396 789 l 547 789 q 736 771 657 789 q 856 728 815 753 q 919 664 896 703 q 948 597 943 625 q 953 529 953 568 l 953 275 q 965 222 953 236 q 1017 207 978 207 l 1046 207 l 1046 0 l 826 0 q 739 31 771 0 q 697 107 707 63 m 486 1051 l 486 857 l 221 857 l 221 1051 l 486 1051 m 835 1051 l 835 857 l 569 857 l 569 1051 l 835 1051 z "},"å":{"ha":1088,"x_min":74,"x_max":1046,"o":"m 476 154 q 636 206 583 154 q 689 313 689 257 l 689 372 q 519 336 654 358 q 383 301 419 319 q 347 242 347 282 l 347 239 q 476 154 347 154 m 697 107 q 400 -15 596 -15 l 378 -15 q 150 55 226 -15 q 74 229 74 125 l 74 235 q 152 397 74 339 q 419 472 231 456 l 631 490 q 676 505 663 493 q 689 540 689 517 q 681 576 689 563 q 635 603 674 590 q 528 615 597 615 q 372 531 372 615 l 94 531 l 94 533 q 100 590 94 563 q 130 656 106 617 q 195 722 154 694 q 316 769 236 749 q 504 789 396 789 l 547 789 q 736 771 657 789 q 856 728 815 753 q 919 664 896 703 q 948 597 943 625 q 953 529 953 568 l 953 275 q 965 222 953 236 q 1017 207 978 207 l 1046 207 l 1046 0 l 826 0 q 739 31 771 0 q 697 107 707 63 m 294 1029 q 350 1158 294 1108 q 528 1208 406 1208 q 706 1158 650 1208 q 763 1029 763 1108 q 707 899 763 949 q 528 849 651 849 q 349 899 404 849 q 294 1029 294 949 m 435 1029 q 458 974 435 996 q 528 951 482 951 q 598 974 574 951 q 622 1029 622 996 q 599 1083 622 1063 q 528 1104 575 1104 q 435 1029 435 1104 z "},"æ":{"ha":1718,"x_min":74,"x_max":1646,"o":"m 1157 613 q 954 469 981 613 l 1356 469 q 1312 570 1356 528 q 1157 613 1268 613 m 469 154 q 623 206 571 154 q 675 313 675 257 l 675 372 q 513 336 643 360 q 383 299 418 319 q 347 242 347 279 l 347 239 q 469 154 347 154 m 1360 232 l 1643 232 q 1635 185 1643 211 q 1598 121 1626 158 q 1524 54 1569 83 q 1392 3 1478 25 q 1196 -18 1307 -18 l 1147 -18 q 749 133 863 -18 q 406 -15 650 -15 l 383 -15 q 149 54 225 -15 q 74 229 74 124 l 74 235 q 151 398 74 340 q 413 472 228 456 l 617 490 q 662 505 649 493 q 675 540 675 517 q 667 576 675 563 q 622 603 658 590 q 521 615 586 615 q 372 531 372 615 l 94 531 l 94 533 q 100 590 94 563 q 130 656 106 618 q 194 722 154 694 q 313 769 235 750 q 497 789 392 789 l 540 789 q 846 717 763 789 q 1124 788 935 788 l 1183 788 q 1380 763 1296 788 q 1514 697 1464 738 q 1594 598 1564 657 q 1635 481 1625 539 q 1646 353 1646 424 l 1646 328 l 951 328 q 1181 167 979 167 q 1360 232 1321 167 z "},"ç":{"ha":1113,"x_min":75,"x_max":1040,"o":"m 788 -210 l 788 -214 q 740 -319 788 -281 q 569 -358 693 -358 l 368 -358 l 368 -233 l 519 -233 q 568 -203 568 -233 q 519 -171 568 -171 l 408 -171 l 408 -11 q 267 35 329 3 q 170 108 206 68 q 113 198 135 149 q 83 290 90 247 q 75 375 75 332 l 75 394 q 85 492 75 444 q 124 597 94 540 q 202 694 154 653 q 335 764 250 736 q 531 792 419 792 l 594 792 q 783 769 701 792 q 913 714 865 747 q 990 636 960 681 q 1030 553 1019 592 q 1040 478 1040 515 l 1040 476 l 757 476 q 747 505 754 490 q 722 542 740 519 q 663 580 703 565 q 567 594 622 594 l 553 594 q 400 535 444 594 q 356 392 356 476 l 356 390 q 403 242 356 304 q 558 181 451 181 l 572 181 q 653 192 618 181 q 708 218 689 203 q 738 252 726 233 q 753 283 750 271 q 757 303 757 296 l 1040 303 q 1031 224 1040 263 q 992 139 1021 185 q 916 59 963 93 q 788 2 869 25 q 600 -21 706 -21 l 563 -21 l 563 -69 l 569 -69 q 742 -104 696 -69 q 788 -210 788 -139 z "},"è":{"ha":1126,"x_min":75,"x_max":1053,"o":"m 561 611 q 354 474 378 611 l 763 474 q 561 611 763 611 m 768 240 l 1050 240 q 1042 188 1050 215 q 1006 122 1035 161 q 932 54 978 83 q 800 3 886 25 q 601 -18 714 -18 l 550 -18 q 355 6 440 -18 q 218 67 269 29 q 133 157 167 104 q 88 263 100 210 q 75 375 75 315 l 75 394 q 95 531 75 467 q 163 655 115 594 q 303 751 210 715 q 526 788 396 788 l 588 788 q 787 763 701 788 q 922 697 872 738 q 1002 598 972 657 q 1042 481 1032 539 q 1053 353 1053 424 l 1053 328 l 351 328 q 585 167 372 167 q 628 169 607 167 q 664 174 649 171 q 692 181 679 176 q 715 189 706 185 q 733 199 724 193 q 746 209 742 206 q 755 219 750 213 q 761 228 760 225 q 765 236 763 231 l 768 240 m 574 1064 l 696 857 l 425 857 l 271 1064 l 574 1064 z "},"é":{"ha":1126,"x_min":75,"x_max":1053,"o":"m 561 611 q 354 474 378 611 l 763 474 q 561 611 763 611 m 768 240 l 1050 240 q 1042 188 1050 215 q 1006 122 1035 161 q 932 54 978 83 q 800 3 886 25 q 601 -18 714 -18 l 550 -18 q 355 6 440 -18 q 218 67 269 29 q 133 157 167 104 q 88 263 100 210 q 75 375 75 315 l 75 394 q 95 531 75 467 q 163 655 115 594 q 303 751 210 715 q 526 788 396 788 l 588 788 q 787 763 701 788 q 922 697 872 738 q 1002 598 972 657 q 1042 481 1032 539 q 1053 353 1053 424 l 1053 328 l 351 328 q 585 167 372 167 q 628 169 607 167 q 664 174 649 171 q 692 181 679 176 q 715 189 706 185 q 733 199 724 193 q 746 209 742 206 q 755 219 750 213 q 761 228 760 225 q 765 236 763 231 l 768 240 m 422 857 l 544 1064 l 847 1064 l 693 857 l 422 857 z "},"ê":{"ha":1126,"x_min":75,"x_max":1053,"o":"m 561 611 q 354 474 378 611 l 763 474 q 561 611 763 611 m 768 240 l 1050 240 q 1042 188 1050 215 q 1006 122 1035 161 q 932 54 978 83 q 800 3 886 25 q 601 -18 714 -18 l 550 -18 q 355 6 440 -18 q 218 67 269 29 q 133 157 167 104 q 88 263 100 210 q 75 375 75 315 l 75 394 q 95 531 75 467 q 163 655 115 594 q 303 751 210 715 q 526 788 396 788 l 588 788 q 787 763 701 788 q 922 697 872 738 q 1002 598 972 657 q 1042 481 1032 539 q 1053 353 1053 424 l 1053 328 l 351 328 q 585 167 372 167 q 628 169 607 167 q 664 174 649 171 q 692 181 679 176 q 715 189 706 185 q 733 199 724 193 q 746 209 742 206 q 755 219 750 213 q 761 228 760 225 q 765 236 763 231 l 768 240 m 721 1064 l 911 856 l 640 856 l 558 946 l 476 856 l 211 856 l 400 1064 l 721 1064 z "},"ë":{"ha":1126,"x_min":75,"x_max":1053,"o":"m 561 611 q 354 474 378 611 l 763 474 q 561 611 763 611 m 768 240 l 1050 240 q 1042 188 1050 215 q 1006 122 1035 161 q 932 54 978 83 q 800 3 886 25 q 601 -18 714 -18 l 550 -18 q 355 6 440 -18 q 218 67 269 29 q 133 157 167 104 q 88 263 100 210 q 75 375 75 315 l 75 394 q 95 531 75 467 q 163 655 115 594 q 303 751 210 715 q 526 788 396 788 l 588 788 q 787 763 701 788 q 922 697 872 738 q 1002 598 972 657 q 1042 481 1032 539 q 1053 353 1053 424 l 1053 328 l 351 328 q 585 167 372 167 q 628 169 607 167 q 664 174 649 171 q 692 181 679 176 q 715 189 706 185 q 733 199 724 193 q 746 209 742 206 q 755 219 750 213 q 761 228 760 225 q 765 236 763 231 l 768 240 m 517 1051 l 517 857 l 251 857 l 251 1051 l 517 1051 m 865 1051 l 865 857 l 600 857 l 600 1051 l 865 1051 z "},"ì":{"ha":501,"x_min":-36,"x_max":386,"o":"m 261 1064 l 383 857 l 113 857 l -36 1064 l 261 1064 m 386 771 l 386 0 l 115 0 l 115 771 l 386 771 z "},"í":{"ha":501,"x_min":115,"x_max":538,"o":"m 118 857 l 240 1064 l 538 1064 l 389 857 l 118 857 m 386 771 l 386 0 l 115 0 l 115 771 l 386 771 z "},"î":{"ha":501,"x_min":-69,"x_max":575,"o":"m 413 1064 l 575 856 l 319 856 l 250 950 l 181 856 l -69 856 l 92 1064 l 413 1064 m 386 771 l 386 0 l 115 0 l 115 771 l 386 771 z "},"ï":{"ha":501,"x_min":-28,"x_max":528,"o":"m 211 1051 l 211 857 l -28 857 l -28 1051 l 211 1051 m 528 1051 l 528 857 l 289 857 l 289 1051 l 528 1051 m 386 771 l 386 0 l 115 0 l 115 771 l 386 771 z "},"ð":{"ha":1149,"x_min":74,"x_max":1075,"o":"m 593 -21 l 549 -21 q 326 11 421 -21 q 178 99 232 43 q 99 222 125 156 q 74 368 74 289 l 74 392 q 169 659 74 557 q 443 761 264 761 l 464 761 q 690 708 593 761 l 532 846 l 236 803 l 236 911 l 426 939 l 299 1051 l 646 1051 l 725 982 l 981 1018 l 981 911 l 831 889 l 842 879 q 1022 660 969 767 q 1075 413 1075 553 l 1075 390 q 1051 233 1075 304 q 974 103 1028 163 q 824 12 921 44 q 593 -21 728 -21 m 797 388 l 797 389 q 788 456 797 424 q 758 520 779 488 q 691 573 736 553 q 583 593 646 593 l 568 593 q 458 573 503 593 q 392 519 413 553 q 363 455 371 486 q 354 389 354 424 l 354 388 q 363 322 354 354 q 392 257 371 290 q 458 203 413 224 q 568 182 503 182 l 583 182 q 691 203 646 182 q 758 257 736 224 q 788 322 779 290 q 797 388 797 354 z "},"ñ":{"ha":1150,"x_min":115,"x_max":1038,"o":"m 115 0 l 115 771 l 383 771 l 383 649 q 441 705 408 678 q 544 760 474 732 q 696 789 615 789 l 710 789 q 953 702 868 789 q 1038 500 1038 615 l 1038 0 l 767 0 l 767 401 q 721 526 767 475 q 582 576 675 576 q 438 522 490 576 q 386 392 386 468 l 386 0 l 115 0 m 838 1107 l 838 997 q 810 902 838 943 q 718 861 783 861 l 715 861 q 563 910 658 861 q 493 939 506 939 q 474 908 474 939 l 474 853 l 318 853 l 318 963 q 345 1058 318 1017 q 438 1099 372 1099 l 440 1099 q 593 1050 497 1099 q 663 1021 650 1021 q 682 1051 682 1021 l 682 1107 l 838 1107 z "},"ò":{"ha":1149,"x_min":74,"x_max":1075,"o":"m 596 -21 l 553 -21 q 344 7 435 -21 q 204 76 254 35 q 123 174 154 118 q 83 277 92 231 q 74 372 74 324 l 74 392 q 83 488 74 440 q 123 592 92 535 q 204 691 154 649 q 344 763 254 733 q 551 792 433 792 l 597 792 q 810 763 719 792 q 951 692 901 733 q 1029 592 1000 650 q 1067 488 1058 533 q 1075 393 1075 442 l 1075 371 q 1067 276 1075 321 q 1029 174 1058 231 q 951 76 1000 117 q 810 8 901 36 q 596 -21 718 -21 m 567 182 l 582 182 q 687 202 643 182 q 753 255 731 222 q 786 321 776 288 q 796 389 796 354 q 786 458 796 425 q 753 524 776 492 q 687 574 731 556 q 582 593 643 593 l 567 593 q 458 574 503 593 q 392 523 414 556 q 362 458 371 490 q 353 389 353 426 q 362 320 353 353 q 392 254 371 288 q 459 201 414 221 q 567 182 504 182 m 590 1064 l 713 857 l 442 857 l 288 1064 l 590 1064 z "},"ó":{"ha":1149,"x_min":74,"x_max":1075,"o":"m 596 -21 l 553 -21 q 344 7 435 -21 q 204 76 254 35 q 123 174 154 118 q 83 277 92 231 q 74 372 74 324 l 74 392 q 83 488 74 440 q 123 592 92 535 q 204 691 154 649 q 344 763 254 733 q 551 792 433 792 l 597 792 q 810 763 719 792 q 951 692 901 733 q 1029 592 1000 650 q 1067 488 1058 533 q 1075 393 1075 442 l 1075 371 q 1067 276 1075 321 q 1029 174 1058 231 q 951 76 1000 117 q 810 8 901 36 q 596 -21 718 -21 m 567 182 l 582 182 q 687 202 643 182 q 753 255 731 222 q 786 321 776 288 q 796 389 796 354 q 786 458 796 425 q 753 524 776 492 q 687 574 731 556 q 582 593 643 593 l 567 593 q 458 574 503 593 q 392 523 414 556 q 362 458 371 490 q 353 389 353 426 q 362 320 353 353 q 392 254 371 288 q 459 201 414 221 q 567 182 504 182 m 439 857 l 561 1064 l 864 1064 l 710 857 l 439 857 z "},"ô":{"ha":1149,"x_min":74,"x_max":1075,"o":"m 596 -21 l 553 -21 q 344 7 435 -21 q 204 76 254 35 q 123 174 154 118 q 83 277 92 231 q 74 372 74 324 l 74 392 q 83 488 74 440 q 123 592 92 535 q 204 691 154 649 q 344 763 254 733 q 551 792 433 792 l 597 792 q 810 763 719 792 q 951 692 901 733 q 1029 592 1000 650 q 1067 488 1058 533 q 1075 393 1075 442 l 1075 371 q 1067 276 1075 321 q 1029 174 1058 231 q 951 76 1000 117 q 810 8 901 36 q 596 -21 718 -21 m 567 182 l 582 182 q 687 202 643 182 q 753 255 731 222 q 786 321 776 288 q 796 389 796 354 q 786 458 796 425 q 753 524 776 492 q 687 574 731 556 q 582 593 643 593 l 567 593 q 458 574 503 593 q 392 523 414 556 q 362 458 371 490 q 353 389 353 426 q 362 320 353 353 q 392 254 371 288 q 459 201 414 221 q 567 182 504 182 m 738 1064 l 928 856 l 657 856 l 575 946 l 493 856 l 228 856 l 417 1064 l 738 1064 z "},"õ":{"ha":1149,"x_min":74,"x_max":1075,"o":"m 596 -21 l 553 -21 q 344 7 435 -21 q 204 76 254 35 q 123 174 154 118 q 83 277 92 231 q 74 372 74 324 l 74 392 q 83 488 74 440 q 123 592 92 535 q 204 691 154 649 q 344 763 254 733 q 551 792 433 792 l 597 792 q 810 763 719 792 q 951 692 901 733 q 1029 592 1000 650 q 1067 488 1058 533 q 1075 393 1075 442 l 1075 371 q 1067 276 1075 321 q 1029 174 1058 231 q 951 76 1000 117 q 810 8 901 36 q 596 -21 718 -21 m 567 182 l 582 182 q 687 202 643 182 q 753 255 731 222 q 786 321 776 288 q 796 389 796 354 q 786 458 796 425 q 753 524 776 492 q 687 574 731 556 q 582 593 643 593 l 567 593 q 458 574 503 593 q 392 523 414 556 q 362 458 371 490 q 353 389 353 426 q 362 320 353 353 q 392 254 371 288 q 459 201 414 221 q 567 182 504 182 m 835 1107 l 835 997 q 808 902 835 943 q 715 861 781 861 l 713 861 q 560 910 656 861 q 490 939 503 939 q 471 908 471 939 l 471 853 l 315 853 l 315 963 q 342 1058 315 1017 q 435 1099 369 1099 l 438 1099 q 590 1050 494 1099 q 660 1021 647 1021 q 679 1051 679 1021 l 679 1107 l 835 1107 z "},"ö":{"ha":1149,"x_min":74,"x_max":1075,"o":"m 596 -21 l 553 -21 q 344 7 435 -21 q 204 76 254 35 q 123 174 154 118 q 83 277 92 231 q 74 372 74 324 l 74 392 q 83 488 74 440 q 123 592 92 535 q 204 691 154 649 q 344 763 254 733 q 551 792 433 792 l 597 792 q 810 763 719 792 q 951 692 901 733 q 1029 592 1000 650 q 1067 488 1058 533 q 1075 393 1075 442 l 1075 371 q 1067 276 1075 321 q 1029 174 1058 231 q 951 76 1000 117 q 810 8 901 36 q 596 -21 718 -21 m 567 182 l 582 182 q 687 202 643 182 q 753 255 731 222 q 786 321 776 288 q 796 389 796 354 q 786 458 796 425 q 753 524 776 492 q 687 574 731 556 q 582 593 643 593 l 567 593 q 458 574 503 593 q 392 523 414 556 q 362 458 371 490 q 353 389 353 426 q 362 320 353 353 q 392 254 371 288 q 459 201 414 221 q 567 182 504 182 m 533 1051 l 533 857 l 268 857 l 268 1051 l 533 1051 m 882 1051 l 882 857 l 617 857 l 617 1051 l 882 1051 z "},"÷":{"ha":935,"x_min":103,"x_max":832,"o":"m 608 853 l 608 633 l 326 633 l 326 853 l 608 853 m 103 536 l 832 536 l 832 353 l 103 353 l 103 536 m 608 251 l 608 31 l 326 31 l 326 251 l 608 251 z "},"ø":{"ha":1140,"x_min":19,"x_max":1122,"o":"m 592 -21 l 549 -21 q 271 42 385 -21 l 224 0 l 19 0 l 163 124 q 74 372 74 219 l 74 392 q 82 485 74 440 q 119 589 90 531 q 197 690 149 647 q 336 762 246 732 q 547 792 426 792 l 593 792 q 871 733 764 792 l 915 771 l 1122 771 l 982 650 q 1067 393 1067 556 l 1067 371 q 592 -21 1067 -21 m 333 389 l 333 388 q 350 286 333 332 l 696 583 q 579 597 626 597 l 564 597 q 422 563 476 597 q 351 485 368 529 q 333 389 333 442 m 564 178 l 579 178 q 692 197 644 178 q 763 249 739 217 q 797 315 786 281 q 808 388 808 350 l 808 389 q 793 488 808 446 l 449 193 q 564 178 494 178 z "},"ù":{"ha":1142,"x_min":113,"x_max":1026,"o":"m 1026 771 l 1026 0 l 758 0 l 758 122 q 643 28 724 75 q 449 -18 563 -18 l 436 -18 q 197 69 281 -18 q 113 271 113 156 l 113 771 l 383 771 l 383 369 q 427 245 383 294 q 564 196 471 196 q 705 249 654 196 q 756 379 756 303 l 756 771 l 1026 771 m 585 1064 l 707 857 l 436 857 l 282 1064 l 585 1064 z "},"ú":{"ha":1142,"x_min":113,"x_max":1026,"o":"m 1026 771 l 1026 0 l 758 0 l 758 122 q 643 28 724 75 q 449 -18 563 -18 l 436 -18 q 197 69 281 -18 q 113 271 113 156 l 113 771 l 383 771 l 383 369 q 427 245 383 294 q 564 196 471 196 q 705 249 654 196 q 756 379 756 303 l 756 771 l 1026 771 m 432 857 l 554 1064 l 857 1064 l 703 857 l 432 857 z "},"û":{"ha":1142,"x_min":113,"x_max":1026,"o":"m 1026 771 l 1026 0 l 758 0 l 758 122 q 643 28 724 75 q 449 -18 563 -18 l 436 -18 q 197 69 281 -18 q 113 271 113 156 l 113 771 l 383 771 l 383 369 q 427 245 383 294 q 564 196 471 196 q 705 249 654 196 q 756 379 756 303 l 756 771 l 1026 771 m 732 1064 l 922 856 l 651 856 l 569 946 l 488 856 l 222 856 l 411 1064 l 732 1064 z "},"ü":{"ha":1142,"x_min":113,"x_max":1026,"o":"m 1026 771 l 1026 0 l 758 0 l 758 122 q 643 28 724 75 q 449 -18 563 -18 l 436 -18 q 197 69 281 -18 q 113 271 113 156 l 113 771 l 383 771 l 383 369 q 427 245 383 294 q 564 196 471 196 q 705 249 654 196 q 756 379 756 303 l 756 771 l 1026 771 m 528 1051 l 528 857 l 263 857 l 263 1051 l 528 1051 m 876 1051 l 876 857 l 611 857 l 611 1051 l 876 1051 z "},"ý":{"ha":1046,"x_min":25,"x_max":1021,"o":"m 171 -265 l 171 -72 l 340 -72 q 381 -40 381 -72 l 381 -39 q 356 36 381 -15 l 25 771 l 322 771 l 536 218 l 749 771 l 1021 771 l 668 -78 q 569 -221 626 -176 q 419 -265 513 -265 l 171 -265 m 400 857 l 522 1064 l 825 1064 l 671 857 l 400 857 z "},"þ":{"ha":1168,"x_min":115,"x_max":1092,"o":"m 811 385 l 811 389 q 802 455 811 424 q 772 517 793 486 q 708 565 751 547 q 604 583 665 583 l 590 583 q 428 526 478 583 q 379 389 379 468 l 379 385 q 428 248 379 306 q 590 190 478 190 l 604 190 q 708 208 665 190 q 772 257 751 226 q 802 319 793 288 q 811 385 811 350 m 115 -265 l 115 1051 l 378 1051 l 378 665 q 484 746 410 706 q 667 786 558 786 l 683 786 q 852 764 779 786 q 969 706 925 742 q 1042 617 1014 669 q 1081 513 1071 565 q 1092 401 1092 461 l 1092 378 q 1081 272 1092 324 q 1040 167 1069 221 q 967 74 1011 114 q 848 10 922 35 q 679 -15 774 -15 l 661 -15 q 482 21 554 -15 q 378 93 410 57 l 378 -265 l 115 -265 z "},"ÿ":{"ha":1046,"x_min":25,"x_max":1021,"o":"m 171 -265 l 171 -72 l 340 -72 q 381 -40 381 -72 l 381 -39 q 356 36 381 -15 l 25 771 l 322 771 l 536 218 l 749 771 l 1021 771 l 668 -78 q 569 -221 626 -176 q 419 -265 513 -265 l 171 -265 m 494 1051 l 494 857 l 229 857 l 229 1051 l 494 1051 m 843 1051 l 843 857 l 578 857 l 578 1051 l 843 1051 z "},"Ā":{"ha":1351,"x_min":15,"x_max":1336,"o":"m 849 404 l 661 825 l 479 404 l 849 404 m 1029 0 l 944 192 l 386 192 l 303 0 l 15 0 l 474 1033 l 857 1033 l 1336 0 l 1029 0 m 404 1139 l 404 1303 l 928 1303 l 928 1139 l 404 1139 z "},"ā":{"ha":1088,"x_min":74,"x_max":1046,"o":"m 476 154 q 636 206 583 154 q 689 313 689 257 l 689 372 q 519 336 654 358 q 383 301 419 319 q 347 242 347 282 l 347 239 q 476 154 347 154 m 697 107 q 400 -15 596 -15 l 378 -15 q 150 55 226 -15 q 74 229 74 125 l 74 235 q 152 397 74 339 q 419 472 231 456 l 631 490 q 676 505 663 493 q 689 540 689 517 q 681 576 689 563 q 635 603 674 590 q 528 615 597 615 q 372 531 372 615 l 94 531 l 94 533 q 100 590 94 563 q 130 656 106 617 q 195 722 154 694 q 316 769 236 749 q 504 789 396 789 l 547 789 q 736 771 657 789 q 856 728 815 753 q 919 664 896 703 q 948 597 943 625 q 953 529 953 568 l 953 275 q 965 222 953 236 q 1017 207 978 207 l 1046 207 l 1046 0 l 826 0 q 739 31 771 0 q 697 107 707 63 m 274 875 l 274 1039 l 782 1039 l 782 875 l 274 875 z "},"Ă":{"ha":1351,"x_min":15,"x_max":1336,"o":"m 849 404 l 661 825 l 479 404 l 849 404 m 1029 0 l 944 192 l 386 192 l 303 0 l 15 0 l 474 1033 l 857 1033 l 1336 0 l 1029 0 m 686 1111 l 644 1111 q 511 1135 567 1111 q 429 1196 456 1158 q 392 1267 403 1233 q 381 1333 381 1301 l 381 1338 l 583 1338 q 667 1264 597 1264 q 746 1338 732 1264 l 947 1338 l 947 1333 q 934 1267 947 1303 q 893 1196 921 1232 q 811 1135 865 1160 q 686 1111 757 1111 z "},"ă":{"ha":1088,"x_min":74,"x_max":1046,"o":"m 476 154 q 636 206 583 154 q 689 313 689 257 l 689 372 q 519 336 654 358 q 383 301 419 319 q 347 242 347 282 l 347 239 q 476 154 347 154 m 697 107 q 400 -15 596 -15 l 378 -15 q 150 55 226 -15 q 74 229 74 125 l 74 235 q 152 397 74 339 q 419 472 231 456 l 631 490 q 676 505 663 493 q 689 540 689 517 q 681 576 689 563 q 635 603 674 590 q 528 615 597 615 q 372 531 372 615 l 94 531 l 94 533 q 100 590 94 563 q 130 656 106 617 q 195 722 154 694 q 316 769 236 749 q 504 789 396 789 l 547 789 q 736 771 657 789 q 856 728 815 753 q 919 664 896 703 q 948 597 943 625 q 953 529 953 568 l 953 275 q 965 222 953 236 q 1017 207 978 207 l 1046 207 l 1046 0 l 826 0 q 739 31 771 0 q 697 107 707 63 m 553 850 l 511 850 q 378 874 433 850 q 298 935 324 897 q 262 1006 272 972 q 251 1072 251 1039 l 251 1076 l 456 1076 q 460 1049 456 1063 q 483 1019 464 1035 q 533 1003 501 1003 q 581 1019 563 1003 q 604 1049 600 1035 q 608 1076 608 1064 l 810 1076 l 810 1072 q 803 1022 810 1049 q 777 963 796 994 q 731 908 758 932 q 656 867 703 883 q 553 850 610 850 z "},"Ą":{"ha":1351,"x_min":15,"x_max":1351,"o":"m 849 404 l 661 825 l 479 404 l 849 404 m 1029 0 l 944 192 l 386 192 l 303 0 l 15 0 l 474 1033 l 857 1033 l 1336 0 l 1029 0 m 1351 -268 l 1154 -268 q 972 -162 972 -268 l 972 -160 q 1033 -69 972 -106 q 1218 0 1094 -33 l 1336 0 q 1259 -54 1282 -33 q 1236 -97 1236 -75 q 1289 -132 1236 -132 l 1351 -132 l 1351 -268 z "},"ą":{"ha":1088,"x_min":74,"x_max":1061,"o":"m 476 154 q 636 206 583 154 q 689 313 689 257 l 689 372 q 519 336 654 358 q 383 301 419 319 q 347 242 347 282 l 347 239 q 476 154 347 154 m 697 107 q 400 -15 596 -15 l 378 -15 q 150 55 226 -15 q 74 229 74 125 l 74 235 q 152 397 74 339 q 419 472 231 456 l 631 490 q 676 505 663 493 q 689 540 689 517 q 681 576 689 563 q 635 603 674 590 q 528 615 597 615 q 372 531 372 615 l 94 531 l 94 533 q 100 590 94 563 q 130 656 106 617 q 195 722 154 694 q 316 769 236 749 q 504 789 396 789 l 547 789 q 736 771 657 789 q 856 728 815 753 q 919 664 896 703 q 948 597 943 625 q 953 529 953 568 l 953 275 q 965 222 953 236 q 1017 207 978 207 l 1046 207 l 1046 0 l 826 0 q 739 31 771 0 q 697 107 707 63 m 1061 -268 l 864 -268 q 682 -162 682 -268 l 682 -160 q 743 -69 682 -106 q 928 0 804 -33 l 1046 0 q 969 -54 992 -33 q 946 -97 946 -75 q 999 -132 946 -132 l 1061 -132 l 1061 -268 z "},"Ć":{"ha":1399,"x_min":82,"x_max":1321,"o":"m 743 -15 l 679 -15 q 436 18 543 -15 q 265 104 329 51 q 157 227 200 157 q 98 364 114 297 q 82 499 82 431 l 82 540 q 98 676 82 610 q 157 812 114 743 q 265 932 200 881 q 436 1016 329 983 q 679 1049 543 1049 l 743 1049 q 1015 1013 899 1049 q 1196 917 1132 978 q 1290 788 1260 857 q 1321 640 1321 718 l 1321 638 l 1026 638 q 1019 667 1025 651 q 992 711 1013 683 q 939 760 971 739 q 847 797 907 781 q 711 813 788 813 q 458 732 536 813 q 379 532 379 651 l 379 513 q 397 413 379 461 q 451 320 414 364 q 555 249 488 276 q 713 222 622 222 q 850 238 790 222 q 941 276 910 254 q 993 326 972 297 q 1019 372 1014 356 q 1026 404 1025 389 l 1321 404 l 1321 400 q 1291 254 1321 324 q 1198 122 1261 185 q 1017 22 1135 60 q 743 -15 900 -15 m 854 1118 l 567 1118 l 693 1324 l 1001 1324 l 854 1118 z "},"ć":{"ha":1113,"x_min":75,"x_max":1040,"o":"m 757 303 l 1040 303 q 1031 224 1040 263 q 992 139 1021 185 q 916 59 963 93 q 788 2 869 25 q 600 -21 706 -21 l 532 -21 q 338 7 422 -21 q 204 76 253 35 q 125 173 156 117 q 85 277 94 229 q 75 375 75 325 l 75 394 q 85 492 75 444 q 124 597 94 540 q 202 694 154 653 q 335 764 250 736 q 531 792 419 792 l 594 792 q 783 769 701 792 q 913 714 865 747 q 990 636 960 681 q 1030 553 1019 592 q 1040 478 1040 515 l 1040 476 l 757 476 q 747 505 754 490 q 722 542 740 519 q 663 580 703 565 q 567 594 622 594 l 553 594 q 400 535 444 594 q 356 392 356 476 l 356 390 q 403 242 356 304 q 558 181 451 181 l 572 181 q 653 192 618 181 q 708 218 689 203 q 738 252 726 233 q 753 283 750 271 q 757 303 757 296 m 428 857 l 550 1064 l 853 1064 l 699 857 l 428 857 z "},"Ĉ":{"ha":1399,"x_min":82,"x_max":1321,"o":"m 743 -15 l 679 -15 q 436 18 543 -15 q 265 104 329 51 q 157 227 200 157 q 98 364 114 297 q 82 499 82 431 l 82 540 q 98 676 82 610 q 157 812 114 743 q 265 932 200 881 q 436 1016 329 983 q 679 1049 543 1049 l 743 1049 q 1015 1013 899 1049 q 1196 917 1132 978 q 1290 788 1260 857 q 1321 640 1321 718 l 1321 638 l 1026 638 q 1019 667 1025 651 q 992 711 1013 683 q 939 760 971 739 q 847 797 907 781 q 711 813 788 813 q 458 732 536 813 q 379 532 379 651 l 379 513 q 397 413 379 461 q 451 320 414 364 q 555 249 488 276 q 713 222 622 222 q 850 238 790 222 q 941 276 910 254 q 993 326 972 297 q 1019 372 1014 356 q 1026 404 1025 389 l 1321 404 l 1321 400 q 1291 254 1321 324 q 1198 122 1261 185 q 1017 22 1135 60 q 743 -15 900 -15 m 872 1324 l 1067 1115 l 799 1115 l 711 1203 l 624 1115 l 360 1115 l 554 1324 l 872 1324 z "},"ĉ":{"ha":1113,"x_min":75,"x_max":1040,"o":"m 757 303 l 1040 303 q 1031 224 1040 263 q 992 139 1021 185 q 916 59 963 93 q 788 2 869 25 q 600 -21 706 -21 l 532 -21 q 338 7 422 -21 q 204 76 253 35 q 125 173 156 117 q 85 277 94 229 q 75 375 75 325 l 75 394 q 85 492 75 444 q 124 597 94 540 q 202 694 154 653 q 335 764 250 736 q 531 792 419 792 l 594 792 q 783 769 701 792 q 913 714 865 747 q 990 636 960 681 q 1030 553 1019 592 q 1040 478 1040 515 l 1040 476 l 757 476 q 747 505 754 490 q 722 542 740 519 q 663 580 703 565 q 567 594 622 594 l 553 594 q 400 535 444 594 q 356 392 356 476 l 356 390 q 403 242 356 304 q 558 181 451 181 l 572 181 q 653 192 618 181 q 708 218 689 203 q 738 252 726 233 q 753 283 750 271 q 757 303 757 296 m 726 1064 l 917 856 l 646 856 l 564 946 l 482 856 l 217 856 l 406 1064 l 726 1064 z "},"Ċ":{"ha":1399,"x_min":82,"x_max":1321,"o":"m 743 -15 l 679 -15 q 436 18 543 -15 q 265 104 329 51 q 157 227 200 157 q 98 364 114 297 q 82 499 82 431 l 82 540 q 98 676 82 610 q 157 812 114 743 q 265 932 200 881 q 436 1016 329 983 q 679 1049 543 1049 l 743 1049 q 1015 1013 899 1049 q 1196 917 1132 978 q 1290 788 1260 857 q 1321 640 1321 718 l 1321 638 l 1026 638 q 1019 667 1025 651 q 992 711 1013 683 q 939 760 971 739 q 847 797 907 781 q 711 813 788 813 q 458 732 536 813 q 379 532 379 651 l 379 513 q 397 413 379 461 q 451 320 414 364 q 555 249 488 276 q 713 222 622 222 q 850 238 790 222 q 941 276 910 254 q 993 326 972 297 q 1019 372 1014 356 q 1026 404 1025 389 l 1321 404 l 1321 400 q 1291 254 1321 324 q 1198 122 1261 185 q 1017 22 1135 60 q 743 -15 900 -15 m 850 1313 l 850 1118 l 574 1118 l 574 1313 l 850 1313 z "},"ċ":{"ha":1113,"x_min":75,"x_max":1040,"o":"m 757 303 l 1040 303 q 1031 224 1040 263 q 992 139 1021 185 q 916 59 963 93 q 788 2 869 25 q 600 -21 706 -21 l 532 -21 q 338 7 422 -21 q 204 76 253 35 q 125 173 156 117 q 85 277 94 229 q 75 375 75 325 l 75 394 q 85 492 75 444 q 124 597 94 540 q 202 694 154 653 q 335 764 250 736 q 531 792 419 792 l 594 792 q 783 769 701 792 q 913 714 865 747 q 990 636 960 681 q 1030 553 1019 592 q 1040 478 1040 515 l 1040 476 l 757 476 q 747 505 754 490 q 722 542 740 519 q 663 580 703 565 q 567 594 622 594 l 553 594 q 400 535 444 594 q 356 392 356 476 l 356 390 q 403 242 356 304 q 558 181 451 181 l 572 181 q 653 192 618 181 q 708 218 689 203 q 738 252 726 233 q 753 283 750 271 q 757 303 757 296 m 703 1051 l 703 857 l 426 857 l 426 1051 l 703 1051 z "},"Č":{"ha":1399,"x_min":82,"x_max":1321,"o":"m 743 -15 l 679 -15 q 436 18 543 -15 q 265 104 329 51 q 157 227 200 157 q 98 364 114 297 q 82 499 82 431 l 82 540 q 98 676 82 610 q 157 812 114 743 q 265 932 200 881 q 436 1016 329 983 q 679 1049 543 1049 l 743 1049 q 1015 1013 899 1049 q 1196 917 1132 978 q 1290 788 1260 857 q 1321 640 1321 718 l 1321 638 l 1026 638 q 1019 667 1025 651 q 992 711 1013 683 q 939 760 971 739 q 847 797 907 781 q 711 813 788 813 q 458 732 536 813 q 379 532 379 651 l 379 513 q 397 413 379 461 q 451 320 414 364 q 555 249 488 276 q 713 222 622 222 q 850 238 790 222 q 941 276 910 254 q 993 326 972 297 q 1019 372 1014 356 q 1026 404 1025 389 l 1321 404 l 1321 400 q 1291 254 1321 324 q 1198 122 1261 185 q 1017 22 1135 60 q 743 -15 900 -15 m 550 1118 l 356 1324 l 625 1324 l 713 1235 l 800 1324 l 1065 1324 l 871 1118 l 550 1118 z "},"č":{"ha":1113,"x_min":75,"x_max":1040,"o":"m 757 303 l 1040 303 q 1031 224 1040 263 q 992 139 1021 185 q 916 59 963 93 q 788 2 869 25 q 600 -21 706 -21 l 532 -21 q 338 7 422 -21 q 204 76 253 35 q 125 173 156 117 q 85 277 94 229 q 75 375 75 325 l 75 394 q 85 492 75 444 q 124 597 94 540 q 202 694 154 653 q 335 764 250 736 q 531 792 419 792 l 594 792 q 783 769 701 792 q 913 714 865 747 q 990 636 960 681 q 1030 553 1019 592 q 1040 478 1040 515 l 1040 476 l 757 476 q 747 505 754 490 q 722 542 740 519 q 663 580 703 565 q 567 594 622 594 l 553 594 q 400 535 444 594 q 356 392 356 476 l 356 390 q 403 242 356 304 q 558 181 451 181 l 572 181 q 653 192 618 181 q 708 218 689 203 q 738 252 726 233 q 753 283 750 271 q 757 303 757 296 m 403 857 l 213 1064 l 483 1064 l 565 975 l 647 1064 l 913 1064 l 724 857 l 403 857 z "},"Ď":{"ha":1399,"x_min":128,"x_max":1319,"o":"m 128 0 l 128 1033 l 657 1033 q 893 1013 788 1033 q 1069 955 999 992 q 1190 872 1139 918 q 1268 770 1240 826 q 1308 661 1296 714 q 1319 553 1319 608 l 1319 511 q 1309 397 1319 451 q 1274 283 1299 343 q 1201 174 1250 222 q 1082 85 1151 125 q 903 22 1013 44 q 658 0 794 0 l 128 0 m 414 804 l 414 231 l 644 231 q 817 250 744 231 q 928 297 889 269 q 989 367 967 325 q 1017 442 1011 408 q 1022 517 1022 475 l 1022 525 q 1017 599 1022 567 q 988 673 1011 632 q 926 740 965 714 q 815 785 888 767 q 644 804 743 804 l 414 804 m 417 1118 l 222 1324 l 492 1324 l 579 1235 l 667 1324 l 932 1324 l 738 1118 l 417 1118 z "},"ď":{"ha":1176,"x_min":78,"x_max":1382,"o":"m 581 585 l 565 585 q 462 567 506 585 q 397 517 418 549 q 366 455 375 486 q 357 389 357 424 l 357 385 q 366 320 357 351 q 397 258 375 289 q 462 208 418 226 q 565 189 506 189 l 581 189 q 742 249 690 189 q 793 385 793 308 l 793 389 q 742 526 793 468 q 581 585 690 585 m 790 1051 l 1061 1051 l 1061 0 l 792 0 l 792 100 q 496 -15 692 -15 l 478 -15 q 179 99 281 -15 q 78 375 78 213 l 78 399 q 101 541 78 474 q 169 665 124 608 q 294 753 215 721 q 475 786 372 786 l 492 786 q 790 689 685 786 l 790 1051 m 1131 857 l 1154 1064 l 1382 1064 l 1343 857 l 1131 857 z "},"Đ":{"ha":1436,"x_min":24,"x_max":1357,"o":"m 451 231 l 682 231 q 854 250 782 231 q 965 297 926 269 q 1026 367 1004 325 q 1054 442 1049 408 q 1060 517 1060 475 l 1060 525 q 1054 599 1060 567 q 1026 673 1049 632 q 964 740 1003 714 q 853 785 925 767 q 682 804 781 804 l 451 804 l 451 622 l 786 622 l 786 428 l 451 428 l 451 231 m 165 0 l 165 428 l 24 428 l 24 622 l 165 622 l 165 1033 l 694 1033 q 931 1013 825 1033 q 1106 955 1036 992 q 1227 872 1176 918 q 1306 770 1278 826 q 1345 661 1333 714 q 1357 553 1357 608 l 1357 511 q 1347 397 1357 451 q 1312 283 1336 343 q 1238 174 1288 222 q 1119 85 1189 125 q 941 22 1050 44 q 696 0 832 0 l 165 0 z "},"đ":{"ha":1176,"x_min":78,"x_max":1190,"o":"m 418 858 l 418 979 l 1190 979 l 1190 858 l 418 858 m 581 585 l 565 585 q 462 567 506 585 q 397 517 418 549 q 366 455 375 486 q 357 389 357 424 l 357 385 q 366 320 357 351 q 397 258 375 289 q 462 208 418 226 q 565 189 506 189 l 581 189 q 742 249 690 189 q 793 385 793 308 l 793 389 q 742 526 793 468 q 581 585 690 585 m 790 1051 l 1061 1051 l 1061 0 l 792 0 l 792 100 q 496 -15 692 -15 l 478 -15 q 179 99 281 -15 q 78 375 78 213 l 78 399 q 101 541 78 474 q 169 665 124 608 q 294 753 215 721 q 475 786 372 786 l 492 786 q 790 689 685 786 l 790 1051 z "},"Ē":{"ha":1183,"x_min":128,"x_max":1082,"o":"m 128 1033 l 1074 1033 l 1074 808 l 410 808 l 410 640 l 1053 640 l 1053 407 l 410 407 l 410 228 l 1082 228 l 1082 0 l 128 0 l 128 1033 m 342 1139 l 342 1303 l 865 1303 l 865 1139 l 342 1139 z "},"ē":{"ha":1126,"x_min":75,"x_max":1053,"o":"m 561 611 q 354 474 378 611 l 763 474 q 561 611 763 611 m 768 240 l 1050 240 q 1042 188 1050 215 q 1006 122 1035 161 q 932 54 978 83 q 800 3 886 25 q 601 -18 714 -18 l 550 -18 q 355 6 440 -18 q 218 67 269 29 q 133 157 167 104 q 88 263 100 210 q 75 375 75 315 l 75 394 q 95 531 75 467 q 163 655 115 594 q 303 751 210 715 q 526 788 396 788 l 588 788 q 787 763 701 788 q 922 697 872 738 q 1002 598 972 657 q 1042 481 1032 539 q 1053 353 1053 424 l 1053 328 l 351 328 q 585 167 372 167 q 628 169 607 167 q 664 174 649 171 q 692 181 679 176 q 715 189 706 185 q 733 199 724 193 q 746 209 742 206 q 755 219 750 213 q 761 228 760 225 q 765 236 763 231 l 768 240 m 304 875 l 304 1039 l 813 1039 l 813 875 l 304 875 z "},"Ĕ":{"ha":1183,"x_min":128,"x_max":1082,"o":"m 128 1033 l 1074 1033 l 1074 808 l 410 808 l 410 640 l 1053 640 l 1053 407 l 410 407 l 410 228 l 1082 228 l 1082 0 l 128 0 l 128 1033 m 624 1111 l 582 1111 q 449 1135 504 1111 q 367 1196 393 1158 q 329 1267 340 1233 q 318 1333 318 1301 l 318 1338 l 521 1338 q 604 1264 535 1264 q 683 1338 669 1264 l 885 1338 l 885 1333 q 872 1267 885 1303 q 831 1196 858 1232 q 749 1135 803 1160 q 624 1111 694 1111 z "},"ĕ":{"ha":1126,"x_min":75,"x_max":1053,"o":"m 561 611 q 354 474 378 611 l 763 474 q 561 611 763 611 m 768 240 l 1050 240 q 1042 188 1050 215 q 1006 122 1035 161 q 932 54 978 83 q 800 3 886 25 q 601 -18 714 -18 l 550 -18 q 355 6 440 -18 q 218 67 269 29 q 133 157 167 104 q 88 263 100 210 q 75 375 75 315 l 75 394 q 95 531 75 467 q 163 655 115 594 q 303 751 210 715 q 526 788 396 788 l 588 788 q 787 763 701 788 q 922 697 872 738 q 1002 598 972 657 q 1042 481 1032 539 q 1053 353 1053 424 l 1053 328 l 351 328 q 585 167 372 167 q 628 169 607 167 q 664 174 649 171 q 692 181 679 176 q 715 189 706 185 q 733 199 724 193 q 746 209 742 206 q 755 219 750 213 q 761 228 760 225 q 765 236 763 231 l 768 240 m 579 850 l 538 850 q 405 874 460 850 q 324 935 350 897 q 288 1006 299 972 q 278 1072 278 1039 l 278 1076 l 482 1076 q 486 1049 482 1063 q 509 1019 490 1035 q 560 1003 528 1003 q 608 1019 589 1003 q 631 1049 626 1035 q 635 1076 635 1064 l 836 1076 l 836 1072 q 829 1022 836 1049 q 803 963 822 994 q 757 908 785 932 q 683 867 729 883 q 579 850 636 850 z "},"Ė":{"ha":1183,"x_min":128,"x_max":1082,"o":"m 128 1033 l 1074 1033 l 1074 808 l 410 808 l 410 640 l 1053 640 l 1053 407 l 410 407 l 410 228 l 1082 228 l 1082 0 l 128 0 l 128 1033 m 742 1313 l 742 1118 l 465 1118 l 465 1313 l 742 1313 z "},"ė":{"ha":1126,"x_min":75,"x_max":1053,"o":"m 561 611 q 354 474 378 611 l 763 474 q 561 611 763 611 m 768 240 l 1050 240 q 1042 188 1050 215 q 1006 122 1035 161 q 932 54 978 83 q 800 3 886 25 q 601 -18 714 -18 l 550 -18 q 355 6 440 -18 q 218 67 269 29 q 133 157 167 104 q 88 263 100 210 q 75 375 75 315 l 75 394 q 95 531 75 467 q 163 655 115 594 q 303 751 210 715 q 526 788 396 788 l 588 788 q 787 763 701 788 q 922 697 872 738 q 1002 598 972 657 q 1042 481 1032 539 q 1053 353 1053 424 l 1053 328 l 351 328 q 585 167 372 167 q 628 169 607 167 q 664 174 649 171 q 692 181 679 176 q 715 189 706 185 q 733 199 724 193 q 746 209 742 206 q 755 219 750 213 q 761 228 760 225 q 765 236 763 231 l 768 240 m 697 1051 l 697 857 l 421 857 l 421 1051 l 697 1051 z "},"Ę":{"ha":1183,"x_min":128,"x_max":1082,"o":"m 128 1033 l 1074 1033 l 1074 808 l 410 808 l 410 640 l 1053 640 l 1053 407 l 410 407 l 410 228 l 1082 228 l 1082 0 l 128 0 l 128 1033 m 964 -268 l 767 -268 q 585 -162 585 -268 l 585 -160 q 646 -69 585 -106 q 831 0 707 -33 l 949 0 q 872 -54 894 -33 q 849 -97 849 -75 q 901 -132 849 -132 l 964 -132 l 964 -268 z "},"ę":{"ha":1126,"x_min":75,"x_max":1053,"o":"m 561 614 q 354 476 378 614 l 763 476 q 561 614 763 614 m 897 -131 l 897 -268 l 697 -268 q 514 -161 514 -268 l 514 -158 q 722 -8 514 -69 q 601 -15 660 -15 l 550 -15 q 355 8 440 -15 q 218 69 269 32 q 133 160 167 107 q 88 265 100 213 q 75 378 75 318 l 75 397 q 95 533 75 469 q 163 658 115 597 q 303 754 210 718 q 526 790 396 790 l 588 790 q 787 765 701 790 q 922 700 872 740 q 1002 601 972 660 q 1042 484 1032 542 q 1053 356 1053 426 l 1053 331 l 351 331 q 585 169 372 169 q 628 172 607 169 q 664 176 649 174 q 692 183 679 179 q 715 192 706 188 q 733 202 724 196 q 746 212 742 208 q 755 222 750 215 q 761 231 760 228 q 765 239 763 233 l 768 243 l 1050 243 q 897 22 1050 132 q 804 -48 828 -25 q 781 -94 781 -71 q 835 -131 781 -131 l 897 -131 z "},"Ě":{"ha":1183,"x_min":128,"x_max":1082,"o":"m 128 1033 l 1074 1033 l 1074 808 l 410 808 l 410 640 l 1053 640 l 1053 407 l 410 407 l 410 228 l 1082 228 l 1082 0 l 128 0 l 128 1033 m 442 1118 l 247 1324 l 517 1324 l 604 1235 l 692 1324 l 957 1324 l 763 1118 l 442 1118 z "},"ě":{"ha":1126,"x_min":75,"x_max":1053,"o":"m 561 611 q 354 474 378 611 l 763 474 q 561 611 763 611 m 768 240 l 1050 240 q 1042 188 1050 215 q 1006 122 1035 161 q 932 54 978 83 q 800 3 886 25 q 601 -18 714 -18 l 550 -18 q 355 6 440 -18 q 218 67 269 29 q 133 157 167 104 q 88 263 100 210 q 75 375 75 315 l 75 394 q 95 531 75 467 q 163 655 115 594 q 303 751 210 715 q 526 788 396 788 l 588 788 q 787 763 701 788 q 922 697 872 738 q 1002 598 972 657 q 1042 481 1032 539 q 1053 353 1053 424 l 1053 328 l 351 328 q 585 167 372 167 q 628 169 607 167 q 664 174 649 171 q 692 181 679 176 q 715 189 706 185 q 733 199 724 193 q 746 209 742 206 q 755 219 750 213 q 761 228 760 225 q 765 236 763 231 l 768 240 m 397 857 l 207 1064 l 478 1064 l 560 975 l 642 1064 l 907 1064 l 718 857 l 397 857 z "},"Ĝ":{"ha":1450,"x_min":82,"x_max":1339,"o":"m 703 -15 l 681 -15 q 397 32 518 -15 q 209 158 275 79 q 113 322 143 236 q 82 501 82 408 l 82 539 q 99 676 82 610 q 160 812 117 743 q 269 932 203 881 q 443 1015 336 983 q 686 1047 550 1047 l 733 1047 q 1015 1015 894 1047 q 1200 927 1135 982 q 1296 810 1265 872 q 1326 681 1326 749 l 1326 678 l 1031 678 q 711 814 974 814 q 458 733 536 814 q 379 532 379 651 l 379 514 q 463 307 379 396 q 721 218 546 218 q 869 238 806 218 q 964 288 933 258 q 1008 340 994 318 q 1024 379 1021 363 l 743 379 l 743 564 l 1339 564 l 1339 0 l 1111 0 q 1076 143 1101 89 q 1041 105 1063 125 q 974 54 1019 85 q 858 4 929 24 q 703 -15 788 -15 m 871 1324 l 1065 1115 l 797 1115 l 710 1203 l 622 1115 l 358 1115 l 553 1324 l 871 1324 z "},"ĝ":{"ha":1175,"x_min":78,"x_max":1060,"o":"m 582 586 l 567 586 q 404 534 451 586 q 357 410 357 482 l 357 406 q 406 283 357 336 q 567 229 456 229 l 583 229 q 743 282 693 229 q 793 404 793 335 l 793 410 q 741 533 793 481 q 582 586 689 586 m 610 -286 l 563 -286 q 364 -268 449 -286 q 234 -224 279 -250 q 162 -160 189 -197 q 128 -94 135 -124 q 121 -33 121 -65 l 121 -28 l 408 -28 q 426 -54 417 -44 q 474 -76 435 -64 q 578 -87 513 -87 l 593 -87 q 792 75 792 -87 l 792 132 q 496 26 686 26 l 476 26 q 287 60 368 26 q 162 151 206 94 q 98 269 118 207 q 78 397 78 331 l 78 421 q 99 551 78 489 q 165 668 121 614 q 289 754 210 722 q 472 786 368 786 l 488 786 q 790 692 682 786 l 790 771 l 1060 771 l 1060 86 q 955 -185 1060 -83 q 610 -286 850 -286 m 725 1064 l 915 856 l 644 856 l 563 946 l 481 856 l 215 856 l 404 1064 l 725 1064 z "},"Ğ":{"ha":1450,"x_min":82,"x_max":1339,"o":"m 703 -15 l 681 -15 q 397 32 518 -15 q 209 158 275 79 q 113 322 143 236 q 82 501 82 408 l 82 539 q 99 676 82 610 q 160 812 117 743 q 269 932 203 881 q 443 1015 336 983 q 686 1047 550 1047 l 733 1047 q 1015 1015 894 1047 q 1200 927 1135 982 q 1296 810 1265 872 q 1326 681 1326 749 l 1326 678 l 1031 678 q 711 814 974 814 q 458 733 536 814 q 379 532 379 651 l 379 514 q 463 307 379 396 q 721 218 546 218 q 869 238 806 218 q 964 288 933 258 q 1008 340 994 318 q 1024 379 1021 363 l 743 379 l 743 564 l 1339 564 l 1339 0 l 1111 0 q 1076 143 1101 89 q 1041 105 1063 125 q 974 54 1019 85 q 858 4 929 24 q 703 -15 788 -15 m 731 1111 l 689 1111 q 556 1135 611 1111 q 474 1196 500 1158 q 436 1267 447 1233 q 425 1333 425 1301 l 425 1338 l 628 1338 q 711 1264 642 1264 q 790 1338 776 1264 l 992 1338 l 992 1333 q 978 1267 992 1303 q 938 1196 965 1232 q 856 1135 910 1160 q 731 1111 801 1111 z "},"ğ":{"ha":1175,"x_min":78,"x_max":1060,"o":"m 582 586 l 567 586 q 404 534 451 586 q 357 410 357 482 l 357 406 q 406 283 357 336 q 567 229 456 229 l 583 229 q 743 282 693 229 q 793 404 793 335 l 793 410 q 741 533 793 481 q 582 586 689 586 m 610 -286 l 563 -286 q 364 -268 449 -286 q 234 -224 279 -250 q 162 -160 189 -197 q 128 -94 135 -124 q 121 -33 121 -65 l 121 -28 l 408 -28 q 426 -54 417 -44 q 474 -76 435 -64 q 578 -87 513 -87 l 593 -87 q 792 75 792 -87 l 792 132 q 496 26 686 26 l 476 26 q 287 60 368 26 q 162 151 206 94 q 98 269 118 207 q 78 397 78 331 l 78 421 q 99 551 78 489 q 165 668 121 614 q 289 754 210 722 q 472 786 368 786 l 488 786 q 790 692 682 786 l 790 771 l 1060 771 l 1060 86 q 955 -185 1060 -83 q 610 -286 850 -286 m 583 850 l 542 850 q 409 874 464 850 q 328 935 354 897 q 292 1006 303 972 q 282 1072 282 1039 l 282 1076 l 486 1076 q 490 1049 486 1063 q 513 1019 494 1035 q 564 1003 532 1003 q 612 1019 593 1003 q 635 1049 631 1035 q 639 1076 639 1064 l 840 1076 l 840 1072 q 833 1022 840 1049 q 808 963 826 994 q 761 908 789 932 q 687 867 733 883 q 583 850 640 850 z "},"Ġ":{"ha":1450,"x_min":82,"x_max":1339,"o":"m 703 -15 l 681 -15 q 397 32 518 -15 q 209 158 275 79 q 113 322 143 236 q 82 501 82 408 l 82 539 q 99 676 82 610 q 160 812 117 743 q 269 932 203 881 q 443 1015 336 983 q 686 1047 550 1047 l 733 1047 q 1015 1015 894 1047 q 1200 927 1135 982 q 1296 810 1265 872 q 1326 681 1326 749 l 1326 678 l 1031 678 q 711 814 974 814 q 458 733 536 814 q 379 532 379 651 l 379 514 q 463 307 379 396 q 721 218 546 218 q 869 238 806 218 q 964 288 933 258 q 1008 340 994 318 q 1024 379 1021 363 l 743 379 l 743 564 l 1339 564 l 1339 0 l 1111 0 q 1076 143 1101 89 q 1041 105 1063 125 q 974 54 1019 85 q 858 4 929 24 q 703 -15 788 -15 m 849 1313 l 849 1118 l 572 1118 l 572 1313 l 849 1313 z "},"ġ":{"ha":1175,"x_min":78,"x_max":1060,"o":"m 582 586 l 567 586 q 404 534 451 586 q 357 410 357 482 l 357 406 q 406 283 357 336 q 567 229 456 229 l 583 229 q 743 282 693 229 q 793 404 793 335 l 793 410 q 741 533 793 481 q 582 586 689 586 m 610 -286 l 563 -286 q 364 -268 449 -286 q 234 -224 279 -250 q 162 -160 189 -197 q 128 -94 135 -124 q 121 -33 121 -65 l 121 -28 l 408 -28 q 426 -54 417 -44 q 474 -76 435 -64 q 578 -87 513 -87 l 593 -87 q 792 75 792 -87 l 792 132 q 496 26 686 26 l 476 26 q 287 60 368 26 q 162 151 206 94 q 98 269 118 207 q 78 397 78 331 l 78 421 q 99 551 78 489 q 165 668 121 614 q 289 754 210 722 q 472 786 368 786 l 488 786 q 790 692 682 786 l 790 771 l 1060 771 l 1060 86 q 955 -185 1060 -83 q 610 -286 850 -286 m 701 1051 l 701 857 l 425 857 l 425 1051 l 701 1051 z "},"Ģ":{"ha":1450,"x_min":82,"x_max":1339,"o":"m 703 -15 l 681 -15 q 397 32 518 -15 q 209 158 275 79 q 113 322 143 236 q 82 501 82 408 l 82 539 q 99 676 82 610 q 160 812 117 743 q 269 932 203 881 q 443 1015 336 983 q 686 1047 550 1047 l 733 1047 q 1015 1015 894 1047 q 1200 927 1135 982 q 1296 810 1265 872 q 1326 681 1326 749 l 1326 678 l 1031 678 q 711 814 974 814 q 458 733 536 814 q 379 532 379 651 l 379 514 q 463 307 379 396 q 721 218 546 218 q 869 238 806 218 q 964 288 933 258 q 1008 340 994 318 q 1024 379 1021 363 l 743 379 l 743 564 l 1339 564 l 1339 0 l 1111 0 q 1076 143 1101 89 q 1041 105 1063 125 q 974 54 1019 85 q 858 4 929 24 q 703 -15 788 -15 m 817 -389 l 665 -389 q 706 -272 696 -328 l 561 -272 l 561 -86 l 858 -86 l 858 -240 q 817 -389 858 -312 z "},"ģ":{"ha":1175,"x_min":78,"x_max":1060,"o":"m 582 586 l 567 586 q 404 534 451 586 q 357 410 357 482 l 357 406 q 406 283 357 336 q 567 229 456 229 l 583 229 q 743 282 693 229 q 793 404 793 335 l 793 410 q 741 533 793 481 q 582 586 689 586 m 610 -286 l 563 -286 q 364 -268 449 -286 q 234 -224 279 -250 q 162 -160 189 -197 q 128 -94 135 -124 q 121 -33 121 -65 l 121 -28 l 408 -28 q 426 -54 417 -44 q 474 -76 435 -64 q 578 -87 513 -87 l 593 -87 q 792 75 792 -87 l 792 132 q 496 26 686 26 l 476 26 q 287 60 368 26 q 162 151 206 94 q 98 269 118 207 q 78 397 78 331 l 78 421 q 99 551 78 489 q 165 668 121 614 q 289 754 210 722 q 472 786 368 786 l 488 786 q 790 692 682 786 l 790 771 l 1060 771 l 1060 86 q 955 -185 1060 -83 q 610 -286 850 -286 m 456 1160 l 607 1160 q 567 1043 576 1099 l 711 1043 l 711 857 l 414 857 l 414 1011 q 456 1160 414 1083 z "},"Ĥ":{"ha":1404,"x_min":128,"x_max":1276,"o":"m 128 0 l 128 1033 l 414 1033 l 414 650 l 990 650 l 990 1033 l 1276 1033 l 1276 0 l 990 0 l 990 415 l 414 415 l 414 0 l 128 0 m 863 1324 l 1057 1115 l 789 1115 l 701 1203 l 614 1115 l 350 1115 l 544 1324 l 863 1324 z "},"ĥ":{"ha":1150,"x_min":115,"x_max":1038,"o":"m 115 0 l 115 1051 l 386 1051 l 386 650 q 442 706 410 679 q 546 760 475 732 q 696 789 617 789 l 710 789 q 953 702 868 789 q 1038 500 1038 615 l 1038 0 l 767 0 l 767 401 q 721 526 767 475 q 582 576 675 576 q 438 522 490 576 q 386 392 386 468 l 386 0 l 115 0 m 638 1346 l 828 1138 l 557 1138 l 475 1228 l 393 1138 l 128 1138 l 317 1346 l 638 1346 z "},"Ħ":{"ha":1418,"x_min":14,"x_max":1404,"o":"m 997 771 l 421 771 l 421 650 l 997 650 l 997 771 m 135 0 l 135 771 l 14 771 l 14 915 l 135 915 l 135 1033 l 421 1033 l 421 915 l 997 915 l 997 1033 l 1283 1033 l 1283 915 l 1404 915 l 1404 771 l 1283 771 l 1283 0 l 997 0 l 997 415 l 421 415 l 421 0 l 135 0 z "},"ħ":{"ha":1150,"x_min":-15,"x_max":1038,"o":"m -15 979 l 757 979 l 757 858 l -15 858 l -15 979 m 115 0 l 115 1051 l 386 1051 l 386 650 q 442 706 410 679 q 546 760 475 732 q 696 789 617 789 l 710 789 q 953 702 868 789 q 1038 500 1038 615 l 1038 0 l 767 0 l 767 401 q 721 526 767 475 q 582 576 675 576 q 438 522 490 576 q 386 392 386 468 l 386 0 l 115 0 z "},"Ĩ":{"ha":542,"x_min":-4,"x_max":546,"o":"m 414 1033 l 414 0 l 128 0 l 128 1033 l 414 1033 m 151 1167 l 151 1111 l -4 1111 l -4 1219 q 23 1315 -4 1275 q 117 1356 50 1356 l 119 1356 q 292 1306 171 1356 q 371 1278 358 1278 q 390 1308 390 1278 l 390 1364 l 546 1364 l 546 1256 q 519 1160 546 1200 q 425 1119 492 1119 l 422 1119 q 250 1169 371 1119 q 171 1197 183 1197 q 151 1167 151 1197 z "},"ĩ":{"ha":501,"x_min":-3,"x_max":497,"o":"m 497 1107 l 497 997 q 472 902 497 943 q 383 861 446 861 l 381 861 q 235 910 326 861 q 168 939 181 939 q 149 908 149 939 l 149 853 l -3 853 l -3 963 q 23 1058 -3 1017 q 111 1099 49 1099 l 114 1099 q 260 1050 168 1099 q 326 1021 314 1021 q 346 1051 346 1021 l 346 1107 l 497 1107 m 386 771 l 386 0 l 115 0 l 115 771 l 386 771 z "},"Ī":{"ha":542,"x_min":10,"x_max":533,"o":"m 414 1033 l 414 0 l 128 0 l 128 1033 l 414 1033 m 10 1139 l 10 1303 l 533 1303 l 533 1139 l 10 1139 z "},"ī":{"ha":501,"x_min":17,"x_max":485,"o":"m 17 875 l 17 1039 l 485 1039 l 485 875 l 17 875 m 386 771 l 386 0 l 115 0 l 115 771 l 386 771 z "},"Ĭ":{"ha":542,"x_min":-14,"x_max":553,"o":"m 414 1033 l 414 0 l 128 0 l 128 1033 l 414 1033 m 292 1111 l 250 1111 q 117 1135 172 1111 q 35 1196 61 1158 q -3 1267 8 1233 q -14 1333 -14 1301 l -14 1338 l 189 1338 q 272 1264 203 1264 q 351 1338 338 1264 l 553 1338 l 553 1333 q 540 1267 553 1303 q 499 1196 526 1232 q 417 1135 471 1160 q 292 1111 363 1111 z "},"ĭ":{"ha":501,"x_min":-18,"x_max":524,"o":"m 268 849 l 240 849 q 131 865 179 849 q 55 906 82 882 q 10 962 28 931 q -12 1019 -7 993 q -18 1071 -18 1046 l -18 1075 l 183 1075 q 199 1026 183 1051 q 256 1001 215 1001 q 309 1026 293 1001 q 325 1075 325 1051 l 524 1075 l 524 1071 q 511 1005 524 1040 q 472 933 499 969 q 392 872 444 896 q 268 849 339 849 m 386 771 l 386 0 l 115 0 l 115 771 l 386 771 z "},"Į":{"ha":542,"x_min":50,"x_max":429,"o":"m 414 1033 l 414 0 l 128 0 l 128 1033 l 414 1033 m 429 -268 l 232 -268 q 50 -162 50 -268 l 50 -160 q 111 -69 50 -106 q 296 0 172 -33 l 414 0 q 337 -54 360 -33 q 314 -97 314 -75 q 367 -132 314 -132 l 429 -132 l 429 -268 z "},"į":{"ha":501,"x_min":22,"x_max":401,"o":"m 389 1051 l 389 857 l 113 857 l 113 1051 l 389 1051 m 386 771 l 386 0 l 115 0 l 115 771 l 386 771 m 401 -268 l 204 -268 q 22 -162 22 -268 l 22 -160 q 83 -69 22 -106 q 268 0 144 -33 l 386 0 q 309 -54 332 -33 q 286 -97 286 -75 q 339 -132 286 -132 l 401 -132 l 401 -268 z "},"İ":{"ha":542,"x_min":128,"x_max":414,"o":"m 414 1033 l 414 0 l 128 0 l 128 1033 l 414 1033 m 410 1313 l 410 1118 l 133 1118 l 133 1313 l 410 1313 z "},"ı":{"ha":501,"x_min":115,"x_max":386,"o":"m 386 771 l 386 0 l 115 0 l 115 771 l 386 771 z "},"Ĳ":{"ha":1747,"x_min":128,"x_max":1626,"o":"m 414 1033 l 414 0 l 128 0 l 128 1033 l 414 1033 m 1131 -17 l 1085 -17 q 881 15 969 -17 q 740 93 792 46 q 654 203 688 140 q 610 322 621 267 q 599 435 599 378 l 599 443 l 894 443 q 905 378 896 410 q 934 310 914 347 q 998 250 954 272 q 1104 228 1042 228 l 1110 228 q 1340 481 1340 228 l 1340 1033 l 1626 1033 l 1626 481 q 1616 356 1626 417 q 1573 226 1606 296 q 1488 104 1540 156 q 1344 18 1436 53 q 1131 -17 1251 -17 z "},"ĳ":{"ha":1003,"x_min":113,"x_max":890,"o":"m 389 1051 l 389 857 l 113 857 l 113 1051 l 389 1051 m 386 771 l 386 0 l 115 0 l 115 771 l 386 771 m 890 1051 l 890 857 l 614 857 l 614 1051 l 890 1051 m 479 -64 l 563 -64 q 605 -50 593 -64 q 617 -3 617 -36 l 617 771 l 888 771 l 888 -68 q 726 -265 888 -265 l 479 -265 l 479 -64 z "},"Ĵ":{"ha":1206,"x_min":57,"x_max":1296,"o":"m 589 -17 l 543 -17 q 339 15 428 -17 q 198 93 250 46 q 113 203 146 140 q 68 322 79 267 q 57 435 57 378 l 57 443 l 353 443 q 363 378 354 410 q 392 310 372 347 q 456 250 413 272 q 563 228 500 228 l 568 228 q 799 481 799 228 l 799 1033 l 1085 1033 l 1085 481 q 1074 356 1085 417 q 1031 226 1064 296 q 947 104 999 156 q 802 18 894 53 q 589 -17 710 -17 m 1101 1324 l 1296 1115 l 1028 1115 l 940 1203 l 853 1115 l 589 1115 l 783 1324 l 1101 1324 z "},"ĵ":{"ha":501,"x_min":-69,"x_max":575,"o":"m 413 1064 l 575 856 l 319 856 l 250 950 l 181 856 l -69 856 l 92 1064 l 413 1064 m -22 -64 l 61 -64 q 103 -50 92 -64 q 115 -3 115 -36 l 115 771 l 386 771 l 386 -68 q 225 -265 386 -265 l -22 -265 l -22 -64 z "},"Ķ":{"ha":1282,"x_min":128,"x_max":1285,"o":"m 414 0 l 128 0 l 128 1033 l 414 1033 l 414 608 l 897 1033 l 1261 1033 l 717 560 l 1285 0 l 911 0 l 414 486 l 414 0 m 761 -389 l 610 -389 q 650 -272 640 -328 l 506 -272 l 506 -86 l 803 -86 l 803 -240 q 761 -389 803 -312 z "},"ķ":{"ha":1008,"x_min":115,"x_max":1008,"o":"m 386 0 l 115 0 l 115 1051 l 386 1051 l 386 463 l 661 771 l 974 771 l 651 425 l 1008 0 l 686 0 l 386 357 l 386 0 m 640 -389 l 489 -389 q 529 -272 519 -328 l 385 -272 l 385 -86 l 682 -86 l 682 -240 q 640 -389 682 -312 z "},"Ĺ":{"ha":1114,"x_min":126,"x_max":1046,"o":"m 128 1033 l 414 1033 l 414 243 l 1046 243 l 1046 0 l 128 0 l 128 1033 m 414 1118 l 126 1118 l 253 1324 l 561 1324 l 414 1118 z "},"ĺ":{"ha":501,"x_min":115,"x_max":540,"o":"m 386 1051 l 386 0 l 115 0 l 115 1051 l 386 1051 m 115 1138 l 238 1344 l 540 1344 l 386 1138 l 115 1138 z "},"Ļ":{"ha":1114,"x_min":128,"x_max":1046,"o":"m 128 1033 l 414 1033 l 414 243 l 1046 243 l 1046 0 l 128 0 l 128 1033 m 693 -389 l 542 -389 q 582 -272 572 -328 l 438 -272 l 438 -86 l 735 -86 l 735 -240 q 693 -389 735 -312 z "},"ļ":{"ha":501,"x_min":104,"x_max":401,"o":"m 386 1051 l 386 0 l 115 0 l 115 1051 l 386 1051 m 360 -389 l 208 -389 q 249 -272 239 -328 l 104 -272 l 104 -86 l 401 -86 l 401 -240 q 360 -389 401 -312 z "},"Ľ":{"ha":1115,"x_min":128,"x_max":1046,"o":"m 128 1033 l 414 1033 l 414 243 l 1046 243 l 1046 0 l 128 0 l 128 1033 m 483 839 l 507 1046 l 735 1046 l 696 839 l 483 839 z "},"ľ":{"ha":501,"x_min":115,"x_max":707,"o":"m 386 1051 l 386 0 l 115 0 l 115 1051 l 386 1051 m 456 857 l 479 1064 l 707 1064 l 668 857 l 456 857 z "},"Ŀ":{"ha":1117,"x_min":128,"x_max":1046,"o":"m 128 1033 l 414 1033 l 414 243 l 1046 243 l 1046 0 l 128 0 l 128 1033 m 1008 704 l 1008 435 l 685 435 l 685 704 l 1008 704 z "},"ŀ":{"ha":878,"x_min":115,"x_max":851,"o":"m 386 1051 l 386 0 l 115 0 l 115 1051 l 386 1051 m 851 658 l 851 389 l 528 389 l 528 658 l 851 658 z "},"Ł":{"ha":1146,"x_min":21,"x_max":1076,"o":"m 158 1033 l 444 1033 l 444 606 l 799 750 l 799 557 l 444 418 l 444 243 l 1076 243 l 1076 0 l 158 0 l 158 306 l 21 253 l 21 435 l 158 490 l 158 1033 z "},"ł":{"ha":568,"x_min":24,"x_max":544,"o":"m 419 546 l 419 0 l 149 0 l 149 422 l 24 365 l 24 536 l 149 594 l 149 1051 l 419 1051 l 419 719 l 544 778 l 544 603 l 419 546 z "},"Ń":{"ha":1432,"x_min":128,"x_max":1304,"o":"m 1024 0 l 407 669 l 407 0 l 128 0 l 128 1033 l 422 1033 l 1026 368 l 1026 1033 l 1304 1033 l 1304 0 l 1024 0 m 858 1118 l 571 1118 l 697 1324 l 1006 1324 l 858 1118 z "},"ń":{"ha":1150,"x_min":115,"x_max":1038,"o":"m 115 0 l 115 771 l 383 771 l 383 649 q 441 705 408 678 q 544 760 474 732 q 696 789 615 789 l 710 789 q 953 702 868 789 q 1038 500 1038 615 l 1038 0 l 767 0 l 767 401 q 721 526 767 475 q 582 576 675 576 q 438 522 490 576 q 386 392 386 468 l 386 0 l 115 0 m 428 857 l 550 1064 l 853 1064 l 699 857 l 428 857 z "},"Ņ":{"ha":1432,"x_min":128,"x_max":1304,"o":"m 1024 0 l 407 669 l 407 0 l 128 0 l 128 1033 l 422 1033 l 1026 368 l 1026 1033 l 1304 1033 l 1304 0 l 1024 0 m 822 -389 l 671 -389 q 711 -272 701 -328 l 567 -272 l 567 -86 l 864 -86 l 864 -240 q 822 -389 864 -312 z "},"ņ":{"ha":1150,"x_min":115,"x_max":1038,"o":"m 115 0 l 115 771 l 383 771 l 383 649 q 441 705 408 678 q 544 760 474 732 q 696 789 615 789 l 710 789 q 953 702 868 789 q 1038 500 1038 615 l 1038 0 l 767 0 l 767 401 q 721 526 767 475 q 582 576 675 576 q 438 522 490 576 q 386 392 386 468 l 386 0 l 115 0 m 685 -389 l 533 -389 q 574 -272 564 -328 l 429 -272 l 429 -86 l 726 -86 l 726 -240 q 685 -389 726 -312 z "},"Ň":{"ha":1432,"x_min":128,"x_max":1304,"o":"m 1024 0 l 407 669 l 407 0 l 128 0 l 128 1033 l 422 1033 l 1026 368 l 1026 1033 l 1304 1033 l 1304 0 l 1024 0 m 561 1118 l 367 1324 l 636 1324 l 724 1235 l 811 1324 l 1076 1324 l 882 1118 l 561 1118 z "},"ň":{"ha":1150,"x_min":115,"x_max":1038,"o":"m 115 0 l 115 771 l 383 771 l 383 649 q 441 705 408 678 q 544 760 474 732 q 696 789 615 789 l 710 789 q 953 702 868 789 q 1038 500 1038 615 l 1038 0 l 767 0 l 767 401 q 721 526 767 475 q 582 576 675 576 q 438 522 490 576 q 386 392 386 468 l 386 0 l 115 0 m 417 857 l 226 1064 l 497 1064 l 579 975 l 661 1064 l 926 1064 l 738 857 l 417 857 z "},"ŉ":{"ha":1546,"x_min":56,"x_max":1433,"o":"m 308 607 l 126 607 q 201 803 185 710 l 56 803 l 56 1033 l 378 1033 l 378 856 q 308 607 378 746 m 511 0 l 511 771 l 779 771 l 779 649 q 837 705 804 678 q 940 760 869 732 q 1092 789 1011 789 l 1106 789 q 1349 702 1264 789 q 1433 500 1433 615 l 1433 0 l 1163 0 l 1163 401 q 1117 526 1163 475 q 978 576 1071 576 q 834 522 886 576 q 782 392 782 468 l 782 0 l 511 0 z "},"Ŋ":{"ha":1433,"x_min":128,"x_max":1306,"o":"m 836 -268 l 836 -61 l 972 -61 q 1016 -49 1004 -61 q 1028 -7 1028 -36 l 1028 0 l 407 667 l 407 0 l 128 0 l 128 1033 l 422 1033 l 1028 374 l 1028 1033 l 1306 1033 l 1306 -53 q 1104 -268 1306 -268 l 836 -268 z "},"ŋ":{"ha":1150,"x_min":115,"x_max":1038,"o":"m 629 -64 l 713 -64 q 755 -50 743 -64 q 767 -3 767 -36 l 767 401 q 721 525 767 475 q 582 575 675 575 q 438 522 490 575 q 386 392 386 468 l 386 0 l 115 0 l 115 771 l 383 771 l 383 649 q 441 705 408 678 q 544 760 474 732 q 696 789 615 789 l 710 789 q 953 702 868 789 q 1038 500 1038 615 l 1038 -68 q 876 -265 1038 -265 l 629 -265 l 629 -64 z "},"Ō":{"ha":1467,"x_min":82,"x_max":1385,"o":"m 703 1050 l 764 1050 q 1013 1018 903 1050 q 1192 936 1124 986 q 1305 817 1260 886 q 1367 681 1350 749 q 1385 540 1385 613 l 1385 499 q 1367 360 1385 428 q 1305 222 1350 292 q 1192 100 1260 151 q 1013 16 1124 49 q 764 -17 903 -17 l 703 -17 q 453 16 564 -17 q 275 100 343 49 q 162 222 207 151 q 99 360 117 292 q 82 499 82 428 l 82 540 q 99 680 82 613 q 162 816 117 747 q 275 935 207 885 q 453 1018 343 986 q 703 1050 564 1050 m 1088 510 l 1088 529 q 1072 628 1088 582 q 1021 719 1057 675 q 911 788 985 763 q 733 814 838 814 q 557 788 631 814 q 447 719 483 763 q 394 628 410 675 q 379 529 379 582 l 379 510 q 395 411 379 458 q 449 319 411 364 q 559 247 486 274 q 733 221 632 221 q 910 247 836 221 q 1020 319 983 274 q 1072 410 1057 364 q 1088 510 1088 457 m 472 1139 l 472 1303 l 996 1303 l 996 1139 l 472 1139 z "},"ō":{"ha":1149,"x_min":74,"x_max":1075,"o":"m 596 -21 l 553 -21 q 344 7 435 -21 q 204 76 254 35 q 123 174 154 118 q 83 277 92 231 q 74 372 74 324 l 74 392 q 83 488 74 440 q 123 592 92 535 q 204 691 154 649 q 344 763 254 733 q 551 792 433 792 l 597 792 q 810 763 719 792 q 951 692 901 733 q 1029 592 1000 650 q 1067 488 1058 533 q 1075 393 1075 442 l 1075 371 q 1067 276 1075 321 q 1029 174 1058 231 q 951 76 1000 117 q 810 8 901 36 q 596 -21 718 -21 m 567 182 l 582 182 q 687 202 643 182 q 753 255 731 222 q 786 321 776 288 q 796 389 796 354 q 786 458 796 425 q 753 524 776 492 q 687 574 731 556 q 582 593 643 593 l 567 593 q 458 574 503 593 q 392 523 414 556 q 362 458 371 490 q 353 389 353 426 q 362 320 353 353 q 392 254 371 288 q 459 201 414 221 q 567 182 504 182 m 321 875 l 321 1039 l 829 1039 l 829 875 l 321 875 z "},"Ŏ":{"ha":1467,"x_min":82,"x_max":1385,"o":"m 703 1050 l 764 1050 q 1013 1018 903 1050 q 1192 936 1124 986 q 1305 817 1260 886 q 1367 681 1350 749 q 1385 540 1385 613 l 1385 499 q 1367 360 1385 428 q 1305 222 1350 292 q 1192 100 1260 151 q 1013 16 1124 49 q 764 -17 903 -17 l 703 -17 q 453 16 564 -17 q 275 100 343 49 q 162 222 207 151 q 99 360 117 292 q 82 499 82 428 l 82 540 q 99 680 82 613 q 162 816 117 747 q 275 935 207 885 q 453 1018 343 986 q 703 1050 564 1050 m 1088 510 l 1088 529 q 1072 628 1088 582 q 1021 719 1057 675 q 911 788 985 763 q 733 814 838 814 q 557 788 631 814 q 447 719 483 763 q 394 628 410 675 q 379 529 379 582 l 379 510 q 395 411 379 458 q 449 319 411 364 q 559 247 486 274 q 733 221 632 221 q 910 247 836 221 q 1020 319 983 274 q 1072 410 1057 364 q 1088 510 1088 457 m 754 1111 l 713 1111 q 579 1135 635 1111 q 497 1196 524 1158 q 460 1267 471 1233 q 449 1333 449 1301 l 449 1338 l 651 1338 q 735 1264 665 1264 q 814 1338 800 1264 l 1015 1338 l 1015 1333 q 1002 1267 1015 1303 q 961 1196 989 1232 q 879 1135 933 1160 q 754 1111 825 1111 z "},"ŏ":{"ha":1149,"x_min":74,"x_max":1075,"o":"m 596 -21 l 553 -21 q 344 7 435 -21 q 204 76 254 35 q 123 174 154 118 q 83 277 92 231 q 74 372 74 324 l 74 392 q 83 488 74 440 q 123 592 92 535 q 204 691 154 649 q 344 763 254 733 q 551 792 433 792 l 597 792 q 810 763 719 792 q 951 692 901 733 q 1029 592 1000 650 q 1067 488 1058 533 q 1075 393 1075 442 l 1075 371 q 1067 276 1075 321 q 1029 174 1058 231 q 951 76 1000 117 q 810 8 901 36 q 596 -21 718 -21 m 567 182 l 582 182 q 687 202 643 182 q 753 255 731 222 q 786 321 776 288 q 796 389 796 354 q 786 458 796 425 q 753 524 776 492 q 687 574 731 556 q 582 593 643 593 l 567 593 q 458 574 503 593 q 392 523 414 556 q 362 458 371 490 q 353 389 353 426 q 362 320 353 353 q 392 254 371 288 q 459 201 414 221 q 567 182 504 182 m 596 850 l 554 850 q 422 874 476 850 q 341 935 367 897 q 305 1006 315 972 q 294 1072 294 1039 l 294 1076 l 499 1076 q 503 1049 499 1063 q 526 1019 507 1035 q 576 1003 544 1003 q 624 1019 606 1003 q 647 1049 643 1035 q 651 1076 651 1064 l 853 1076 l 853 1072 q 846 1022 853 1049 q 820 963 839 994 q 774 908 801 932 q 699 867 746 883 q 596 850 653 850 z "},"Ő":{"ha":1467,"x_min":82,"x_max":1385,"o":"m 703 1050 l 764 1050 q 1013 1018 903 1050 q 1192 936 1124 986 q 1305 817 1260 886 q 1367 681 1350 749 q 1385 540 1385 613 l 1385 499 q 1367 360 1385 428 q 1305 222 1350 292 q 1192 100 1260 151 q 1013 16 1124 49 q 764 -17 903 -17 l 703 -17 q 453 16 564 -17 q 275 100 343 49 q 162 222 207 151 q 99 360 117 292 q 82 499 82 428 l 82 540 q 99 680 82 613 q 162 816 117 747 q 275 935 207 885 q 453 1018 343 986 q 703 1050 564 1050 m 1088 510 l 1088 529 q 1072 628 1088 582 q 1021 719 1057 675 q 911 788 985 763 q 733 814 838 814 q 557 788 631 814 q 447 719 483 763 q 394 628 410 675 q 379 529 379 582 l 379 510 q 395 411 379 458 q 449 319 411 364 q 559 247 486 274 q 733 221 632 221 q 910 247 836 221 q 1020 319 983 274 q 1072 410 1057 364 q 1088 510 1088 457 m 447 1118 l 533 1324 l 788 1324 l 699 1118 l 447 1118 m 786 1118 l 879 1324 l 1136 1324 l 1036 1118 l 786 1118 z "},"ő":{"ha":1149,"x_min":74,"x_max":1075,"o":"m 596 -21 l 553 -21 q 344 7 435 -21 q 204 76 254 35 q 123 174 154 118 q 83 277 92 231 q 74 372 74 324 l 74 392 q 83 488 74 440 q 123 592 92 535 q 204 691 154 649 q 344 763 254 733 q 551 792 433 792 l 597 792 q 810 763 719 792 q 951 692 901 733 q 1029 592 1000 650 q 1067 488 1058 533 q 1075 393 1075 442 l 1075 371 q 1067 276 1075 321 q 1029 174 1058 231 q 951 76 1000 117 q 810 8 901 36 q 596 -21 718 -21 m 567 182 l 582 182 q 687 202 643 182 q 753 255 731 222 q 786 321 776 288 q 796 389 796 354 q 786 458 796 425 q 753 524 776 492 q 687 574 731 556 q 582 593 643 593 l 567 593 q 458 574 503 593 q 392 523 414 556 q 362 458 371 490 q 353 389 353 426 q 362 320 353 353 q 392 254 371 288 q 459 201 414 221 q 567 182 504 182 m 617 857 l 707 1064 l 961 1064 l 864 857 l 617 857 m 282 857 l 368 1064 l 621 1064 l 532 857 l 282 857 z "},"Œ":{"ha":1890,"x_min":79,"x_max":1789,"o":"m 742 1033 l 1776 1033 l 1776 808 l 1192 808 l 1192 640 l 1758 640 l 1758 407 l 1192 407 l 1192 228 l 1789 228 l 1789 0 l 740 0 q 460 32 582 0 q 269 113 339 64 q 154 230 199 161 q 94 363 110 299 q 79 501 79 428 l 79 543 q 96 680 79 615 q 158 811 113 744 q 275 925 203 878 q 467 1003 347 972 q 742 1033 586 1033 m 754 228 l 906 228 l 906 808 l 754 808 q 554 783 635 808 q 438 711 474 757 q 389 622 401 665 q 376 525 376 579 l 376 517 q 390 417 376 461 q 439 327 403 374 q 555 254 475 281 q 754 228 635 228 z "},"œ":{"ha":1828,"x_min":74,"x_max":1756,"o":"m 1268 613 q 1064 469 1090 613 l 1464 469 q 1422 570 1464 528 q 1268 613 1379 613 m 779 388 l 779 389 q 572 593 779 593 l 560 593 q 354 389 354 593 l 354 388 q 560 182 354 182 l 572 182 q 681 203 638 182 q 745 258 725 224 q 772 322 765 292 q 779 388 779 353 m 588 -21 l 544 -21 q 365 -1 444 -21 q 237 51 286 18 q 153 124 188 85 q 102 210 118 163 q 80 296 86 258 q 74 372 74 333 l 74 392 q 82 485 74 440 q 119 589 90 531 q 197 690 149 647 q 335 762 246 732 q 543 792 424 792 l 589 792 q 924 697 803 792 q 1233 788 1040 788 l 1293 788 q 1490 763 1406 788 q 1624 697 1574 738 q 1704 598 1674 657 q 1745 481 1735 539 q 1756 353 1756 424 l 1756 328 l 1063 328 q 1290 167 1083 167 q 1469 232 1431 167 l 1753 232 q 1744 185 1753 211 q 1708 121 1736 158 q 1633 54 1679 83 q 1502 3 1588 25 q 1306 -18 1417 -18 l 1257 -18 q 928 74 1039 -18 q 588 -21 815 -21 z "},"Ŕ":{"ha":1363,"x_min":128,"x_max":1285,"o":"m 414 806 l 414 586 l 813 586 q 961 696 961 586 l 961 699 q 813 806 961 806 l 414 806 m 1043 497 q 1268 229 1268 446 l 1268 122 q 1285 7 1268 36 l 1285 0 l 989 0 q 979 72 979 17 l 979 157 q 935 306 979 260 q 786 351 892 351 l 414 351 l 414 0 l 128 0 l 128 1033 l 824 1033 q 1019 1015 936 1033 q 1148 969 1103 996 q 1220 902 1193 942 q 1254 830 1247 863 q 1261 757 1261 797 l 1261 743 q 1202 584 1261 649 q 1043 497 1143 519 m 811 1118 l 524 1118 l 650 1324 l 958 1324 l 811 1118 z "},"ŕ":{"ha":968,"x_min":115,"x_max":906,"o":"m 386 0 l 115 0 l 115 771 l 383 771 l 383 644 q 409 683 392 663 q 456 729 426 704 q 532 771 485 754 q 635 788 579 788 l 643 788 q 840 708 775 788 q 906 489 906 629 q 904 401 906 435 l 625 401 l 625 413 q 601 536 625 496 q 515 576 576 576 q 419 531 453 576 q 386 410 386 486 l 386 0 m 374 857 l 496 1064 l 799 1064 l 644 857 l 374 857 z "},"Ŗ":{"ha":1363,"x_min":128,"x_max":1285,"o":"m 414 806 l 414 586 l 813 586 q 961 696 961 586 l 961 699 q 813 806 961 806 l 414 806 m 1043 497 q 1268 229 1268 446 l 1268 122 q 1285 7 1268 36 l 1285 0 l 989 0 q 979 72 979 17 l 979 157 q 935 306 979 260 q 786 351 892 351 l 414 351 l 414 0 l 128 0 l 128 1033 l 824 1033 q 1019 1015 936 1033 q 1148 969 1103 996 q 1220 902 1193 942 q 1254 830 1247 863 q 1261 757 1261 797 l 1261 743 q 1202 584 1261 649 q 1043 497 1143 519 m 796 -389 l 644 -389 q 685 -272 675 -328 l 540 -272 l 540 -86 l 838 -86 l 838 -240 q 796 -389 838 -312 z "},"ŗ":{"ha":968,"x_min":103,"x_max":906,"o":"m 386 0 l 115 0 l 115 771 l 383 771 l 383 644 q 409 683 392 663 q 456 729 426 704 q 532 771 485 754 q 635 788 579 788 l 643 788 q 840 708 775 788 q 906 489 906 629 q 904 401 906 435 l 625 401 l 625 413 q 601 536 625 496 q 515 576 576 576 q 419 531 453 576 q 386 410 386 486 l 386 0 m 358 -389 l 207 -389 q 247 -272 238 -328 l 103 -272 l 103 -86 l 400 -86 l 400 -240 q 358 -389 400 -312 z "},"Ř":{"ha":1363,"x_min":128,"x_max":1285,"o":"m 414 806 l 414 586 l 813 586 q 961 696 961 586 l 961 699 q 813 806 961 806 l 414 806 m 1043 497 q 1268 229 1268 446 l 1268 122 q 1285 7 1268 36 l 1285 0 l 989 0 q 979 72 979 17 l 979 157 q 935 306 979 260 q 786 351 892 351 l 414 351 l 414 0 l 128 0 l 128 1033 l 824 1033 q 1019 1015 936 1033 q 1148 969 1103 996 q 1220 902 1193 942 q 1254 830 1247 863 q 1261 757 1261 797 l 1261 743 q 1202 584 1261 649 q 1043 497 1143 519 m 507 1118 l 313 1324 l 582 1324 l 669 1235 l 757 1324 l 1022 1324 l 828 1118 l 507 1118 z "},"ř":{"ha":968,"x_min":115,"x_max":906,"o":"m 386 0 l 115 0 l 115 771 l 383 771 l 383 644 q 409 683 392 663 q 456 729 426 704 q 532 771 485 754 q 635 788 579 788 l 643 788 q 840 708 775 788 q 906 489 906 629 q 904 401 906 435 l 625 401 l 625 413 q 601 536 625 496 q 515 576 576 576 q 419 531 453 576 q 386 410 386 486 l 386 0 m 342 857 l 151 1064 l 422 1064 l 504 975 l 586 1064 l 851 1064 l 663 857 l 342 857 z "},"Ś":{"ha":1285,"x_min":86,"x_max":1199,"o":"m 667 -18 l 626 -18 q 385 6 488 -18 q 226 66 282 31 q 138 151 171 101 q 95 241 104 201 q 86 325 86 281 l 86 340 l 397 340 q 640 192 411 192 l 650 192 q 778 202 726 192 q 853 232 829 213 q 885 270 876 251 q 893 315 893 289 q 848 391 893 365 q 682 422 803 417 l 544 426 q 202 517 307 435 q 97 728 97 599 l 97 740 q 118 857 97 807 q 192 952 139 907 q 351 1022 246 997 q 611 1046 457 1046 l 658 1046 q 888 1027 790 1046 q 1039 979 985 1008 q 1126 908 1093 950 q 1168 827 1158 865 q 1178 743 1178 789 l 1178 728 l 871 728 q 859 766 868 750 q 828 801 850 782 q 758 831 806 821 q 639 842 710 842 l 625 842 q 447 819 496 842 q 399 750 399 796 q 442 681 399 706 q 599 651 485 657 l 742 646 q 968 617 876 640 q 1109 551 1060 593 q 1178 460 1158 510 q 1199 343 1199 410 l 1199 326 q 1188 232 1199 275 q 1144 140 1178 189 q 1054 59 1110 92 q 899 4 999 26 q 667 -18 800 -18 m 779 1118 l 492 1118 l 618 1324 l 926 1324 l 779 1118 z "},"ś":{"ha":1024,"x_min":74,"x_max":949,"o":"m 522 -18 l 486 -18 q 299 2 379 -18 q 176 49 218 22 q 110 114 135 76 q 79 177 85 151 q 74 228 74 203 l 74 235 l 364 235 q 518 153 376 153 l 521 153 q 669 226 669 153 q 640 278 669 260 q 522 300 611 296 l 417 308 q 78 539 78 329 l 78 547 q 95 642 78 601 q 154 717 113 682 q 277 770 196 751 q 476 789 358 789 l 514 789 q 700 774 621 789 q 823 735 779 758 q 892 678 867 713 q 925 616 918 644 q 932 553 932 588 l 932 549 l 649 549 q 635 582 642 569 q 594 609 628 594 q 501 624 560 624 l 497 624 q 382 608 414 624 q 350 560 350 592 q 380 508 350 525 q 489 488 410 490 l 594 483 q 870 417 792 475 q 949 256 949 360 l 949 246 q 933 149 949 190 q 876 67 918 107 q 744 4 833 26 q 522 -18 656 -18 m 365 857 l 488 1064 l 790 1064 l 636 857 l 365 857 z "},"Ŝ":{"ha":1285,"x_min":86,"x_max":1199,"o":"m 667 -18 l 626 -18 q 385 6 488 -18 q 226 66 282 31 q 138 151 171 101 q 95 241 104 201 q 86 325 86 281 l 86 340 l 397 340 q 640 192 411 192 l 650 192 q 778 202 726 192 q 853 232 829 213 q 885 270 876 251 q 893 315 893 289 q 848 391 893 365 q 682 422 803 417 l 544 426 q 202 517 307 435 q 97 728 97 599 l 97 740 q 118 857 97 807 q 192 952 139 907 q 351 1022 246 997 q 611 1046 457 1046 l 658 1046 q 888 1027 790 1046 q 1039 979 985 1008 q 1126 908 1093 950 q 1168 827 1158 865 q 1178 743 1178 789 l 1178 728 l 871 728 q 859 766 868 750 q 828 801 850 782 q 758 831 806 821 q 639 842 710 842 l 625 842 q 447 819 496 842 q 399 750 399 796 q 442 681 399 706 q 599 651 485 657 l 742 646 q 968 617 876 640 q 1109 551 1060 593 q 1178 460 1158 510 q 1199 343 1199 410 l 1199 326 q 1188 232 1199 275 q 1144 140 1178 189 q 1054 59 1110 92 q 899 4 999 26 q 667 -18 800 -18 m 797 1324 l 992 1115 l 724 1115 l 636 1203 l 549 1115 l 285 1115 l 479 1324 l 797 1324 z "},"ŝ":{"ha":1024,"x_min":74,"x_max":949,"o":"m 522 -18 l 486 -18 q 299 2 379 -18 q 176 49 218 22 q 110 114 135 76 q 79 177 85 151 q 74 228 74 203 l 74 235 l 364 235 q 518 153 376 153 l 521 153 q 669 226 669 153 q 640 278 669 260 q 522 300 611 296 l 417 308 q 78 539 78 329 l 78 547 q 95 642 78 601 q 154 717 113 682 q 277 770 196 751 q 476 789 358 789 l 514 789 q 700 774 621 789 q 823 735 779 758 q 892 678 867 713 q 925 616 918 644 q 932 553 932 588 l 932 549 l 649 549 q 635 582 642 569 q 594 609 628 594 q 501 624 560 624 l 497 624 q 382 608 414 624 q 350 560 350 592 q 380 508 350 525 q 489 488 410 490 l 594 483 q 870 417 792 475 q 949 256 949 360 l 949 246 q 933 149 949 190 q 876 67 918 107 q 744 4 833 26 q 522 -18 656 -18 m 664 1064 l 854 856 l 583 856 l 501 946 l 419 856 l 154 856 l 343 1064 l 664 1064 z "},"Ş":{"ha":1285,"x_min":86,"x_max":1199,"o":"m 860 -210 l 860 -214 q 813 -319 860 -281 q 642 -358 765 -358 l 440 -358 l 440 -233 l 592 -233 q 640 -203 640 -233 q 592 -171 640 -171 l 481 -171 l 481 -10 q 306 30 381 1 q 190 92 231 58 q 124 172 149 126 q 93 251 100 217 q 86 325 86 286 l 86 340 l 397 340 q 640 192 411 192 l 650 192 q 778 202 726 192 q 853 232 829 213 q 885 270 876 251 q 893 315 893 289 q 848 391 893 365 q 682 422 803 417 l 544 426 q 202 517 307 435 q 97 728 97 599 l 97 740 q 118 857 97 807 q 192 952 139 907 q 351 1022 246 997 q 611 1046 457 1046 l 658 1046 q 888 1027 790 1046 q 1039 979 985 1008 q 1126 908 1093 950 q 1168 827 1158 865 q 1178 743 1178 789 l 1178 728 l 871 728 q 859 766 868 750 q 828 801 850 782 q 758 831 806 821 q 639 842 710 842 l 625 842 q 447 819 496 842 q 399 750 399 796 q 442 681 399 706 q 599 651 485 657 l 742 646 q 968 617 876 640 q 1109 551 1060 593 q 1178 460 1158 510 q 1199 343 1199 410 l 1199 326 q 1188 232 1199 275 q 1144 140 1178 189 q 1054 59 1110 92 q 899 4 999 26 q 667 -18 800 -18 l 635 -18 l 635 -69 l 642 -69 q 814 -104 768 -69 q 860 -210 860 -139 z "},"ş":{"ha":1024,"x_min":74,"x_max":949,"o":"m 725 -210 l 725 -214 q 678 -319 725 -281 q 507 -358 631 -358 l 306 -358 l 306 -233 l 457 -233 q 506 -203 506 -233 q 457 -171 506 -171 l 346 -171 l 346 -8 q 199 35 258 4 q 115 105 140 67 q 82 172 90 143 q 74 228 74 200 l 74 235 l 364 235 q 518 153 376 153 l 521 153 q 669 226 669 153 q 640 278 669 260 q 522 300 611 296 l 417 308 q 78 539 78 329 l 78 547 q 95 642 78 601 q 154 717 113 682 q 277 770 196 751 q 476 789 358 789 l 514 789 q 700 774 621 789 q 823 735 779 758 q 892 678 867 713 q 925 616 918 644 q 932 553 932 588 l 932 549 l 649 549 q 635 582 642 569 q 594 609 628 594 q 501 624 560 624 l 497 624 q 382 608 414 624 q 350 560 350 592 q 380 508 350 525 q 489 488 410 490 l 594 483 q 870 417 792 475 q 949 256 949 360 l 949 246 q 933 149 949 190 q 876 67 918 107 q 744 4 833 26 q 522 -18 656 -18 l 500 -18 l 500 -69 l 507 -69 q 679 -104 633 -69 q 725 -210 725 -139 z "},"Š":{"ha":1285,"x_min":86,"x_max":1199,"o":"m 667 -18 l 626 -18 q 385 6 488 -18 q 226 66 282 31 q 138 151 171 101 q 95 241 104 201 q 86 325 86 281 l 86 340 l 397 340 q 640 192 411 192 l 650 192 q 778 202 726 192 q 853 232 829 213 q 885 270 876 251 q 893 315 893 289 q 848 391 893 365 q 682 422 803 417 l 544 426 q 202 517 307 435 q 97 728 97 599 l 97 740 q 118 857 97 807 q 192 952 139 907 q 351 1022 246 997 q 611 1046 457 1046 l 658 1046 q 888 1027 790 1046 q 1039 979 985 1008 q 1126 908 1093 950 q 1168 827 1158 865 q 1178 743 1178 789 l 1178 728 l 871 728 q 859 766 868 750 q 828 801 850 782 q 758 831 806 821 q 639 842 710 842 l 625 842 q 447 819 496 842 q 399 750 399 796 q 442 681 399 706 q 599 651 485 657 l 742 646 q 968 617 876 640 q 1109 551 1060 593 q 1178 460 1158 510 q 1199 343 1199 410 l 1199 326 q 1188 232 1199 275 q 1144 140 1178 189 q 1054 59 1110 92 q 899 4 999 26 q 667 -18 800 -18 m 475 1118 l 281 1324 l 550 1324 l 638 1235 l 725 1324 l 990 1324 l 796 1118 l 475 1118 z "},"š":{"ha":1024,"x_min":74,"x_max":949,"o":"m 522 -18 l 486 -18 q 299 2 379 -18 q 176 49 218 22 q 110 114 135 76 q 79 177 85 151 q 74 228 74 203 l 74 235 l 364 235 q 518 153 376 153 l 521 153 q 669 226 669 153 q 640 278 669 260 q 522 300 611 296 l 417 308 q 78 539 78 329 l 78 547 q 95 642 78 601 q 154 717 113 682 q 277 770 196 751 q 476 789 358 789 l 514 789 q 700 774 621 789 q 823 735 779 758 q 892 678 867 713 q 925 616 918 644 q 932 553 932 588 l 932 549 l 649 549 q 635 582 642 569 q 594 609 628 594 q 501 624 560 624 l 497 624 q 382 608 414 624 q 350 560 350 592 q 380 508 350 525 q 489 488 410 490 l 594 483 q 870 417 792 475 q 949 256 949 360 l 949 246 q 933 149 949 190 q 876 67 918 107 q 744 4 833 26 q 522 -18 656 -18 m 340 857 l 150 1064 l 421 1064 l 503 975 l 585 1064 l 850 1064 l 661 857 l 340 857 z "},"Ţ":{"ha":1213,"x_min":64,"x_max":1149,"o":"m 464 0 l 464 797 l 64 797 l 64 1033 l 1149 1033 l 1149 797 l 749 797 l 749 0 l 464 0 m 713 -389 l 561 -389 q 601 -272 592 -328 l 457 -272 l 457 -86 l 754 -86 l 754 -240 q 713 -389 754 -312 z "},"ţ":{"ha":742,"x_min":53,"x_max":667,"o":"m 667 207 l 667 0 l 421 0 q 273 53 325 0 q 221 208 221 106 l 221 576 l 53 576 l 53 771 l 221 771 l 221 1006 l 490 1006 l 490 771 l 667 771 l 667 576 l 490 576 l 490 293 q 507 226 490 246 q 571 207 524 207 l 667 207 m 576 -389 l 425 -389 q 465 -272 456 -328 l 321 -272 l 321 -86 l 618 -86 l 618 -240 q 576 -389 618 -312 z "},"Ť":{"ha":1213,"x_min":64,"x_max":1149,"o":"m 464 0 l 464 797 l 64 797 l 64 1033 l 1149 1033 l 1149 797 l 749 797 l 749 0 l 464 0 m 444 1118 l 250 1324 l 519 1324 l 607 1235 l 694 1324 l 960 1324 l 765 1118 l 444 1118 z "},"ť":{"ha":742,"x_min":53,"x_max":811,"o":"m 667 207 l 667 0 l 421 0 q 273 53 325 0 q 221 208 221 106 l 221 576 l 53 576 l 53 771 l 221 771 l 221 1006 l 490 1006 l 490 771 l 667 771 l 667 576 l 490 576 l 490 293 q 507 226 490 246 q 571 207 524 207 l 667 207 m 560 857 l 583 1064 l 811 1064 l 772 857 l 560 857 z "},"Ŧ":{"ha":1213,"x_min":64,"x_max":1149,"o":"m 1036 407 l 176 407 l 176 583 l 1036 583 l 1036 407 m 464 0 l 464 797 l 64 797 l 64 1033 l 1149 1033 l 1149 797 l 749 797 l 749 0 l 464 0 z "},"ŧ":{"ha":753,"x_min":58,"x_max":672,"o":"m 672 0 l 426 0 q 278 53 331 0 q 226 208 226 106 l 226 343 l 58 343 l 58 481 l 226 481 l 226 583 l 58 583 l 58 771 l 226 771 l 226 1006 l 496 1006 l 496 771 l 672 771 l 672 583 l 496 583 l 496 481 l 672 481 l 672 343 l 496 343 l 496 286 q 513 219 496 239 q 578 200 529 200 l 672 200 l 672 0 z "},"Ũ":{"ha":1408,"x_min":121,"x_max":1288,"o":"m 726 -15 l 686 -15 q 433 21 540 -15 q 267 109 325 57 q 175 237 210 161 q 131 374 140 313 q 121 508 121 436 l 121 1033 l 407 1033 l 407 515 q 703 228 407 228 l 710 228 q 865 255 803 228 q 956 329 928 282 q 993 419 983 376 q 1003 515 1003 463 l 1003 1033 l 1288 1033 l 1288 508 q 1283 414 1288 460 q 1262 314 1278 368 q 1221 215 1246 260 q 1152 126 1196 169 q 1051 52 1108 82 q 911 3 994 22 q 726 -15 828 -15 m 586 1167 l 586 1111 l 431 1111 l 431 1219 q 458 1315 431 1275 q 551 1356 485 1356 l 554 1356 q 726 1306 606 1356 q 806 1278 793 1278 q 825 1308 825 1278 l 825 1364 l 981 1364 l 981 1256 q 953 1160 981 1200 q 860 1119 926 1119 l 857 1119 q 685 1169 806 1119 q 606 1197 618 1197 q 586 1167 586 1197 z "},"ũ":{"ha":1142,"x_min":113,"x_max":1026,"o":"m 1026 771 l 1026 0 l 758 0 l 758 122 q 643 28 724 75 q 449 -18 563 -18 l 436 -18 q 197 69 281 -18 q 113 271 113 156 l 113 771 l 383 771 l 383 369 q 427 245 383 294 q 564 196 471 196 q 705 249 654 196 q 756 379 756 303 l 756 771 l 1026 771 m 829 1107 l 829 997 q 802 902 829 943 q 710 861 775 861 l 707 861 q 554 910 650 861 q 485 939 497 939 q 465 908 465 939 l 465 853 l 310 853 l 310 963 q 337 1058 310 1017 q 429 1099 364 1099 l 432 1099 q 585 1050 489 1099 q 654 1021 642 1021 q 674 1051 674 1021 l 674 1107 l 829 1107 z "},"Ū":{"ha":1408,"x_min":121,"x_max":1288,"o":"m 726 -15 l 686 -15 q 433 21 540 -15 q 267 109 325 57 q 175 237 210 161 q 131 374 140 313 q 121 508 121 436 l 121 1033 l 407 1033 l 407 515 q 703 228 407 228 l 710 228 q 865 255 803 228 q 956 329 928 282 q 993 419 983 376 q 1003 515 1003 463 l 1003 1033 l 1288 1033 l 1288 508 q 1283 414 1288 460 q 1262 314 1278 368 q 1221 215 1246 260 q 1152 126 1196 169 q 1051 52 1108 82 q 911 3 994 22 q 726 -15 828 -15 m 444 1139 l 444 1303 l 968 1303 l 968 1139 l 444 1139 z "},"ū":{"ha":1142,"x_min":113,"x_max":1026,"o":"m 1026 771 l 1026 0 l 758 0 l 758 122 q 643 28 724 75 q 449 -18 563 -18 l 436 -18 q 197 69 281 -18 q 113 271 113 156 l 113 771 l 383 771 l 383 369 q 427 245 383 294 q 564 196 471 196 q 705 249 654 196 q 756 379 756 303 l 756 771 l 1026 771 m 315 875 l 315 1039 l 824 1039 l 824 875 l 315 875 z "},"Ŭ":{"ha":1408,"x_min":121,"x_max":1288,"o":"m 726 -15 l 686 -15 q 433 21 540 -15 q 267 109 325 57 q 175 237 210 161 q 131 374 140 313 q 121 508 121 436 l 121 1033 l 407 1033 l 407 515 q 703 228 407 228 l 710 228 q 865 255 803 228 q 956 329 928 282 q 993 419 983 376 q 1003 515 1003 463 l 1003 1033 l 1288 1033 l 1288 508 q 1283 414 1288 460 q 1262 314 1278 368 q 1221 215 1246 260 q 1152 126 1196 169 q 1051 52 1108 82 q 911 3 994 22 q 726 -15 828 -15 m 726 1111 l 685 1111 q 551 1135 607 1111 q 469 1196 496 1158 q 432 1267 443 1233 q 421 1333 421 1301 l 421 1338 l 624 1338 q 707 1264 638 1264 q 786 1338 772 1264 l 988 1338 l 988 1333 q 974 1267 988 1303 q 933 1196 961 1232 q 851 1135 906 1160 q 726 1111 797 1111 z "},"ŭ":{"ha":1142,"x_min":113,"x_max":1026,"o":"m 1026 771 l 1026 0 l 758 0 l 758 122 q 643 28 724 75 q 449 -18 563 -18 l 436 -18 q 197 69 281 -18 q 113 271 113 156 l 113 771 l 383 771 l 383 369 q 427 245 383 294 q 564 196 471 196 q 705 249 654 196 q 756 379 756 303 l 756 771 l 1026 771 m 590 850 l 549 850 q 416 874 471 850 q 335 935 361 897 q 299 1006 310 972 q 289 1072 289 1039 l 289 1076 l 493 1076 q 497 1049 493 1063 q 520 1019 501 1035 q 571 1003 539 1003 q 619 1019 600 1003 q 642 1049 638 1035 q 646 1076 646 1064 l 847 1076 l 847 1072 q 840 1022 847 1049 q 815 963 833 994 q 768 908 796 932 q 694 867 740 883 q 590 850 647 850 z "},"Ů":{"ha":1408,"x_min":121,"x_max":1288,"o":"m 726 -15 l 686 -15 q 433 21 540 -15 q 267 109 325 57 q 175 237 210 161 q 131 374 140 313 q 121 508 121 436 l 121 1033 l 407 1033 l 407 515 q 703 228 407 228 l 710 228 q 865 255 803 228 q 956 329 928 282 q 993 419 983 376 q 1003 515 1003 463 l 1003 1033 l 1288 1033 l 1288 508 q 1283 414 1288 460 q 1262 314 1278 368 q 1221 215 1246 260 q 1152 126 1196 169 q 1051 52 1108 82 q 911 3 994 22 q 726 -15 828 -15 m 471 1253 q 526 1383 471 1333 q 704 1433 582 1433 q 883 1383 828 1433 q 939 1253 939 1333 q 883 1123 939 1174 q 704 1072 828 1072 q 526 1123 582 1072 q 471 1253 471 1174 m 799 1253 q 775 1308 799 1288 q 704 1329 751 1329 q 634 1308 657 1329 q 611 1253 611 1288 q 635 1197 611 1219 q 704 1175 658 1175 q 774 1197 750 1175 q 799 1253 799 1219 z "},"ů":{"ha":1142,"x_min":113,"x_max":1026,"o":"m 1026 771 l 1026 0 l 758 0 l 758 122 q 643 28 724 75 q 449 -18 563 -18 l 436 -18 q 197 69 281 -18 q 113 271 113 156 l 113 771 l 383 771 l 383 369 q 427 245 383 294 q 564 196 471 196 q 705 249 654 196 q 756 379 756 303 l 756 771 l 1026 771 m 336 1029 q 392 1158 336 1108 q 569 1208 447 1208 q 748 1158 692 1208 q 804 1029 804 1108 q 749 899 804 949 q 569 849 693 849 q 391 899 446 849 q 336 1029 336 949 m 476 1029 q 500 974 476 996 q 569 951 524 951 q 640 974 615 951 q 664 1029 664 996 q 640 1083 664 1063 q 569 1104 617 1104 q 476 1029 476 1104 z "},"Ű":{"ha":1408,"x_min":121,"x_max":1288,"o":"m 726 -15 l 686 -15 q 433 21 540 -15 q 267 109 325 57 q 175 237 210 161 q 131 374 140 313 q 121 508 121 436 l 121 1033 l 407 1033 l 407 515 q 703 228 407 228 l 710 228 q 865 255 803 228 q 956 329 928 282 q 993 419 983 376 q 1003 515 1003 463 l 1003 1033 l 1288 1033 l 1288 508 q 1283 414 1288 460 q 1262 314 1278 368 q 1221 215 1246 260 q 1152 126 1196 169 q 1051 52 1108 82 q 911 3 994 22 q 726 -15 828 -15 m 410 1118 l 496 1324 l 750 1324 l 661 1118 l 410 1118 m 749 1118 l 842 1324 l 1099 1324 l 999 1118 l 749 1118 z "},"ű":{"ha":1142,"x_min":113,"x_max":1026,"o":"m 1026 771 l 1026 0 l 758 0 l 758 122 q 643 28 724 75 q 449 -18 563 -18 l 436 -18 q 197 69 281 -18 q 113 271 113 156 l 113 771 l 383 771 l 383 369 q 427 245 383 294 q 564 196 471 196 q 705 249 654 196 q 756 379 756 303 l 756 771 l 1026 771 m 613 857 l 703 1064 l 957 1064 l 860 857 l 613 857 m 278 857 l 364 1064 l 617 1064 l 528 857 l 278 857 z "},"Ų":{"ha":1408,"x_min":121,"x_max":1288,"o":"m 1007 -268 l 810 -268 q 628 -162 628 -268 l 628 -160 q 677 -76 628 -111 q 826 -10 726 -42 q 726 -15 783 -15 l 686 -15 q 433 21 540 -15 q 267 109 325 57 q 175 237 210 161 q 131 374 140 313 q 121 508 121 436 l 121 1033 l 407 1033 l 407 515 q 703 228 407 228 l 710 228 q 865 255 803 228 q 956 329 928 282 q 993 419 983 376 q 1003 515 1003 463 l 1003 1033 l 1288 1033 l 1288 508 q 1228 229 1288 344 q 1036 31 1168 114 q 922 -47 953 -21 q 892 -96 892 -74 q 944 -132 892 -132 l 1007 -132 l 1007 -268 z "},"ų":{"ha":1142,"x_min":113,"x_max":1042,"o":"m 1026 771 l 1026 0 l 758 0 l 758 122 q 643 28 724 75 q 449 -18 563 -18 l 436 -18 q 197 69 281 -18 q 113 271 113 156 l 113 771 l 383 771 l 383 369 q 427 245 383 294 q 564 196 471 196 q 705 249 654 196 q 756 379 756 303 l 756 771 l 1026 771 m 1042 -268 l 844 -268 q 663 -162 663 -268 l 663 -160 q 724 -69 663 -106 q 908 0 785 -33 l 1026 0 q 949 -54 972 -33 q 926 -97 926 -75 q 979 -132 926 -132 l 1042 -132 l 1042 -268 z "},"Ŵ":{"ha":1861,"x_min":25,"x_max":1836,"o":"m 713 0 l 381 0 l 25 1033 l 332 1033 l 560 290 l 776 1033 l 1110 1033 l 1328 288 l 1554 1033 l 1836 1033 l 1493 0 l 1151 0 l 932 724 l 713 0 m 1104 1324 l 1299 1115 l 1031 1115 l 943 1203 l 856 1115 l 592 1115 l 786 1324 l 1104 1324 z "},"ŵ":{"ha":1600,"x_min":31,"x_max":1568,"o":"m 647 0 l 332 0 l 31 771 l 318 771 l 503 236 l 663 771 l 968 771 l 1140 236 l 1311 771 l 1568 771 l 1296 0 l 978 0 l 808 500 l 647 0 m 975 1064 l 1165 856 l 894 856 l 813 946 l 731 856 l 465 856 l 654 1064 l 975 1064 z "},"Ŷ":{"ha":1288,"x_min":-3,"x_max":1290,"o":"m 510 0 l 510 378 l -3 1033 l 351 1033 l 661 624 l 971 1033 l 1290 1033 l 796 376 l 796 0 l 510 0 m 822 1324 l 1017 1115 l 749 1115 l 661 1203 l 574 1115 l 310 1115 l 504 1324 l 822 1324 z "},"ŷ":{"ha":1046,"x_min":25,"x_max":1021,"o":"m 171 -265 l 171 -72 l 340 -72 q 381 -40 381 -72 l 381 -39 q 356 36 381 -15 l 25 771 l 322 771 l 536 218 l 749 771 l 1021 771 l 668 -78 q 569 -221 626 -176 q 419 -265 513 -265 l 171 -265 m 699 1064 l 889 856 l 618 856 l 536 946 l 454 856 l 189 856 l 378 1064 l 699 1064 z "},"Ÿ":{"ha":1288,"x_min":-3,"x_max":1290,"o":"m 510 0 l 510 378 l -3 1033 l 351 1033 l 661 624 l 971 1033 l 1290 1033 l 796 376 l 796 0 l 510 0 m 618 1313 l 618 1118 l 349 1118 l 349 1313 l 618 1313 m 974 1313 l 974 1118 l 704 1118 l 704 1313 l 974 1313 z "},"Ź":{"ha":1261,"x_min":103,"x_max":1160,"o":"m 1160 0 l 103 0 l 103 199 l 736 800 l 107 800 l 107 1033 l 1154 1033 l 1154 835 l 494 236 l 1160 236 l 1160 0 m 774 1118 l 486 1118 l 613 1324 l 921 1324 l 774 1118 z "},"ź":{"ha":1025,"x_min":82,"x_max":944,"o":"m 944 0 l 82 0 l 82 186 l 560 568 l 85 568 l 85 771 l 926 771 l 926 589 l 435 211 l 944 211 l 944 0 m 371 857 l 493 1064 l 796 1064 l 642 857 l 371 857 z "},"Ż":{"ha":1261,"x_min":103,"x_max":1160,"o":"m 1160 0 l 103 0 l 103 199 l 736 800 l 107 800 l 107 1033 l 1154 1033 l 1154 835 l 494 236 l 1160 236 l 1160 0 m 769 1313 l 769 1118 l 493 1118 l 493 1313 l 769 1313 z "},"ż":{"ha":1025,"x_min":82,"x_max":944,"o":"m 944 0 l 82 0 l 82 186 l 560 568 l 85 568 l 85 771 l 926 771 l 926 589 l 435 211 l 944 211 l 944 0 m 644 1051 l 644 857 l 368 857 l 368 1051 l 644 1051 z "},"Ž":{"ha":1261,"x_min":103,"x_max":1160,"o":"m 1160 0 l 103 0 l 103 199 l 736 800 l 107 800 l 107 1033 l 1154 1033 l 1154 835 l 494 236 l 1160 236 l 1160 0 m 469 1118 l 275 1324 l 544 1324 l 632 1235 l 719 1324 l 985 1324 l 790 1118 l 469 1118 z "},"ž":{"ha":1025,"x_min":82,"x_max":944,"o":"m 944 0 l 82 0 l 82 186 l 560 568 l 85 568 l 85 771 l 926 771 l 926 589 l 435 211 l 944 211 l 944 0 m 346 857 l 156 1064 l 426 1064 l 508 975 l 590 1064 l 856 1064 l 667 857 l 346 857 z "},"ƒ":{"ha":778,"x_min":81,"x_max":697,"o":"m 697 454 l 511 454 l 472 -268 l 208 -268 l 246 454 l 81 454 l 81 647 l 256 647 l 264 811 q 323 980 269 926 q 513 1033 376 1033 l 697 1033 l 697 840 l 594 840 q 545 827 560 840 q 528 778 531 814 l 521 647 l 697 647 l 697 454 z "},"Ǻ":{"ha":1351,"x_min":15,"x_max":1336,"o":"m 849 404 l 661 825 l 479 404 l 849 404 m 1029 0 l 944 192 l 386 192 l 303 0 l 15 0 l 474 1033 l 857 1033 l 1336 0 l 1029 0 m 432 1286 q 488 1417 432 1367 q 665 1467 543 1467 q 844 1417 789 1467 q 900 1286 900 1367 q 844 1156 900 1207 q 665 1106 789 1106 q 488 1156 543 1106 q 432 1286 432 1207 m 760 1286 q 736 1342 760 1321 q 665 1363 713 1363 q 595 1342 618 1363 q 572 1286 572 1321 q 596 1231 572 1253 q 665 1208 619 1208 q 735 1231 711 1208 q 760 1286 760 1253 m 808 1515 l 521 1515 l 647 1721 l 956 1721 l 808 1515 z "},"ǻ":{"ha":1088,"x_min":74,"x_max":1046,"o":"m 476 154 q 636 206 583 154 q 689 313 689 257 l 689 372 q 519 336 654 358 q 383 301 419 319 q 347 242 347 282 l 347 239 q 476 154 347 154 m 697 107 q 400 -15 596 -15 l 378 -15 q 150 55 226 -15 q 74 229 74 125 l 74 235 q 152 397 74 339 q 419 472 231 456 l 631 490 q 676 505 663 493 q 689 540 689 517 q 681 576 689 563 q 635 603 674 590 q 528 615 597 615 q 372 531 372 615 l 94 531 l 94 533 q 100 590 94 563 q 130 656 106 617 q 195 722 154 694 q 316 769 236 749 q 504 789 396 789 l 547 789 q 736 771 657 789 q 856 728 815 753 q 919 664 896 703 q 948 597 943 625 q 953 529 953 568 l 953 275 q 965 222 953 236 q 1017 207 978 207 l 1046 207 l 1046 0 l 826 0 q 739 31 771 0 q 697 107 707 63 m 294 1029 q 350 1158 294 1108 q 528 1208 406 1208 q 706 1158 650 1208 q 763 1029 763 1108 q 707 899 763 949 q 528 849 651 849 q 349 899 404 849 q 294 1029 294 949 m 435 1029 q 458 974 435 996 q 528 951 482 951 q 598 974 574 951 q 622 1029 622 996 q 599 1083 622 1063 q 528 1104 575 1104 q 435 1029 435 1104 m 392 1257 l 514 1464 l 817 1464 l 663 1257 l 392 1257 z "},"Ǽ":{"ha":1768,"x_min":-19,"x_max":1667,"o":"m 789 390 l 789 835 l 521 390 l 789 390 m 789 0 l 789 188 l 399 188 l 285 0 l -19 0 l 626 1033 l 1656 1033 l 1656 808 l 1071 808 l 1071 640 l 1636 640 l 1636 407 l 1071 407 l 1071 228 l 1667 228 l 1667 0 l 789 0 m 1285 1118 l 997 1118 l 1124 1324 l 1432 1324 l 1285 1118 z "},"ǽ":{"ha":1718,"x_min":74,"x_max":1646,"o":"m 1157 613 q 954 469 981 613 l 1356 469 q 1312 570 1356 528 q 1157 613 1268 613 m 469 154 q 623 206 571 154 q 675 313 675 257 l 675 372 q 513 336 643 360 q 383 299 418 319 q 347 242 347 279 l 347 239 q 469 154 347 154 m 1360 232 l 1643 232 q 1635 185 1643 211 q 1598 121 1626 158 q 1524 54 1569 83 q 1392 3 1478 25 q 1196 -18 1307 -18 l 1147 -18 q 749 133 863 -18 q 406 -15 650 -15 l 383 -15 q 149 54 225 -15 q 74 229 74 124 l 74 235 q 151 398 74 340 q 413 472 228 456 l 617 490 q 662 505 649 493 q 675 540 675 517 q 667 576 675 563 q 622 603 658 590 q 521 615 586 615 q 372 531 372 615 l 94 531 l 94 533 q 100 590 94 563 q 130 656 106 618 q 194 722 154 694 q 313 769 235 750 q 497 789 392 789 l 540 789 q 846 717 763 789 q 1124 788 935 788 l 1183 788 q 1380 763 1296 788 q 1514 697 1464 738 q 1594 598 1564 657 q 1635 481 1625 539 q 1646 353 1646 424 l 1646 328 l 951 328 q 1181 167 979 167 q 1360 232 1321 167 m 707 857 l 829 1064 l 1132 1064 l 978 857 l 707 857 z "},"Ǿ":{"ha":1461,"x_min":46,"x_max":1419,"o":"m 760 -17 l 701 -17 q 358 53 501 -17 l 299 0 l 46 0 l 214 156 q 82 499 82 297 l 82 540 q 95 672 81 607 q 152 808 110 738 q 261 930 194 878 q 442 1016 328 982 q 701 1050 556 1050 l 760 1050 q 1107 981 965 1050 l 1165 1033 l 1419 1033 l 1251 879 q 1379 540 1379 742 l 1379 499 q 1365 367 1379 432 q 1308 230 1350 301 q 1199 106 1265 158 q 1019 18 1132 53 q 760 -17 906 -17 m 372 531 l 372 511 q 418 344 372 418 l 906 796 q 731 817 843 817 q 581 799 646 817 q 477 753 515 781 q 414 685 439 725 q 381 609 389 646 q 372 531 372 572 m 732 219 q 910 247 836 219 q 1022 319 985 274 q 1074 411 1058 364 q 1089 511 1089 458 l 1089 531 q 1049 692 1089 621 l 561 239 q 732 219 639 219 m 875 1118 l 588 1118 l 714 1324 l 1022 1324 l 875 1118 z "},"ǿ":{"ha":1140,"x_min":19,"x_max":1122,"o":"m 592 -21 l 549 -21 q 271 42 385 -21 l 224 0 l 19 0 l 163 124 q 74 372 74 219 l 74 392 q 82 485 74 440 q 119 589 90 531 q 197 690 149 647 q 336 762 246 732 q 547 792 426 792 l 593 792 q 871 733 764 792 l 915 771 l 1122 771 l 982 650 q 1067 393 1067 556 l 1067 371 q 592 -21 1067 -21 m 333 389 l 333 388 q 350 286 333 332 l 696 583 q 579 597 626 597 l 564 597 q 422 563 476 597 q 351 485 368 529 q 333 389 333 442 m 564 178 l 579 178 q 692 197 644 178 q 763 249 739 217 q 797 315 786 281 q 808 388 808 350 l 808 389 q 793 488 808 446 l 449 193 q 564 178 494 178 m 435 857 l 557 1064 l 860 1064 l 706 857 l 435 857 z "},"Ș":{"ha":1285,"x_min":86,"x_max":1199,"o":"m 667 -18 l 626 -18 q 385 6 488 -18 q 226 66 282 31 q 138 151 171 101 q 95 241 104 201 q 86 325 86 281 l 86 340 l 397 340 q 640 192 411 192 l 650 192 q 778 202 726 192 q 853 232 829 213 q 885 270 876 251 q 893 315 893 289 q 848 391 893 365 q 682 422 803 417 l 544 426 q 202 517 307 435 q 97 728 97 599 l 97 740 q 118 857 97 807 q 192 952 139 907 q 351 1022 246 997 q 611 1046 457 1046 l 658 1046 q 888 1027 790 1046 q 1039 979 985 1008 q 1126 908 1093 950 q 1168 827 1158 865 q 1178 743 1178 789 l 1178 728 l 871 728 q 859 766 868 750 q 828 801 850 782 q 758 831 806 821 q 639 842 710 842 l 625 842 q 447 819 496 842 q 399 750 399 796 q 442 681 399 706 q 599 651 485 657 l 742 646 q 968 617 876 640 q 1109 551 1060 593 q 1178 460 1158 510 q 1199 343 1199 410 l 1199 326 q 1188 232 1199 275 q 1144 140 1178 189 q 1054 59 1110 92 q 899 4 999 26 q 667 -18 800 -18 m 756 -389 l 604 -389 q 644 -272 635 -328 l 500 -272 l 500 -86 l 797 -86 l 797 -240 q 756 -389 797 -312 z "},"ș":{"ha":1024,"x_min":74,"x_max":949,"o":"m 522 -18 l 486 -18 q 299 2 379 -18 q 176 49 218 22 q 110 114 135 76 q 79 177 85 151 q 74 228 74 203 l 74 235 l 364 235 q 518 153 376 153 l 521 153 q 669 226 669 153 q 640 278 669 260 q 522 300 611 296 l 417 308 q 78 539 78 329 l 78 547 q 95 642 78 601 q 154 717 113 682 q 277 770 196 751 q 476 789 358 789 l 514 789 q 700 774 621 789 q 823 735 779 758 q 892 678 867 713 q 925 616 918 644 q 932 553 932 588 l 932 549 l 649 549 q 635 582 642 569 q 594 609 628 594 q 501 624 560 624 l 497 624 q 382 608 414 624 q 350 560 350 592 q 380 508 350 525 q 489 488 410 490 l 594 483 q 870 417 792 475 q 949 256 949 360 l 949 246 q 933 149 949 190 q 876 67 918 107 q 744 4 833 26 q 522 -18 656 -18 m 618 -389 l 467 -389 q 507 -272 497 -328 l 363 -272 l 363 -86 l 660 -86 l 660 -240 q 618 -389 660 -312 z "},"Ț":{"ha":1213,"x_min":64,"x_max":1149,"o":"m 464 0 l 464 797 l 64 797 l 64 1033 l 1149 1033 l 1149 797 l 749 797 l 749 0 l 464 0 m 713 -389 l 561 -389 q 601 -272 592 -328 l 457 -272 l 457 -86 l 754 -86 l 754 -240 q 713 -389 754 -312 z "},"ț":{"ha":742,"x_min":53,"x_max":667,"o":"m 667 207 l 667 0 l 421 0 q 273 53 325 0 q 221 208 221 106 l 221 576 l 53 576 l 53 771 l 221 771 l 221 1006 l 490 1006 l 490 771 l 667 771 l 667 576 l 490 576 l 490 293 q 507 226 490 246 q 571 207 524 207 l 667 207 m 576 -389 l 425 -389 q 465 -272 456 -328 l 321 -272 l 321 -86 l 618 -86 l 618 -240 q 576 -389 618 -312 z "},"ȷ":{"ha":501,"x_min":-22,"x_max":386,"o":"m -22 -64 l 61 -64 q 103 -50 92 -64 q 115 -3 115 -36 l 115 771 l 386 771 l 386 -68 q 225 -265 386 -265 l -22 -265 l -22 -64 z "},"ʼ":{"ha":497,"x_min":88,"x_max":410,"o":"m 340 607 l 158 607 q 233 803 217 710 l 88 803 l 88 1033 l 410 1033 l 410 856 q 340 607 410 746 z "},"ˆ":{"ha":972,"x_min":136,"x_max":836,"o":"m 646 1064 l 836 856 l 565 856 l 483 946 l 401 856 l 136 856 l 325 1064 l 646 1064 z "},"ˇ":{"ha":972,"x_min":136,"x_max":836,"o":"m 326 857 l 136 1064 l 407 1064 l 489 975 l 571 1064 l 836 1064 l 647 857 l 326 857 z "},"˘":{"ha":972,"x_min":207,"x_max":765,"o":"m 508 850 l 467 850 q 334 874 389 850 q 253 935 279 897 q 217 1006 228 972 q 207 1072 207 1039 l 207 1076 l 411 1076 q 415 1049 411 1063 q 438 1019 419 1035 q 489 1003 457 1003 q 537 1019 518 1003 q 560 1049 556 1035 q 564 1076 564 1064 l 765 1076 l 765 1072 q 758 1022 765 1049 q 733 963 751 994 q 686 908 714 932 q 612 867 658 883 q 508 850 565 850 z "},"˙":{"ha":972,"x_min":347,"x_max":624,"o":"m 624 1051 l 624 857 l 347 857 l 347 1051 l 624 1051 z "},"˚":{"ha":972,"x_min":251,"x_max":719,"o":"m 251 1029 q 307 1158 251 1108 q 485 1208 363 1208 q 663 1158 607 1208 q 719 1029 719 1108 q 664 899 719 949 q 485 849 608 849 q 306 899 361 849 q 251 1029 251 949 m 392 1029 q 415 974 392 996 q 485 951 439 951 q 555 974 531 951 q 579 1029 579 996 q 556 1083 579 1063 q 485 1104 532 1104 q 392 1029 392 1104 z "},"˛":{"ha":974,"x_min":297,"x_max":676,"o":"m 676 -268 l 479 -268 q 297 -162 297 -268 l 297 -160 q 358 -69 297 -106 q 543 0 419 -33 l 661 0 q 584 -54 607 -33 q 561 -97 561 -75 q 614 -132 561 -132 l 676 -132 l 676 -268 z "},"˜":{"ha":972,"x_min":226,"x_max":746,"o":"m 746 1107 l 746 997 q 719 902 746 943 q 626 861 692 861 l 624 861 q 471 910 567 861 q 401 939 414 939 q 382 908 382 939 l 382 853 l 226 853 l 226 963 q 253 1058 226 1017 q 346 1099 281 1099 l 349 1099 q 501 1050 406 1099 q 571 1021 558 1021 q 590 1051 590 1021 l 590 1107 l 746 1107 z "},"˝":{"ha":972,"x_min":146,"x_max":825,"o":"m 481 857 l 571 1064 l 825 1064 l 728 857 l 481 857 m 146 857 l 232 1064 l 485 1064 l 396 857 l 146 857 z "},"Ё":{"ha":1183,"x_min":128,"x_max":1082,"o":"m 128 1033 l 1074 1033 l 1074 808 l 410 808 l 410 640 l 1053 640 l 1053 407 l 410 407 l 410 228 l 1082 228 l 1082 0 l 128 0 l 128 1033 m 560 1313 l 560 1118 l 290 1118 l 290 1313 l 560 1313 m 915 1313 l 915 1118 l 646 1118 l 646 1313 l 915 1313 z "},"Ђ":{"ha":1451,"x_min":28,"x_max":1368,"o":"m 1368 240 l 1368 229 q 1236 -66 1368 36 q 869 -168 1104 -168 l 808 -168 l 808 75 l 856 75 q 1069 231 1069 75 l 1069 240 q 800 396 1069 396 l 785 396 q 593 376 671 396 l 593 0 l 307 0 l 307 797 l 28 797 l 28 1033 l 954 1033 l 954 797 l 593 797 l 593 604 q 836 624 700 624 l 868 624 q 1235 525 1101 624 q 1368 240 1368 426 z "},"Ѓ":{"ha":1024,"x_min":128,"x_max":989,"o":"m 128 0 l 128 1033 l 989 1033 l 989 806 l 414 806 l 414 0 l 128 0 m 690 1118 l 403 1118 l 529 1324 l 838 1324 l 690 1118 z "},"Є":{"ha":1399,"x_min":82,"x_max":1321,"o":"m 1321 404 l 1321 400 q 1291 254 1321 324 q 1198 122 1261 185 q 1017 22 1135 60 q 743 -15 900 -15 l 679 -15 q 436 18 543 -15 q 265 104 329 51 q 157 227 200 157 q 98 364 114 297 q 82 499 82 431 l 82 540 q 98 676 82 610 q 157 812 114 743 q 265 932 200 881 q 436 1016 329 983 q 679 1049 543 1049 l 743 1049 q 1015 1013 899 1049 q 1196 917 1132 978 q 1290 788 1260 857 q 1321 640 1321 718 l 1321 638 l 1026 638 q 1019 668 1025 651 q 992 714 1013 685 q 939 765 971 743 q 847 803 907 786 q 711 819 788 819 q 388 633 447 819 l 858 633 l 858 414 l 388 414 q 496 272 415 328 q 713 215 576 215 q 850 232 790 215 q 941 272 910 249 q 993 324 972 294 q 1019 372 1014 354 q 1026 404 1025 389 l 1321 404 z "},"Ѕ":{"ha":1285,"x_min":86,"x_max":1199,"o":"m 667 -18 l 626 -18 q 385 6 488 -18 q 226 66 282 31 q 138 151 171 101 q 95 241 104 201 q 86 325 86 281 l 86 340 l 397 340 q 640 192 411 192 l 650 192 q 778 202 726 192 q 853 232 829 213 q 885 270 876 251 q 893 315 893 289 q 848 391 893 365 q 682 422 803 417 l 544 426 q 202 517 307 435 q 97 728 97 599 l 97 740 q 118 857 97 807 q 192 952 139 907 q 351 1022 246 997 q 611 1046 457 1046 l 658 1046 q 888 1027 790 1046 q 1039 979 985 1008 q 1126 908 1093 950 q 1168 827 1158 865 q 1178 743 1178 789 l 1178 728 l 871 728 q 859 766 868 750 q 828 801 850 782 q 758 831 806 821 q 639 842 710 842 l 625 842 q 447 819 496 842 q 399 750 399 796 q 442 681 399 706 q 599 651 485 657 l 742 646 q 968 617 876 640 q 1109 551 1060 593 q 1178 460 1158 510 q 1199 343 1199 410 l 1199 326 q 1188 232 1199 275 q 1144 140 1178 189 q 1054 59 1110 92 q 899 4 999 26 q 667 -18 800 -18 z "},"І":{"ha":542,"x_min":128,"x_max":414,"o":"m 414 1033 l 414 0 l 128 0 l 128 1033 l 414 1033 z "},"Ї":{"ha":542,"x_min":-42,"x_max":583,"o":"m 414 1033 l 414 0 l 128 0 l 128 1033 l 414 1033 m 228 1313 l 228 1118 l -42 1118 l -42 1313 l 228 1313 m 583 1313 l 583 1118 l 314 1118 l 314 1313 l 583 1313 z "},"Ј":{"ha":1206,"x_min":57,"x_max":1085,"o":"m 589 -17 l 543 -17 q 339 15 428 -17 q 198 93 250 46 q 113 203 146 140 q 68 322 79 267 q 57 435 57 378 l 57 443 l 353 443 q 363 378 354 410 q 392 310 372 347 q 456 250 413 272 q 563 228 500 228 l 568 228 q 799 481 799 228 l 799 1033 l 1085 1033 l 1085 481 q 1074 356 1085 417 q 1031 226 1064 296 q 947 104 999 156 q 802 18 894 53 q 589 -17 710 -17 z "},"Љ":{"ha":2065,"x_min":49,"x_max":2017,"o":"m 194 325 q 222 521 215 381 q 229 1033 229 661 l 1175 1033 l 1175 700 l 1596 700 q 2017 360 2017 700 l 2017 344 q 1596 0 2017 0 l 889 0 l 889 806 l 501 806 q 451 196 501 346 q 419 122 438 153 q 367 62 400 92 q 280 16 335 32 q 151 0 225 0 l 49 0 l 49 243 l 58 243 q 194 325 163 243 m 1175 228 l 1574 228 q 1683 260 1646 228 q 1719 347 1719 292 l 1719 357 q 1683 442 1719 411 q 1574 472 1646 472 l 1175 472 l 1175 228 z "},"Њ":{"ha":2069,"x_min":128,"x_max":2021,"o":"m 893 0 l 893 438 l 414 438 l 414 0 l 128 0 l 128 1033 l 414 1033 l 414 672 l 893 672 l 893 1033 l 1179 1033 l 1179 672 l 1600 672 q 1924 586 1826 672 q 2021 346 2021 500 l 2021 331 q 1600 0 2021 0 l 893 0 m 1179 444 l 1179 228 l 1578 228 q 1687 256 1650 228 q 1724 333 1724 285 l 1724 343 q 1687 417 1724 390 q 1578 444 1650 444 l 1179 444 z "},"Ћ":{"ha":1453,"x_min":28,"x_max":1356,"o":"m 828 396 l 813 396 q 593 367 694 396 l 593 0 l 307 0 l 307 797 l 28 797 l 28 1033 l 954 1033 l 954 797 l 593 797 l 593 593 q 844 624 735 624 l 872 624 q 1036 613 965 624 q 1169 574 1107 603 q 1271 499 1232 546 q 1333 377 1310 451 q 1356 201 1356 303 l 1356 0 l 1069 0 l 1069 185 q 1015 352 1069 308 q 828 396 960 396 z "},"Ќ":{"ha":1282,"x_min":128,"x_max":1285,"o":"m 414 0 l 128 0 l 128 1033 l 414 1033 l 414 608 l 897 1033 l 1261 1033 l 717 560 l 1285 0 l 911 0 l 414 486 l 414 0 m 785 1118 l 497 1118 l 624 1324 l 932 1324 l 785 1118 z "},"Ў":{"ha":1281,"x_min":-3,"x_max":1283,"o":"m 1283 1033 l 824 229 q 672 53 751 106 q 443 0 592 0 l 265 0 l 265 242 l 444 242 q 469 260 469 242 l 469 261 q 450 308 469 278 l -3 1033 l 329 1033 l 664 478 l 968 1033 l 1283 1033 m 678 1111 l 636 1111 q 503 1135 558 1111 q 421 1196 447 1158 q 383 1267 394 1233 q 372 1333 372 1301 l 372 1338 l 575 1338 q 658 1264 589 1264 q 738 1338 724 1264 l 939 1338 l 939 1333 q 926 1267 939 1303 q 885 1196 913 1232 q 803 1135 857 1160 q 678 1111 749 1111 z "},"Џ":{"ha":1326,"x_min":128,"x_max":1199,"o":"m 1199 1033 l 1199 0 l 799 0 l 799 -174 l 528 -174 l 528 0 l 128 0 l 128 1033 l 414 1033 l 414 228 l 913 228 l 913 1033 l 1199 1033 z "},"А":{"ha":1351,"x_min":15,"x_max":1336,"o":"m 849 404 l 661 825 l 479 404 l 849 404 m 1029 0 l 944 192 l 386 192 l 303 0 l 15 0 l 474 1033 l 857 1033 l 1336 0 l 1029 0 z "},"Б":{"ha":1339,"x_min":128,"x_max":1269,"o":"m 128 0 l 128 1033 l 1194 1033 l 1194 806 l 414 806 l 414 672 l 849 672 q 1172 586 1075 672 q 1269 346 1269 500 l 1269 331 q 849 0 1269 0 l 128 0 m 414 228 l 826 228 q 935 256 899 228 q 972 333 972 285 l 972 343 q 935 417 972 390 q 826 444 899 444 l 414 444 l 414 228 z "},"В":{"ha":1375,"x_min":128,"x_max":1303,"o":"m 128 0 l 128 1033 l 882 1033 q 1063 1012 988 1033 q 1178 953 1139 990 q 1235 876 1218 917 q 1251 789 1251 836 l 1251 774 q 1192 632 1251 685 q 1061 569 1132 579 q 1233 491 1163 553 q 1303 314 1303 429 l 1303 299 q 1283 192 1303 242 q 1220 98 1264 143 q 1091 26 1176 53 q 886 0 1006 0 l 128 0 m 840 818 l 414 818 l 414 633 l 840 633 q 953 724 953 633 l 953 726 q 840 818 953 818 m 863 431 l 414 431 l 414 226 l 863 226 q 962 256 932 226 q 992 331 992 286 l 992 336 q 863 431 992 431 z "},"Г":{"ha":1024,"x_min":128,"x_max":989,"o":"m 128 0 l 128 1033 l 989 1033 l 989 806 l 414 806 l 414 0 l 128 0 z "},"Д":{"ha":1428,"x_min":21,"x_max":1393,"o":"m 21 228 l 125 228 q 212 513 183 333 q 240 1033 240 692 l 1226 1033 l 1226 228 l 1393 228 l 1393 -174 l 1121 -174 l 1121 0 l 293 0 l 293 -174 l 21 -174 l 21 228 m 415 228 l 940 228 l 940 806 l 513 806 q 415 228 513 425 z "},"Е":{"ha":1183,"x_min":128,"x_max":1082,"o":"m 128 1033 l 1074 1033 l 1074 808 l 410 808 l 410 640 l 1053 640 l 1053 407 l 410 407 l 410 228 l 1082 228 l 1082 0 l 128 0 l 128 1033 z "},"Ж":{"ha":1849,"x_min":-7,"x_max":1856,"o":"m 776 0 l 776 456 l 349 0 l -7 0 l 507 547 l 0 1033 l 363 1033 l 776 638 l 776 1033 l 1063 1033 l 1063 638 l 1476 1033 l 1832 1033 l 1339 560 l 1856 0 l 1490 0 l 1063 456 l 1063 0 l 776 0 z "},"З":{"ha":1321,"x_min":78,"x_max":1256,"o":"m 1256 311 l 1256 297 q 689 -18 1256 -18 l 656 -18 q 440 1 539 -18 q 258 60 342 19 q 126 174 174 100 q 78 347 78 247 l 78 364 l 383 364 q 463 231 383 271 q 704 192 543 192 q 958 321 958 192 q 914 406 958 379 q 769 432 869 432 l 471 432 l 471 636 l 754 636 q 926 726 926 636 q 867 816 926 790 q 669 842 808 842 q 392 697 397 842 l 86 697 l 86 718 q 131 872 86 807 q 257 974 176 938 q 433 1028 338 1011 q 642 1046 528 1046 l 686 1046 q 1086 980 949 1046 q 1224 785 1224 914 l 1224 775 q 1025 550 1224 603 q 1188 471 1121 531 q 1256 311 1256 411 z "},"И":{"ha":1432,"x_min":128,"x_max":1304,"o":"m 1018 0 l 1018 694 l 414 0 l 128 0 l 128 1033 l 414 1033 l 414 339 l 1018 1033 l 1304 1033 l 1304 0 l 1018 0 z "},"Й":{"ha":1432,"x_min":128,"x_max":1304,"o":"m 1018 0 l 1018 694 l 414 0 l 128 0 l 128 1033 l 414 1033 l 414 339 l 1018 1033 l 1304 1033 l 1304 0 l 1018 0 m 726 1111 l 685 1111 q 551 1135 607 1111 q 469 1196 496 1158 q 432 1267 443 1233 q 421 1333 421 1301 l 421 1338 l 624 1338 q 707 1264 638 1264 q 786 1338 772 1264 l 988 1338 l 988 1333 q 974 1267 988 1303 q 933 1196 961 1232 q 851 1135 906 1160 q 726 1111 797 1111 z "},"К":{"ha":1282,"x_min":128,"x_max":1285,"o":"m 911 0 l 414 486 l 414 0 l 128 0 l 128 1033 l 414 1033 l 414 608 l 897 1033 l 1261 1033 l 717 560 l 1285 0 l 911 0 z "},"Л":{"ha":1358,"x_min":49,"x_max":1231,"o":"m 944 0 l 944 806 l 500 806 q 450 196 500 346 q 417 122 436 153 q 366 62 399 92 q 279 16 333 32 q 151 0 225 0 l 49 0 l 49 243 l 58 243 q 194 325 163 243 q 222 510 215 381 q 229 1033 229 639 l 1231 1033 l 1231 0 l 944 0 z "},"М":{"ha":1661,"x_min":128,"x_max":1533,"o":"m 128 0 l 128 1033 l 508 1033 l 838 333 l 1176 1033 l 1533 1033 l 1533 0 l 1254 0 l 1254 676 l 940 0 l 717 0 l 403 676 l 403 0 l 128 0 z "},"Н":{"ha":1404,"x_min":128,"x_max":1276,"o":"m 990 0 l 990 415 l 414 415 l 414 0 l 128 0 l 128 1033 l 414 1033 l 414 650 l 990 650 l 990 1033 l 1276 1033 l 1276 0 l 990 0 z "},"О":{"ha":1467,"x_min":82,"x_max":1385,"o":"m 703 1050 l 764 1050 q 1013 1018 903 1050 q 1192 936 1124 986 q 1305 817 1260 886 q 1367 681 1350 749 q 1385 540 1385 613 l 1385 499 q 1367 360 1385 428 q 1305 222 1350 292 q 1192 100 1260 151 q 1013 16 1124 49 q 764 -17 903 -17 l 703 -17 q 453 16 564 -17 q 275 100 343 49 q 162 222 207 151 q 99 360 117 292 q 82 499 82 428 l 82 540 q 99 680 82 613 q 162 816 117 747 q 275 935 207 885 q 453 1018 343 986 q 703 1050 564 1050 m 1088 510 l 1088 529 q 1072 628 1088 582 q 1021 719 1057 675 q 911 788 985 763 q 733 814 838 814 q 557 788 631 814 q 447 719 483 763 q 394 628 410 675 q 379 529 379 582 l 379 510 q 395 411 379 458 q 449 319 411 364 q 559 247 486 274 q 733 221 632 221 q 910 247 836 221 q 1020 319 983 274 q 1072 410 1057 364 q 1088 510 1088 457 z "},"П":{"ha":1326,"x_min":128,"x_max":1199,"o":"m 128 0 l 128 1033 l 1199 1033 l 1199 0 l 913 0 l 913 806 l 414 806 l 414 0 l 128 0 z "},"Р":{"ha":1328,"x_min":128,"x_max":1256,"o":"m 828 331 l 414 331 l 414 0 l 128 0 l 128 1033 l 828 1033 q 1157 943 1058 1033 q 1256 690 1256 853 l 1256 675 q 828 331 1256 331 m 414 803 l 414 561 l 807 561 q 958 679 958 561 l 958 685 q 807 803 958 803 l 414 803 z "},"С":{"ha":1399,"x_min":82,"x_max":1321,"o":"m 743 -15 l 679 -15 q 436 18 543 -15 q 265 104 329 51 q 157 227 200 157 q 98 364 114 297 q 82 499 82 431 l 82 540 q 98 676 82 610 q 157 812 114 743 q 265 932 200 881 q 436 1016 329 983 q 679 1049 543 1049 l 743 1049 q 1015 1013 899 1049 q 1196 917 1132 978 q 1290 788 1260 857 q 1321 640 1321 718 l 1321 638 l 1026 638 q 1019 667 1025 651 q 992 711 1013 683 q 939 760 971 739 q 847 797 907 781 q 711 813 788 813 q 458 732 536 813 q 379 532 379 651 l 379 513 q 397 413 379 461 q 451 320 414 364 q 555 249 488 276 q 713 222 622 222 q 850 238 790 222 q 941 276 910 254 q 993 326 972 297 q 1019 372 1014 356 q 1026 404 1025 389 l 1321 404 l 1321 400 q 1291 254 1321 324 q 1198 122 1261 185 q 1017 22 1135 60 q 743 -15 900 -15 z "},"Т":{"ha":1213,"x_min":64,"x_max":1149,"o":"m 464 0 l 464 797 l 64 797 l 64 1033 l 1149 1033 l 1149 797 l 749 797 l 749 0 l 464 0 z "},"У":{"ha":1281,"x_min":-3,"x_max":1283,"o":"m 1283 1033 l 824 229 q 672 53 751 106 q 443 0 592 0 l 265 0 l 265 242 l 444 242 q 469 260 469 242 l 469 261 q 450 308 469 278 l -3 1033 l 329 1033 l 664 478 l 968 1033 l 1283 1033 z "},"Ф":{"ha":1736,"x_min":49,"x_max":1688,"o":"m 725 940 l 725 1047 l 1011 1047 l 1011 940 l 1201 940 q 1555 842 1422 940 q 1688 538 1688 744 l 1688 526 q 1552 211 1688 317 q 1199 106 1417 106 l 1011 106 l 1011 -14 l 725 -14 l 725 106 l 538 106 q 184 211 319 106 q 49 526 49 317 l 49 538 q 181 842 49 744 q 535 940 314 940 l 725 940 m 725 714 l 594 714 q 346 538 346 714 l 346 526 q 408 378 346 424 q 594 332 471 332 l 725 332 l 725 714 m 1011 714 l 1011 332 l 1142 332 q 1328 378 1265 332 q 1390 526 1390 424 l 1390 538 q 1142 714 1390 714 l 1011 714 z "},"Х":{"ha":1306,"x_min":14,"x_max":1292,"o":"m 946 0 l 650 336 l 350 0 l 14 0 l 469 525 l 21 1033 l 383 1033 l 664 713 l 943 1033 l 1272 1033 l 838 528 l 1292 0 l 946 0 z "},"Ц":{"ha":1400,"x_min":128,"x_max":1365,"o":"m 1093 -174 l 1093 0 l 128 0 l 128 1033 l 414 1033 l 414 228 l 913 228 l 913 1033 l 1199 1033 l 1199 228 l 1365 228 l 1365 -174 l 1093 -174 z "},"Ч":{"ha":1300,"x_min":76,"x_max":1172,"o":"m 886 0 l 886 383 q 632 365 742 365 q 445 374 524 365 q 293 406 367 382 q 174 473 219 431 q 103 585 129 515 q 76 751 76 654 l 76 1033 l 363 1033 l 363 799 q 431 634 363 676 q 671 592 499 592 q 886 607 797 592 l 886 1033 l 1172 1033 l 1172 0 l 886 0 z "},"Ш":{"ha":1792,"x_min":128,"x_max":1664,"o":"m 128 0 l 128 1033 l 414 1033 l 414 228 l 753 228 l 753 1033 l 1039 1033 l 1039 228 l 1378 228 l 1378 1033 l 1664 1033 l 1664 0 l 128 0 z "},"Щ":{"ha":1865,"x_min":128,"x_max":1831,"o":"m 128 0 l 128 1033 l 414 1033 l 414 228 l 753 228 l 753 1033 l 1039 1033 l 1039 228 l 1378 228 l 1378 1033 l 1664 1033 l 1664 228 l 1831 228 l 1831 -174 l 1558 -174 l 1558 0 l 128 0 z "},"Ъ":{"ha":1504,"x_min":28,"x_max":1456,"o":"m 614 1033 l 614 700 l 1035 700 q 1456 360 1456 700 l 1456 344 q 1035 0 1456 0 l 328 0 l 328 806 l 28 806 l 28 1033 l 614 1033 m 614 228 l 1013 228 q 1122 260 1085 228 q 1158 347 1158 292 l 1158 357 q 1122 442 1158 411 q 1013 472 1085 472 l 614 472 l 614 228 z "},"Ы":{"ha":1785,"x_min":128,"x_max":1657,"o":"m 414 1033 l 414 700 l 835 700 q 1256 360 1256 700 l 1256 344 q 835 0 1256 0 l 128 0 l 128 1033 l 414 1033 m 414 228 l 813 228 q 922 260 885 228 q 958 347 958 292 l 958 357 q 922 442 958 411 q 813 472 885 472 l 414 472 l 414 228 m 1657 1033 l 1657 0 l 1371 0 l 1371 1033 l 1657 1033 z "},"Ь":{"ha":1304,"x_min":128,"x_max":1256,"o":"m 414 1033 l 414 700 l 835 700 q 1256 360 1256 700 l 1256 344 q 835 0 1256 0 l 128 0 l 128 1033 l 414 1033 m 414 228 l 813 228 q 922 260 885 228 q 958 347 958 292 l 958 357 q 922 442 958 411 q 813 472 885 472 l 414 472 l 414 228 z "},"Э":{"ha":1399,"x_min":78,"x_max":1317,"o":"m 1317 540 l 1317 499 q 1301 364 1317 431 q 1242 227 1285 297 q 1134 104 1199 157 q 963 18 1069 51 q 719 -15 856 -15 l 656 -15 q 381 22 499 -15 q 201 122 264 60 q 108 254 138 185 q 78 400 78 324 l 78 404 l 372 404 q 379 372 374 389 q 406 324 385 354 q 458 272 426 294 q 549 232 489 249 q 686 215 608 215 q 903 272 822 215 q 1011 414 983 328 l 540 414 l 540 633 l 1011 633 q 688 819 951 819 q 551 803 611 819 q 460 765 492 786 q 407 714 428 743 q 380 668 386 685 q 372 638 374 651 l 78 638 l 78 640 q 108 788 78 718 q 203 917 139 857 q 383 1013 267 978 q 656 1049 500 1049 l 719 1049 q 963 1016 856 1049 q 1134 932 1069 983 q 1242 812 1199 881 q 1301 676 1285 743 q 1317 540 1317 610 z "},"Ю":{"ha":1925,"x_min":128,"x_max":1843,"o":"m 1843 540 l 1843 499 q 1826 360 1843 428 q 1765 222 1808 292 q 1654 100 1721 151 q 1480 16 1588 49 q 1236 -17 1372 -17 l 1175 -17 q 912 21 1026 -17 q 729 123 797 58 q 624 260 661 188 q 575 415 586 332 l 414 415 l 414 0 l 128 0 l 128 1033 l 414 1033 l 414 650 l 579 650 q 635 797 596 729 q 742 924 674 865 q 921 1016 810 982 q 1175 1050 1032 1050 l 1236 1050 q 1480 1018 1372 1050 q 1654 936 1588 986 q 1765 817 1721 886 q 1826 681 1808 749 q 1843 540 1843 613 m 1546 510 l 1546 529 q 1531 629 1546 583 q 1482 719 1517 675 q 1376 788 1447 763 q 1206 814 1306 814 q 1036 788 1107 814 q 931 719 965 763 q 881 628 896 675 q 865 529 865 582 l 865 510 q 881 411 865 458 q 932 319 896 364 q 1038 247 968 274 q 1206 221 1108 221 q 1376 247 1306 221 q 1481 319 1446 274 q 1531 410 1517 364 q 1546 510 1546 457 z "},"Я":{"ha":1364,"x_min":49,"x_max":1236,"o":"m 950 351 l 732 351 l 396 0 l 49 0 l 417 383 q 103 688 103 426 l 103 701 q 215 941 103 849 q 538 1033 328 1033 l 1236 1033 l 1236 0 l 950 0 l 950 351 m 950 581 l 950 806 l 547 806 q 403 696 403 806 l 403 692 q 547 581 403 581 l 950 581 z "},"а":{"ha":1088,"x_min":74,"x_max":1046,"o":"m 476 154 q 636 206 583 154 q 689 313 689 257 l 689 372 q 519 336 654 358 q 383 301 419 319 q 347 242 347 282 l 347 239 q 476 154 347 154 m 697 107 q 400 -15 596 -15 l 378 -15 q 150 55 226 -15 q 74 229 74 125 l 74 235 q 152 397 74 339 q 419 472 231 456 l 631 490 q 676 505 663 493 q 689 540 689 517 q 681 576 689 563 q 635 603 674 590 q 528 615 597 615 q 372 531 372 615 l 94 531 l 94 533 q 100 590 94 563 q 130 656 106 617 q 195 722 154 694 q 316 769 236 749 q 504 789 396 789 l 547 789 q 736 771 657 789 q 856 728 815 753 q 919 664 896 703 q 948 597 943 625 q 953 529 953 568 l 953 275 q 965 222 953 236 q 1017 207 978 207 l 1046 207 l 1046 0 l 826 0 q 739 31 771 0 q 697 107 707 63 z "},"б":{"ha":1149,"x_min":74,"x_max":1075,"o":"m 1075 376 l 1075 358 q 1038 178 1075 254 q 932 60 1000 101 q 781 -1 864 18 q 593 -21 697 -21 l 565 -21 q 74 451 74 -21 l 74 533 q 206 915 74 803 q 619 1026 339 1026 l 682 1026 q 758 1032 742 1026 q 776 1051 774 1038 l 1042 1051 q 986 874 1042 928 q 792 821 931 821 l 619 821 q 406 773 471 821 q 339 618 342 725 q 689 742 458 742 l 697 742 q 834 722 769 742 q 954 662 899 703 q 1042 547 1010 621 q 1075 376 1075 474 m 568 182 l 583 182 q 738 230 679 182 q 796 369 796 278 q 738 505 796 458 q 585 551 679 551 l 568 551 q 353 368 353 551 q 410 228 353 275 q 568 182 467 182 z "},"в":{"ha":1110,"x_min":113,"x_max":1033,"o":"m 749 0 l 113 0 l 113 771 l 721 771 q 932 724 856 771 q 1008 586 1008 676 l 1008 579 q 967 465 1008 508 q 854 411 926 422 q 981 352 929 403 q 1033 222 1033 301 l 1033 217 q 749 0 1033 0 m 383 464 l 632 464 q 731 538 731 464 l 731 544 q 632 615 731 615 l 383 615 l 383 464 m 383 156 l 643 156 q 756 233 756 156 l 756 244 q 643 324 756 324 l 383 324 l 383 156 z "},"г":{"ha":819,"x_min":113,"x_max":785,"o":"m 113 0 l 113 771 l 785 771 l 785 565 l 383 565 l 383 0 l 113 0 z "},"д":{"ha":1213,"x_min":49,"x_max":1164,"o":"m 49 -164 l 49 206 l 142 206 q 181 355 167 256 q 201 538 196 454 q 210 771 206 622 l 1025 771 l 1025 206 l 1164 206 l 1164 -164 l 907 -164 l 907 0 l 306 0 l 306 -164 l 49 -164 m 397 206 l 754 206 l 754 565 l 453 565 q 397 206 443 338 z "},"е":{"ha":1126,"x_min":75,"x_max":1053,"o":"m 561 611 q 354 474 378 611 l 763 474 q 561 611 763 611 m 768 240 l 1050 240 q 1042 188 1050 215 q 1006 122 1035 161 q 932 54 978 83 q 800 3 886 25 q 601 -18 714 -18 l 550 -18 q 355 6 440 -18 q 218 67 269 29 q 133 157 167 104 q 88 263 100 210 q 75 375 75 315 l 75 394 q 95 531 75 467 q 163 655 115 594 q 303 751 210 715 q 526 788 396 788 l 588 788 q 787 763 701 788 q 922 697 872 738 q 1002 598 972 657 q 1042 481 1032 539 q 1053 353 1053 424 l 1053 328 l 351 328 q 585 167 372 167 q 628 169 607 167 q 664 174 649 171 q 692 181 679 176 q 715 189 706 185 q 733 199 724 193 q 746 209 742 206 q 755 219 750 213 q 761 228 760 225 q 765 236 763 231 l 768 240 z "},"ж":{"ha":1475,"x_min":0,"x_max":1475,"o":"m 596 0 l 596 340 l 310 0 l 0 0 l 349 413 l 15 771 l 335 771 l 596 478 l 596 771 l 867 771 l 867 478 l 1128 771 l 1440 771 l 1118 425 l 1475 0 l 1153 0 l 867 340 l 867 0 l 596 0 z "},"з":{"ha":1054,"x_min":74,"x_max":978,"o":"m 978 228 l 978 219 q 553 -21 978 -21 l 528 -21 q 187 55 300 -21 q 74 257 74 131 l 74 268 l 364 268 q 416 178 367 207 q 542 150 465 150 q 699 242 699 150 l 699 246 q 669 301 699 286 q 576 317 639 317 l 393 317 l 393 482 l 576 482 q 674 550 674 482 l 674 554 q 535 624 674 624 q 371 544 376 624 l 81 544 l 81 549 q 203 730 81 668 q 525 792 326 792 l 547 792 q 953 585 953 792 l 953 579 q 907 460 953 501 q 800 403 861 418 q 978 228 978 368 z "},"и":{"ha":1146,"x_min":113,"x_max":1033,"o":"m 763 467 l 390 0 l 113 0 l 113 771 l 383 771 l 383 304 l 756 771 l 1033 771 l 1033 0 l 763 0 l 763 467 z "},"й":{"ha":1146,"x_min":113,"x_max":1033,"o":"m 763 467 l 390 0 l 113 0 l 113 771 l 383 771 l 383 304 l 756 771 l 1033 771 l 1033 0 l 763 0 l 763 467 m 590 850 l 549 850 q 416 874 471 850 q 335 935 361 897 q 299 1006 310 972 q 289 1072 289 1039 l 289 1076 l 493 1076 q 497 1049 493 1063 q 520 1019 501 1035 q 571 1003 539 1003 q 619 1019 600 1003 q 642 1049 638 1035 q 646 1076 646 1064 l 847 1076 l 847 1072 q 840 1022 847 1049 q 815 963 833 994 q 768 908 796 932 q 694 867 740 883 q 590 850 647 850 z "},"к":{"ha":1008,"x_min":115,"x_max":1008,"o":"m 686 0 l 386 357 l 386 0 l 115 0 l 115 771 l 386 771 l 386 463 l 661 771 l 974 771 l 651 425 l 1008 0 l 686 0 z "},"л":{"ha":1128,"x_min":49,"x_max":1015,"o":"m 744 0 l 744 565 l 439 565 q 406 172 439 261 q 385 124 394 142 q 356 79 376 106 q 309 38 335 53 q 238 11 283 22 q 133 0 192 0 l 49 0 l 49 201 l 65 201 q 130 220 106 201 q 165 289 154 239 q 181 771 181 371 l 1015 771 l 1015 0 l 744 0 z "},"м":{"ha":1424,"x_min":113,"x_max":1321,"o":"m 363 519 l 363 0 l 113 0 l 113 771 l 494 771 l 724 279 l 953 771 l 1321 771 l 1321 0 l 1050 0 l 1050 519 l 810 0 l 603 0 l 363 519 z "},"н":{"ha":1144,"x_min":113,"x_max":1032,"o":"m 383 0 l 113 0 l 113 771 l 383 771 l 383 490 l 761 490 l 761 771 l 1032 771 l 1032 0 l 761 0 l 761 285 l 383 285 l 383 0 z "},"о":{"ha":1149,"x_min":74,"x_max":1075,"o":"m 596 -21 l 553 -21 q 344 7 435 -21 q 204 76 254 35 q 123 174 154 118 q 83 277 92 231 q 74 372 74 324 l 74 392 q 83 488 74 440 q 123 592 92 535 q 204 691 154 649 q 344 763 254 733 q 551 792 433 792 l 597 792 q 810 763 719 792 q 951 692 901 733 q 1029 592 1000 650 q 1067 488 1058 533 q 1075 393 1075 442 l 1075 371 q 1067 276 1075 321 q 1029 174 1058 231 q 951 76 1000 117 q 810 8 901 36 q 596 -21 718 -21 m 567 182 l 582 182 q 687 202 643 182 q 753 255 731 222 q 786 321 776 288 q 796 389 796 354 q 786 458 796 425 q 753 524 776 492 q 687 574 731 556 q 582 593 643 593 l 567 593 q 458 574 503 593 q 392 523 414 556 q 362 458 371 490 q 353 389 353 426 q 362 320 353 353 q 392 254 371 288 q 459 201 414 221 q 567 182 504 182 z "},"п":{"ha":1117,"x_min":113,"x_max":1004,"o":"m 113 0 l 113 771 l 1004 771 l 1004 0 l 733 0 l 733 565 l 383 565 l 383 0 l 113 0 z "},"р":{"ha":1178,"x_min":115,"x_max":1101,"o":"m 821 385 l 821 389 q 812 455 821 424 q 781 517 803 486 q 716 567 760 549 q 613 585 672 585 l 599 585 q 436 526 488 585 q 385 389 385 468 l 385 385 q 436 249 385 308 q 599 189 488 189 l 613 189 q 716 208 672 189 q 781 258 760 226 q 812 320 803 289 q 821 385 821 351 m 115 -265 l 115 771 l 383 771 l 383 672 q 499 749 421 713 q 693 786 578 786 l 711 786 q 895 753 817 786 q 1017 662 974 719 q 1081 540 1061 604 q 1101 401 1101 475 l 1101 378 q 1089 272 1101 325 q 1047 167 1076 219 q 974 74 1018 114 q 863 10 931 35 q 710 -15 794 -15 l 690 -15 q 386 99 500 -15 l 386 -265 l 115 -265 z "},"с":{"ha":1113,"x_min":75,"x_max":1040,"o":"m 757 303 l 1040 303 q 1031 224 1040 263 q 992 139 1021 185 q 916 59 963 93 q 788 2 869 25 q 600 -21 706 -21 l 532 -21 q 338 7 422 -21 q 204 76 253 35 q 125 173 156 117 q 85 277 94 229 q 75 375 75 325 l 75 394 q 85 492 75 444 q 124 597 94 540 q 202 694 154 653 q 335 764 250 736 q 531 792 419 792 l 594 792 q 783 769 701 792 q 913 714 865 747 q 990 636 960 681 q 1030 553 1019 592 q 1040 478 1040 515 l 1040 476 l 757 476 q 747 505 754 490 q 722 542 740 519 q 663 580 703 565 q 567 594 622 594 l 553 594 q 400 535 444 594 q 356 392 356 476 l 356 390 q 403 242 356 304 q 558 181 451 181 l 572 181 q 653 192 618 181 q 708 218 689 203 q 738 252 726 233 q 753 283 750 271 q 757 303 757 296 z "},"т":{"ha":938,"x_min":35,"x_max":903,"o":"m 333 0 l 333 565 l 35 565 l 35 771 l 903 771 l 903 565 l 604 565 l 604 0 l 333 0 z "},"у":{"ha":1046,"x_min":25,"x_max":1021,"o":"m 171 -265 l 171 -72 l 340 -72 q 381 -40 381 -72 l 381 -39 q 356 36 381 -15 l 25 771 l 322 771 l 536 218 l 749 771 l 1021 771 l 668 -78 q 569 -221 626 -176 q 419 -265 513 -265 l 171 -265 z "},"ф":{"ha":1457,"x_min":74,"x_max":1383,"o":"m 904 -21 l 864 -21 l 864 -261 l 593 -261 l 593 -21 l 553 -21 q 339 8 431 -21 q 198 76 247 36 q 119 174 149 117 q 82 276 90 231 q 74 371 74 321 l 74 393 q 82 488 74 442 q 119 592 90 533 q 198 692 149 650 q 338 763 247 733 q 551 792 429 792 l 593 792 l 593 1033 l 864 1033 l 864 792 l 906 792 q 1119 763 1028 792 q 1259 692 1210 733 q 1338 592 1308 650 q 1375 488 1367 533 q 1383 393 1383 442 l 1383 371 q 1375 276 1383 321 q 1338 174 1367 231 q 1259 76 1308 117 q 1118 8 1210 36 q 904 -21 1026 -21 m 567 175 l 593 175 l 593 600 l 567 600 q 401 540 450 600 q 353 389 353 479 q 401 238 353 300 q 567 175 450 175 m 890 600 l 864 600 l 864 175 l 890 175 q 1056 238 1007 175 q 1104 389 1104 300 q 1056 539 1104 478 q 890 600 1007 600 z "},"х":{"ha":1044,"x_min":3,"x_max":1042,"o":"m 729 0 l 522 221 l 321 0 l 14 0 l 360 386 l 3 771 l 335 771 l 532 556 l 722 771 l 1021 771 l 689 392 l 1042 0 l 729 0 z "},"ц":{"ha":1192,"x_min":113,"x_max":1143,"o":"m 1143 206 l 1143 -164 l 886 -164 l 886 0 l 113 0 l 113 771 l 383 771 l 383 206 l 733 206 l 733 771 l 1004 771 l 1004 206 l 1143 206 z "},"ч":{"ha":1068,"x_min":63,"x_max":956,"o":"m 685 771 l 956 771 l 956 0 l 685 0 l 685 265 q 483 251 565 251 q 158 326 253 251 q 63 582 63 400 l 63 771 l 333 771 l 333 632 q 374 495 333 528 q 525 463 414 463 q 685 472 610 463 l 685 771 z "},"ш":{"ha":1515,"x_min":113,"x_max":1403,"o":"m 113 0 l 113 771 l 383 771 l 383 206 l 622 206 l 622 771 l 893 771 l 893 206 l 1132 206 l 1132 771 l 1403 771 l 1403 0 l 113 0 z "},"щ":{"ha":1590,"x_min":113,"x_max":1542,"o":"m 113 0 l 113 771 l 383 771 l 383 206 l 622 206 l 622 771 l 893 771 l 893 206 l 1132 206 l 1132 771 l 1403 771 l 1403 206 l 1542 206 l 1542 -164 l 1285 -164 l 1285 0 l 113 0 z "},"ъ":{"ha":1147,"x_min":35,"x_max":1099,"o":"m 35 565 l 35 771 l 521 771 l 521 550 l 732 550 q 1009 478 919 550 q 1099 286 1099 406 l 1099 269 q 732 0 1099 0 l 250 0 l 250 565 l 35 565 m 521 183 l 699 183 q 821 275 821 183 l 821 279 q 785 347 821 326 q 699 367 749 367 l 521 367 l 521 183 z "},"ы":{"ha":1443,"x_min":113,"x_max":1331,"o":"m 113 0 l 113 771 l 383 771 l 383 550 l 594 550 q 872 478 782 550 q 961 286 961 406 l 961 269 q 594 0 961 0 l 113 0 m 383 183 l 561 183 q 683 275 683 183 l 683 279 q 647 347 683 326 q 561 367 611 367 l 383 367 l 383 183 m 1331 771 l 1331 0 l 1060 0 l 1060 771 l 1331 771 z "},"ь":{"ha":1010,"x_min":113,"x_max":961,"o":"m 113 0 l 113 771 l 383 771 l 383 550 l 594 550 q 872 478 782 550 q 961 286 961 406 l 961 269 q 594 0 961 0 l 113 0 m 383 183 l 561 183 q 683 275 683 183 l 683 279 q 647 347 683 326 q 561 367 611 367 l 383 367 l 383 183 z "},"э":{"ha":1111,"x_min":72,"x_max":1038,"o":"m 1038 394 l 1038 375 q 1028 277 1038 325 q 988 173 1018 229 q 908 76 957 117 q 775 7 860 35 q 581 -21 690 -21 l 513 -21 q 325 2 407 -21 q 197 59 243 25 q 121 139 150 93 q 82 224 92 185 q 72 303 72 263 l 356 303 q 363 274 356 292 q 387 231 369 256 q 444 190 404 207 q 540 174 485 174 l 554 174 q 754 314 713 174 l 444 314 l 444 481 l 750 481 q 560 601 710 601 l 546 601 q 450 586 490 601 q 391 547 410 571 q 365 507 372 522 q 356 476 358 492 l 72 476 l 72 478 q 83 553 72 515 q 123 636 93 592 q 200 714 153 681 q 329 769 247 747 q 518 792 411 792 l 582 792 q 778 764 693 792 q 910 694 863 736 q 988 597 958 653 q 1028 492 1018 540 q 1038 394 1038 444 z "},"ю":{"ha":1538,"x_min":113,"x_max":1464,"o":"m 1464 393 l 1464 371 q 1456 276 1464 321 q 1419 174 1449 231 q 1343 76 1390 117 q 1207 8 1296 36 q 999 -21 1118 -21 l 956 -21 q 785 -2 861 -21 q 660 47 708 17 q 577 118 613 76 q 524 200 542 160 q 499 285 507 240 l 383 285 l 383 0 l 113 0 l 113 771 l 383 771 l 383 490 l 501 490 q 541 597 514 547 q 618 692 568 646 q 754 765 668 738 q 954 792 840 792 l 1000 792 q 1207 763 1118 792 q 1343 692 1296 733 q 1419 592 1390 650 q 1456 488 1449 533 q 1464 393 1464 442 m 969 182 l 985 182 q 1085 201 1043 182 q 1147 254 1126 221 q 1176 320 1168 288 q 1185 389 1185 353 q 1176 458 1185 426 q 1147 523 1168 490 q 1085 574 1126 556 q 985 593 1043 593 l 969 593 q 769 389 769 593 q 969 182 769 182 z "},"я":{"ha":1144,"x_min":49,"x_max":1032,"o":"m 761 258 l 579 258 l 354 0 l 49 0 l 300 288 q 144 363 199 307 q 90 507 90 419 l 90 524 q 173 701 90 632 q 397 771 256 771 l 1032 771 l 1032 0 l 761 0 l 761 258 m 761 593 l 471 593 q 361 518 361 593 l 361 513 q 472 435 361 435 l 761 435 l 761 593 z "},"ё":{"ha":1126,"x_min":75,"x_max":1053,"o":"m 561 611 q 354 474 378 611 l 763 474 q 561 611 763 611 m 768 240 l 1050 240 q 1042 188 1050 215 q 1006 122 1035 161 q 932 54 978 83 q 800 3 886 25 q 601 -18 714 -18 l 550 -18 q 355 6 440 -18 q 218 67 269 29 q 133 157 167 104 q 88 263 100 210 q 75 375 75 315 l 75 394 q 95 531 75 467 q 163 655 115 594 q 303 751 210 715 q 526 788 396 788 l 588 788 q 787 763 701 788 q 922 697 872 738 q 1002 598 972 657 q 1042 481 1032 539 q 1053 353 1053 424 l 1053 328 l 351 328 q 585 167 372 167 q 628 169 607 167 q 664 174 649 171 q 692 181 679 176 q 715 189 706 185 q 733 199 724 193 q 746 209 742 206 q 755 219 750 213 q 761 228 760 225 q 765 236 763 231 l 768 240 m 517 1051 l 517 857 l 251 857 l 251 1051 l 517 1051 m 865 1051 l 865 857 l 600 857 l 600 1051 l 865 1051 z "},"ђ":{"ha":1150,"x_min":-15,"x_max":1038,"o":"m 1038 500 l 1038 -68 q 876 -265 1038 -265 l 629 -265 l 629 -64 l 713 -64 q 755 -50 743 -64 q 767 -3 767 -36 l 767 401 q 721 526 767 475 q 582 576 675 576 q 438 522 490 576 q 386 392 386 468 l 386 0 l 115 0 l 115 858 l -15 858 l -15 979 l 115 979 l 115 1051 l 386 1051 l 386 979 l 757 979 l 757 858 l 386 858 l 386 650 q 442 706 410 679 q 546 760 475 732 q 696 789 617 789 l 710 789 q 953 702 868 789 q 1038 500 1038 615 z "},"ѓ":{"ha":819,"x_min":113,"x_max":785,"o":"m 113 0 l 113 771 l 785 771 l 785 565 l 383 565 l 383 0 l 113 0 m 296 857 l 418 1064 l 721 1064 l 567 857 l 296 857 z "},"є":{"ha":1113,"x_min":75,"x_max":1040,"o":"m 757 303 l 1040 303 q 1031 224 1040 263 q 992 139 1021 185 q 916 59 963 93 q 788 2 869 25 q 600 -21 706 -21 l 532 -21 q 338 7 422 -21 q 204 76 253 35 q 125 173 156 117 q 85 277 94 229 q 75 375 75 325 l 75 394 q 85 492 75 444 q 124 597 94 540 q 202 694 154 653 q 335 764 250 736 q 531 792 419 792 l 594 792 q 783 769 701 792 q 913 714 865 747 q 990 636 960 681 q 1030 553 1019 592 q 1040 478 1040 515 l 1040 476 l 757 476 q 747 507 754 492 q 722 547 740 522 q 663 586 703 571 q 567 601 622 601 l 553 601 q 363 481 403 601 l 668 481 l 668 314 l 358 314 q 558 174 400 174 l 572 174 q 668 190 628 174 q 726 231 708 207 q 750 274 743 256 q 757 303 757 292 z "},"ѕ":{"ha":1024,"x_min":74,"x_max":949,"o":"m 522 -18 l 486 -18 q 299 2 379 -18 q 176 49 218 22 q 110 114 135 76 q 79 177 85 151 q 74 228 74 203 l 74 235 l 364 235 q 518 153 376 153 l 521 153 q 669 226 669 153 q 640 278 669 260 q 522 300 611 296 l 417 308 q 78 539 78 329 l 78 547 q 95 642 78 601 q 154 717 113 682 q 277 770 196 751 q 476 789 358 789 l 514 789 q 700 774 621 789 q 823 735 779 758 q 892 678 867 713 q 925 616 918 644 q 932 553 932 588 l 932 549 l 649 549 q 635 582 642 569 q 594 609 628 594 q 501 624 560 624 l 497 624 q 382 608 414 624 q 350 560 350 592 q 380 508 350 525 q 489 488 410 490 l 594 483 q 870 417 792 475 q 949 256 949 360 l 949 246 q 933 149 949 190 q 876 67 918 107 q 744 4 833 26 q 522 -18 656 -18 z "},"і":{"ha":501,"x_min":113,"x_max":389,"o":"m 389 1051 l 389 857 l 113 857 l 113 1051 l 389 1051 m 386 771 l 386 0 l 115 0 l 115 771 l 386 771 z "},"ї":{"ha":501,"x_min":6,"x_max":496,"o":"m 221 1051 l 221 857 l 6 857 l 6 1051 l 221 1051 m 496 1051 l 496 857 l 281 857 l 281 1051 l 496 1051 m 386 771 l 386 0 l 115 0 l 115 771 l 386 771 z "},"ј":{"ha":501,"x_min":-22,"x_max":389,"o":"m 389 1051 l 389 857 l 113 857 l 113 1051 l 389 1051 m -22 -64 l 61 -64 q 103 -50 92 -64 q 115 -3 115 -36 l 115 771 l 386 771 l 386 -68 q 225 -265 386 -265 l -22 -265 l -22 -64 z "},"љ":{"ha":1586,"x_min":49,"x_max":1538,"o":"m 165 289 q 181 771 181 371 l 960 771 l 960 550 l 1171 550 q 1448 478 1358 550 q 1538 286 1538 406 l 1538 269 q 1171 0 1538 0 l 689 0 l 689 565 l 439 565 q 406 172 439 261 q 385 124 394 142 q 356 79 376 106 q 309 38 335 53 q 238 11 283 22 q 133 0 192 0 l 49 0 l 49 201 l 65 201 q 130 220 106 201 q 165 289 154 239 m 960 183 l 1138 183 q 1260 275 1260 183 l 1260 279 q 1224 347 1260 326 q 1138 367 1188 367 l 960 367 l 960 183 z "},"њ":{"ha":1575,"x_min":113,"x_max":1526,"o":"m 383 328 l 383 0 l 113 0 l 113 771 l 383 771 l 383 533 l 678 533 l 678 771 l 949 771 l 949 533 l 1160 533 q 1437 463 1347 533 q 1526 278 1526 392 l 1526 261 q 1160 0 1526 0 l 678 0 l 678 328 l 383 328 m 949 350 l 949 183 l 1126 183 q 1249 267 1249 183 l 1249 271 q 1213 332 1249 314 q 1126 350 1176 350 l 949 350 z "},"ћ":{"ha":1150,"x_min":-15,"x_max":1038,"o":"m 115 979 l 115 1051 l 386 1051 l 386 979 l 757 979 l 757 858 l 386 858 l 386 650 q 442 706 410 679 q 546 760 475 732 q 696 789 617 789 l 710 789 q 953 702 868 789 q 1038 500 1038 615 l 1038 0 l 767 0 l 767 401 q 721 526 767 475 q 582 576 675 576 q 438 522 490 576 q 386 392 386 468 l 386 0 l 115 0 l 115 858 l -15 858 l -15 979 l 115 979 z "},"ќ":{"ha":1008,"x_min":115,"x_max":1008,"o":"m 686 0 l 386 357 l 386 0 l 115 0 l 115 771 l 386 771 l 386 463 l 661 771 l 974 771 l 651 425 l 1008 0 l 686 0 m 386 857 l 508 1064 l 811 1064 l 657 857 l 386 857 z "},"ў":{"ha":1046,"x_min":25,"x_max":1021,"o":"m 171 -265 l 171 -72 l 340 -72 q 381 -40 381 -72 l 381 -39 q 356 36 381 -15 l 25 771 l 322 771 l 536 218 l 749 771 l 1021 771 l 668 -78 q 569 -221 626 -176 q 419 -265 513 -265 l 171 -265 m 551 850 l 510 850 q 377 874 432 850 q 297 935 322 897 q 260 1006 271 972 q 250 1072 250 1039 l 250 1076 l 454 1076 q 458 1049 454 1063 q 481 1019 463 1035 q 532 1003 500 1003 q 580 1019 561 1003 q 603 1049 599 1035 q 607 1076 607 1064 l 808 1076 l 808 1072 q 801 1022 808 1049 q 776 963 794 994 q 729 908 757 932 q 655 867 701 883 q 551 850 608 850 z "},"џ":{"ha":1117,"x_min":113,"x_max":1004,"o":"m 1004 0 l 686 0 l 686 -164 l 431 -164 l 431 0 l 113 0 l 113 771 l 383 771 l 383 206 l 733 206 l 733 771 l 1004 771 l 1004 0 z "},"Ґ":{"ha":1024,"x_min":128,"x_max":989,"o":"m 128 0 l 128 1033 l 717 1033 l 717 1203 l 989 1203 l 989 806 l 414 806 l 414 0 l 128 0 z "},"ґ":{"ha":819,"x_min":113,"x_max":785,"o":"m 113 0 l 113 771 l 528 771 l 528 911 l 785 911 l 785 565 l 383 565 l 383 0 l 113 0 z "},"Ғ":{"ha":1061,"x_min":24,"x_max":1026,"o":"m 165 622 l 165 1033 l 1026 1033 l 1026 806 l 451 806 l 451 622 l 744 622 l 744 428 l 451 428 l 451 0 l 165 0 l 165 428 l 24 428 l 24 622 l 165 622 z "},"ғ":{"ha":839,"x_min":17,"x_max":804,"o":"m 132 426 l 132 771 l 804 771 l 804 565 l 403 565 l 403 426 l 631 426 l 631 289 l 403 289 l 403 0 l 132 0 l 132 289 l 17 289 l 17 426 l 132 426 z "},"Җ":{"ha":1869,"x_min":-7,"x_max":1863,"o":"m 1863 -174 l 1590 -174 l 1590 0 l 1490 0 l 1063 456 l 1063 0 l 776 0 l 776 456 l 349 0 l -7 0 l 507 547 l 0 1033 l 363 1033 l 776 638 l 776 1033 l 1063 1033 l 1063 638 l 1476 1033 l 1832 1033 l 1339 560 l 1644 228 l 1863 228 l 1863 -174 z "},"җ":{"ha":1481,"x_min":0,"x_max":1481,"o":"m 596 0 l 596 340 l 310 0 l 0 0 l 349 413 l 15 771 l 335 771 l 596 478 l 596 771 l 867 771 l 867 478 l 1128 771 l 1440 771 l 1118 425 l 1301 206 l 1481 206 l 1481 -164 l 1224 -164 l 1224 0 l 1153 0 l 867 340 l 867 0 l 596 0 z "},"Қ":{"ha":1293,"x_min":128,"x_max":1286,"o":"m 1286 -174 l 1014 -174 l 1014 0 l 911 0 l 414 486 l 414 0 l 128 0 l 128 1033 l 414 1033 l 414 608 l 897 1033 l 1261 1033 l 717 560 l 1053 228 l 1286 228 l 1286 -174 z "},"қ":{"ha":1008,"x_min":115,"x_max":1008,"o":"m 686 0 l 386 357 l 386 0 l 115 0 l 115 771 l 386 771 l 386 463 l 661 771 l 974 771 l 651 425 l 835 206 l 1008 206 l 1008 -164 l 751 -164 l 751 0 l 686 0 z "},"Ң":{"ha":1478,"x_min":128,"x_max":1443,"o":"m 1443 -174 l 1171 -174 l 1171 0 l 990 0 l 990 415 l 414 415 l 414 0 l 128 0 l 128 1033 l 414 1033 l 414 650 l 990 650 l 990 1033 l 1276 1033 l 1276 228 l 1443 228 l 1443 -174 z "},"ң":{"ha":1219,"x_min":113,"x_max":1171,"o":"m 383 0 l 113 0 l 113 771 l 383 771 l 383 490 l 761 490 l 761 771 l 1032 771 l 1032 206 l 1171 206 l 1171 -164 l 914 -164 l 914 0 l 761 0 l 761 285 l 383 285 l 383 0 z "},"Ү":{"ha":1288,"x_min":-3,"x_max":1290,"o":"m 510 0 l 510 378 l -3 1033 l 351 1033 l 661 624 l 971 1033 l 1290 1033 l 796 376 l 796 0 l 510 0 z "},"ү":{"ha":1039,"x_min":25,"x_max":1014,"o":"m 657 0 l 657 -265 l 386 -265 l 386 0 l 25 771 l 306 771 l 525 275 l 740 771 l 1014 771 l 657 0 z "},"Ұ":{"ha":1288,"x_min":-3,"x_max":1290,"o":"m 224 378 l 510 378 l -3 1033 l 351 1033 l 661 624 l 971 1033 l 1290 1033 l 797 378 l 1083 378 l 1083 201 l 796 201 l 796 0 l 510 0 l 510 201 l 224 201 l 224 378 z "},"ұ":{"ha":1039,"x_min":25,"x_max":1014,"o":"m 657 -137 l 657 -265 l 386 -265 l 386 -137 l 214 -137 l 214 0 l 386 0 l 25 771 l 306 771 l 525 275 l 740 771 l 1014 771 l 657 0 l 829 0 l 829 -137 l 657 -137 z "},"Ҳ":{"ha":1299,"x_min":14,"x_max":1292,"o":"m 946 0 l 650 336 l 350 0 l 14 0 l 469 525 l 21 1033 l 383 1033 l 664 713 l 943 1033 l 1272 1033 l 838 528 l 1096 228 l 1292 228 l 1292 -174 l 1019 -174 l 1019 0 l 946 0 z "},"ҳ":{"ha":1042,"x_min":3,"x_max":1042,"o":"m 729 0 l 522 221 l 321 0 l 14 0 l 360 386 l 3 771 l 335 771 l 532 556 l 722 771 l 1021 771 l 689 392 l 856 206 l 1042 206 l 1042 -164 l 785 -164 l 785 0 l 729 0 z "},"Һ":{"ha":1335,"x_min":142,"x_max":1238,"o":"m 428 1033 l 428 650 q 682 668 572 668 q 869 660 790 668 q 1021 627 947 651 q 1140 560 1094 603 q 1211 449 1185 518 q 1238 282 1238 379 l 1238 0 l 951 0 l 951 235 q 883 399 951 357 q 643 442 815 442 q 428 426 517 442 l 428 0 l 142 0 l 142 1033 l 428 1033 z "},"һ":{"ha":1150,"x_min":115,"x_max":1038,"o":"m 115 0 l 115 1051 l 386 1051 l 386 650 q 442 706 410 679 q 546 760 475 732 q 696 789 617 789 l 710 789 q 953 702 868 789 q 1038 500 1038 615 l 1038 0 l 767 0 l 767 401 q 721 526 767 475 q 582 576 675 576 q 438 522 490 576 q 386 392 386 468 l 386 0 l 115 0 z "},"Ӏ":{"ha":542,"x_min":128,"x_max":414,"o":"m 414 1033 l 414 0 l 128 0 l 128 1033 l 414 1033 z "},"ӏ":{"ha":501,"x_min":115,"x_max":386,"o":"m 386 1051 l 386 0 l 115 0 l 115 1051 l 386 1051 z "},"Ә":{"ha":1426,"x_min":78,"x_max":1344,"o":"m 733 -15 l 669 -15 q 440 17 543 -15 q 271 103 338 50 q 160 227 204 156 q 97 373 115 299 q 78 525 78 447 l 78 604 l 1049 604 q 951 770 1031 714 q 701 826 871 826 q 375 686 422 826 l 81 686 q 126 816 92 756 q 226 931 160 876 q 405 1017 292 986 q 669 1049 518 1049 l 733 1049 q 982 1016 872 1049 q 1158 932 1092 983 q 1268 812 1225 881 q 1328 676 1311 743 q 1344 540 1344 610 l 1344 499 q 1328 364 1344 431 q 1268 227 1311 297 q 1158 104 1225 157 q 982 18 1092 51 q 733 -15 872 -15 m 700 208 q 1042 404 986 208 l 394 404 q 495 257 424 306 q 700 208 567 208 z "},"ә":{"ha":1126,"x_min":74,"x_max":1051,"o":"m 565 160 q 772 297 749 160 l 364 297 q 565 160 364 160 m 358 531 l 76 531 q 84 583 76 556 q 120 649 92 610 q 194 717 149 688 q 326 767 240 746 q 525 789 413 789 l 576 789 q 772 765 686 789 q 908 704 857 742 q 993 614 960 667 q 1039 508 1026 561 q 1051 396 1051 456 l 1051 376 q 1031 240 1051 304 q 964 116 1011 176 q 824 19 917 56 q 600 -17 731 -17 l 539 -17 q 340 8 425 -17 q 204 74 254 33 q 124 173 154 114 q 84 290 94 232 q 74 418 74 347 l 74 443 l 775 443 q 542 604 756 604 q 499 602 519 604 q 463 597 478 600 q 434 590 447 594 q 412 582 421 586 q 394 572 403 578 q 381 562 385 565 q 372 552 376 558 q 365 543 367 546 q 361 536 364 540 l 358 531 z "},"Ө":{"ha":1467,"x_min":82,"x_max":1385,"o":"m 703 1050 l 764 1050 q 1013 1018 903 1050 q 1192 936 1124 986 q 1305 817 1260 886 q 1367 681 1350 749 q 1385 540 1385 613 l 1385 499 q 1367 360 1385 428 q 1305 222 1350 292 q 1192 100 1260 151 q 1013 16 1124 49 q 764 -17 903 -17 l 703 -17 q 453 16 564 -17 q 275 100 343 49 q 162 222 207 151 q 99 360 117 292 q 82 499 82 428 l 82 540 q 99 680 82 613 q 162 816 117 747 q 275 935 207 885 q 453 1018 343 986 q 703 1050 564 1050 m 1078 629 q 733 819 1014 819 q 389 629 453 819 l 1078 629 m 733 215 q 972 272 889 215 q 1081 418 1056 329 l 388 418 q 496 273 413 331 q 733 215 579 215 z "},"ө":{"ha":1149,"x_min":74,"x_max":1075,"o":"m 596 -21 l 553 -21 q 344 7 435 -21 q 204 76 254 35 q 123 174 154 118 q 83 277 92 231 q 74 372 74 324 l 74 392 q 83 488 74 440 q 123 592 92 535 q 204 691 154 649 q 344 763 254 733 q 551 792 433 792 l 597 792 q 810 763 719 792 q 951 692 901 733 q 1029 592 1000 650 q 1067 488 1058 533 q 1075 393 1075 442 l 1075 371 q 1067 276 1075 321 q 1029 174 1058 231 q 951 76 1000 117 q 810 8 901 36 q 596 -21 718 -21 m 582 599 l 567 599 q 358 469 400 599 l 789 469 q 582 599 747 599 m 567 176 l 582 176 q 789 311 747 176 l 358 311 q 567 176 401 176 z "},"Ẁ":{"ha":1861,"x_min":25,"x_max":1836,"o":"m 713 0 l 381 0 l 25 1033 l 332 1033 l 560 290 l 776 1033 l 1110 1033 l 1328 288 l 1554 1033 l 1836 1033 l 1493 0 l 1151 0 l 932 724 l 713 0 m 800 1118 l 653 1324 l 961 1324 l 1088 1118 l 800 1118 z "},"ẁ":{"ha":1600,"x_min":31,"x_max":1568,"o":"m 647 0 l 332 0 l 31 771 l 318 771 l 503 236 l 663 771 l 968 771 l 1140 236 l 1311 771 l 1568 771 l 1296 0 l 978 0 l 808 500 l 647 0 m 821 1064 l 943 857 l 672 857 l 518 1064 l 821 1064 z "},"Ẃ":{"ha":1861,"x_min":25,"x_max":1836,"o":"m 713 0 l 381 0 l 25 1033 l 332 1033 l 560 290 l 776 1033 l 1110 1033 l 1328 288 l 1554 1033 l 1836 1033 l 1493 0 l 1151 0 l 932 724 l 713 0 m 1086 1118 l 799 1118 l 925 1324 l 1233 1324 l 1086 1118 z "},"ẃ":{"ha":1600,"x_min":31,"x_max":1568,"o":"m 647 0 l 332 0 l 31 771 l 318 771 l 503 236 l 663 771 l 968 771 l 1140 236 l 1311 771 l 1568 771 l 1296 0 l 978 0 l 808 500 l 647 0 m 676 857 l 799 1064 l 1101 1064 l 947 857 l 676 857 z "},"Ẅ":{"ha":1861,"x_min":25,"x_max":1836,"o":"m 713 0 l 381 0 l 25 1033 l 332 1033 l 560 290 l 776 1033 l 1110 1033 l 1328 288 l 1554 1033 l 1836 1033 l 1493 0 l 1151 0 l 932 724 l 713 0 m 900 1313 l 900 1118 l 631 1118 l 631 1313 l 900 1313 m 1256 1313 l 1256 1118 l 986 1118 l 986 1313 l 1256 1313 z "},"ẅ":{"ha":1600,"x_min":31,"x_max":1568,"o":"m 647 0 l 332 0 l 31 771 l 318 771 l 503 236 l 663 771 l 968 771 l 1140 236 l 1311 771 l 1568 771 l 1296 0 l 978 0 l 808 500 l 647 0 m 771 1051 l 771 857 l 506 857 l 506 1051 l 771 1051 m 1119 1051 l 1119 857 l 854 857 l 854 1051 l 1119 1051 z "},"Ỳ":{"ha":1288,"x_min":-3,"x_max":1290,"o":"m 510 0 l 510 378 l -3 1033 l 351 1033 l 661 624 l 971 1033 l 1290 1033 l 796 376 l 796 0 l 510 0 m 518 1118 l 371 1324 l 679 1324 l 806 1118 l 518 1118 z "},"ỳ":{"ha":1046,"x_min":25,"x_max":1021,"o":"m 171 -265 l 171 -72 l 340 -72 q 381 -40 381 -72 l 381 -39 q 356 36 381 -15 l 25 771 l 322 771 l 536 218 l 749 771 l 1021 771 l 668 -78 q 569 -221 626 -176 q 419 -265 513 -265 l 171 -265 m 551 1064 l 674 857 l 403 857 l 249 1064 l 551 1064 z "}," ":{"ha":97,"x_min":0,"x_max":0,"o":""}}}
